<svg xmlns="http://www.w3.org/2000/svg" xmlns:xlink="http://www.w3.org/1999/xlink" width="1000" zoomAndPan="magnify" viewBox="0 0 750 757.92" height="1000" preserveAspectRatio="xMidYMid meet" version="1.0"><defs><clipPath id="2c65802270"><path d="M 99.027344 331.503906 L 674.96875 331.503906 L 674.96875 418.492188 L 99.027344 418.492188 Z M 99.027344 331.503906 " clip-rule="nonzero"/></clipPath><clipPath id="d1a6947860"><path d="M 254 331.503906 L 261 331.503906 L 261 338 L 254 338 Z M 254 331.503906 " clip-rule="nonzero"/></clipPath><clipPath id="aaabb2d1d5"><path d="M 657 331.503906 L 670 331.503906 L 670 338 L 657 338 Z M 657 331.503906 " clip-rule="nonzero"/></clipPath><clipPath id="2b364d29d7"><path d="M 99.027344 389 L 674.96875 389 L 674.96875 418.492188 L 99.027344 418.492188 Z M 99.027344 389 " clip-rule="nonzero"/></clipPath><clipPath id="e9f70139ac"><path d="M 663 354 L 674.96875 354 L 674.96875 367 L 663 367 Z M 663 354 " clip-rule="nonzero"/></clipPath><clipPath id="76964e9363"><path d="M 346 331.503906 L 359 331.503906 L 359 338 L 346 338 Z M 346 331.503906 " clip-rule="nonzero"/></clipPath><clipPath id="73de905a79"><path d="M 525 331.503906 L 531 331.503906 L 531 338 L 525 338 Z M 525 331.503906 " clip-rule="nonzero"/></clipPath></defs><g clip-path="url(#2c65802270)"><path fill="#007d2a" d="M 669.207031 349.058594 L 669.207031 343.292969 L 657.691406 343.292969 L 657.691406 337.527344 L 646.171875 337.527344 L 646.171875 331.761719 L 640.410156 331.761719 L 640.410156 337.527344 L 634.652344 337.527344 L 634.652344 349.058594 L 628.894531 349.058594 L 628.894531 343.292969 L 611.613281 343.292969 L 611.613281 349.058594 L 605.855469 349.058594 L 605.855469 343.292969 L 594.335938 343.292969 L 594.335938 337.527344 L 600.097656 337.527344 L 600.097656 331.761719 L 588.578125 331.761719 L 588.578125 337.527344 L 577.058594 337.527344 L 577.058594 343.292969 L 565.539062 343.292969 L 565.539062 349.058594 L 559.78125 349.058594 L 559.78125 337.527344 L 554.019531 337.527344 L 554.019531 343.292969 L 542.503906 343.292969 L 542.503906 349.058594 L 536.742188 349.058594 L 536.742188 343.292969 L 525.222656 343.292969 L 525.222656 337.527344 L 536.742188 337.527344 L 536.742188 331.761719 L 519.464844 331.761719 L 519.464844 337.527344 L 507.945312 337.527344 L 507.945312 343.292969 L 502.1875 343.292969 L 502.1875 349.058594 L 496.425781 349.058594 L 496.425781 337.527344 L 502.1875 337.527344 L 502.1875 331.761719 L 490.667969 331.761719 L 490.667969 337.527344 L 473.390625 337.527344 L 473.390625 343.292969 L 479.148438 343.292969 L 479.148438 349.058594 L 473.390625 349.058594 L 473.390625 343.292969 L 467.628906 343.292969 L 467.628906 337.527344 L 461.871094 337.527344 L 461.871094 343.292969 L 456.113281 343.292969 L 456.113281 337.527344 L 450.351562 337.527344 L 450.351562 331.761719 L 438.832031 331.761719 L 438.832031 337.527344 L 444.59375 337.527344 L 444.59375 343.292969 L 438.832031 343.292969 L 438.832031 349.058594 L 433.074219 349.058594 L 433.074219 343.292969 L 427.316406 343.292969 L 427.316406 337.527344 L 421.554688 337.527344 L 421.554688 343.292969 L 415.796875 343.292969 L 415.796875 349.058594 L 410.035156 349.058594 L 410.035156 343.292969 L 404.277344 343.292969 L 404.277344 349.058594 L 398.515625 349.058594 L 398.515625 343.292969 L 387 343.292969 L 387 337.527344 L 375.480469 337.527344 L 375.480469 331.761719 L 363.960938 331.761719 L 363.960938 337.527344 L 358.203125 337.527344 L 358.203125 331.761719 L 340.921875 331.761719 L 340.921875 337.527344 L 352.441406 337.527344 L 352.441406 343.292969 L 335.164062 343.292969 L 335.164062 349.058594 L 317.886719 349.058594 L 317.886719 343.292969 L 312.125 343.292969 L 312.125 337.527344 L 306.367188 337.527344 L 306.367188 343.292969 L 294.847656 343.292969 L 294.847656 349.058594 L 289.089844 349.058594 L 289.089844 343.292969 L 277.570312 343.292969 L 277.570312 349.058594 L 271.8125 349.058594 L 271.8125 343.292969 L 266.050781 343.292969 L 266.050781 349.058594 L 260.292969 349.058594 L 260.292969 343.292969 L 254.53125 343.292969 L 254.53125 337.527344 L 237.253906 337.527344 L 237.253906 343.292969 L 231.496094 343.292969 L 231.496094 349.058594 L 219.976562 349.058594 L 219.976562 343.292969 L 214.21875 343.292969 L 214.21875 349.058594 L 208.457031 349.058594 L 208.457031 343.292969 L 185.421875 343.292969 L 185.421875 349.058594 L 179.660156 349.058594 L 179.660156 343.292969 L 185.421875 343.292969 L 185.421875 337.527344 L 173.902344 337.527344 L 173.902344 343.292969 L 168.140625 343.292969 L 168.140625 337.527344 L 162.382812 337.527344 L 162.382812 331.761719 L 150.863281 331.761719 L 150.863281 337.527344 L 127.824219 337.527344 L 127.824219 343.292969 L 110.546875 343.292969 L 110.546875 337.757812 L 99.027344 337.757812 L 99.027344 343.292969 L 104.789062 343.292969 L 104.789062 349.058594 L 99.027344 349.058594 L 99.027344 418.234375 L 674.96875 418.234375 L 674.96875 349.058594 Z M 669.207031 349.058594 " fill-opacity="1" fill-rule="nonzero"/></g><g clip-path="url(#d1a6947860)"><path fill="#007d2a" d="M 254.53125 331.761719 L 260.292969 331.761719 L 260.292969 337.527344 L 254.53125 337.527344 Z M 254.53125 331.761719 " fill-opacity="1" fill-rule="nonzero"/></g><path fill="#007d2a" d="M 208.457031 337.527344 L 214.21875 337.527344 L 214.21875 343.292969 L 208.457031 343.292969 Z M 208.457031 337.527344 " fill-opacity="1" fill-rule="nonzero"/><path fill="#007d2a" d="M 398.515625 337.527344 L 404.277344 337.527344 L 404.277344 343.292969 L 398.515625 343.292969 Z M 398.515625 337.527344 " fill-opacity="1" fill-rule="nonzero"/><path fill="#007d2a" d="M 323.644531 337.527344 L 335.164062 337.527344 L 335.164062 343.292969 L 323.644531 343.292969 Z M 323.644531 337.527344 " fill-opacity="1" fill-rule="nonzero"/><g clip-path="url(#aaabb2d1d5)"><path fill="#007d2a" d="M 657.691406 331.761719 L 669.207031 331.761719 L 669.207031 337.527344 L 657.691406 337.527344 Z M 657.691406 331.761719 " fill-opacity="1" fill-rule="nonzero"/></g><g clip-path="url(#2b364d29d7)"><path fill="#2e1b5b" d="M 669.207031 406.703125 L 669.207031 400.941406 L 663.449219 400.941406 L 663.449219 406.703125 L 657.691406 406.703125 L 657.691406 400.941406 L 651.929688 400.941406 L 651.929688 406.703125 L 646.171875 406.703125 L 646.171875 395.175781 L 628.894531 395.175781 L 628.894531 400.941406 L 640.410156 400.941406 L 640.410156 406.703125 L 617.375 406.703125 L 617.375 400.941406 L 611.613281 400.941406 L 611.613281 395.175781 L 605.855469 395.175781 L 605.855469 400.941406 L 594.335938 400.941406 L 594.335938 406.703125 L 582.816406 406.703125 L 582.816406 400.941406 L 571.300781 400.941406 L 571.300781 406.703125 L 565.539062 406.703125 L 565.539062 400.941406 L 554.019531 400.941406 L 554.019531 395.175781 L 548.261719 395.175781 L 548.261719 406.703125 L 542.503906 406.703125 L 542.503906 400.941406 L 536.742188 400.941406 L 536.742188 406.703125 L 530.984375 406.703125 L 530.984375 400.941406 L 525.222656 400.941406 L 525.222656 406.703125 L 519.464844 406.703125 L 519.464844 400.941406 L 513.707031 400.941406 L 513.707031 395.175781 L 507.945312 395.175781 L 507.945312 400.941406 L 490.667969 400.941406 L 490.667969 406.703125 L 479.148438 406.703125 L 479.148438 400.941406 L 467.628906 400.941406 L 467.628906 406.703125 L 461.871094 406.703125 L 461.871094 400.941406 L 450.351562 400.941406 L 450.351562 406.703125 L 438.832031 406.703125 L 438.832031 400.941406 L 433.074219 400.941406 L 433.074219 406.703125 L 427.316406 406.703125 L 427.316406 400.941406 L 421.554688 400.941406 L 421.554688 395.175781 L 415.796875 395.175781 L 415.796875 400.941406 L 410.035156 400.941406 L 410.035156 406.703125 L 404.277344 406.703125 L 404.277344 400.941406 L 387 400.941406 L 387 406.703125 L 381.238281 406.703125 L 381.238281 400.941406 L 375.480469 400.941406 L 375.480469 406.703125 L 352.441406 406.703125 L 352.441406 400.941406 L 358.203125 400.941406 L 358.203125 395.175781 L 340.921875 395.175781 L 340.921875 389.410156 L 335.164062 389.410156 L 335.164062 395.175781 L 329.40625 395.175781 L 329.40625 400.941406 L 346.683594 400.941406 L 346.683594 406.703125 L 317.886719 406.703125 L 317.886719 400.941406 L 312.125 400.941406 L 312.125 406.703125 L 300.609375 406.703125 L 300.609375 395.175781 L 294.847656 395.175781 L 294.847656 400.941406 L 289.089844 400.941406 L 289.089844 406.703125 L 271.8125 406.703125 L 271.8125 400.941406 L 266.050781 400.941406 L 266.050781 406.703125 L 248.773438 406.703125 L 248.773438 400.941406 L 237.253906 400.941406 L 237.253906 406.703125 L 231.496094 406.703125 L 231.496094 395.175781 L 225.734375 395.175781 L 225.734375 400.941406 L 214.21875 400.941406 L 214.21875 406.703125 L 196.9375 406.703125 L 196.9375 400.941406 L 185.421875 400.941406 L 185.421875 406.703125 L 173.902344 406.703125 L 173.902344 400.941406 L 162.382812 400.941406 L 162.382812 395.175781 L 156.621094 395.175781 L 156.621094 406.703125 L 139.34375 406.703125 L 139.34375 400.941406 L 127.824219 400.941406 L 127.824219 406.703125 L 116.308594 406.703125 L 116.308594 400.941406 L 104.789062 400.941406 L 104.789062 406.703125 L 99.027344 406.703125 L 99.027344 418.234375 L 674.96875 418.234375 L 674.96875 406.703125 Z M 669.207031 406.703125 " fill-opacity="1" fill-rule="nonzero"/></g><path fill="#2e1b5b" d="M 116.308594 395.175781 L 122.066406 395.175781 L 122.066406 400.941406 L 116.308594 400.941406 Z M 116.308594 395.175781 " fill-opacity="1" fill-rule="nonzero"/><path fill="#2e1b5b" d="M 196.9375 395.175781 L 202.699219 395.175781 L 202.699219 400.941406 L 196.9375 400.941406 Z M 196.9375 395.175781 " fill-opacity="1" fill-rule="nonzero"/><path fill="#2e1b5b" d="M 173.902344 389.410156 L 179.660156 389.410156 L 179.660156 395.175781 L 173.902344 395.175781 Z M 173.902344 389.410156 " fill-opacity="1" fill-rule="nonzero"/><path fill="#2e1b5b" d="M 104.789062 389.410156 L 110.546875 389.410156 L 110.546875 395.175781 L 104.789062 395.175781 Z M 104.789062 389.410156 " fill-opacity="1" fill-rule="nonzero"/><path fill="#2e1b5b" d="M 254.53125 389.410156 L 260.292969 389.410156 L 260.292969 395.175781 L 254.53125 395.175781 Z M 254.53125 389.410156 " fill-opacity="1" fill-rule="nonzero"/><path fill="#2e1b5b" d="M 260.292969 395.175781 L 266.050781 395.175781 L 266.050781 400.941406 L 260.292969 400.941406 Z M 260.292969 395.175781 " fill-opacity="1" fill-rule="nonzero"/><path fill="#2e1b5b" d="M 271.8125 395.175781 L 277.570312 395.175781 L 277.570312 400.941406 L 271.8125 400.941406 Z M 271.8125 395.175781 " fill-opacity="1" fill-rule="nonzero"/><path fill="#2e1b5b" d="M 363.960938 395.175781 L 369.71875 395.175781 L 369.71875 400.941406 L 363.960938 400.941406 Z M 363.960938 395.175781 " fill-opacity="1" fill-rule="nonzero"/><path fill="#2e1b5b" d="M 381.238281 395.175781 L 387 395.175781 L 387 400.941406 L 381.238281 400.941406 Z M 381.238281 395.175781 " fill-opacity="1" fill-rule="nonzero"/><path fill="#2e1b5b" d="M 398.515625 389.410156 L 410.035156 389.410156 L 410.035156 395.175781 L 398.515625 395.175781 Z M 398.515625 389.410156 " fill-opacity="1" fill-rule="nonzero"/><path fill="#2e1b5b" d="M 438.832031 395.175781 L 444.59375 395.175781 L 444.59375 400.941406 L 438.832031 400.941406 Z M 438.832031 395.175781 " fill-opacity="1" fill-rule="nonzero"/><path fill="#2e1b5b" d="M 461.871094 395.175781 L 467.628906 395.175781 L 467.628906 400.941406 L 461.871094 400.941406 Z M 461.871094 395.175781 " fill-opacity="1" fill-rule="nonzero"/><path fill="#2e1b5b" d="M 530.984375 395.175781 L 536.742188 395.175781 L 536.742188 400.941406 L 530.984375 400.941406 Z M 530.984375 395.175781 " fill-opacity="1" fill-rule="nonzero"/><path fill="#2e1b5b" d="M 536.742188 389.410156 L 542.503906 389.410156 L 542.503906 395.175781 L 536.742188 395.175781 Z M 536.742188 389.410156 " fill-opacity="1" fill-rule="nonzero"/><path fill="#2e1b5b" d="M 502.1875 389.410156 L 507.945312 389.410156 L 507.945312 395.175781 L 502.1875 395.175781 Z M 502.1875 389.410156 " fill-opacity="1" fill-rule="nonzero"/><path fill="#2e1b5b" d="M 484.910156 389.410156 L 490.667969 389.410156 L 490.667969 395.175781 L 484.910156 395.175781 Z M 484.910156 389.410156 " fill-opacity="1" fill-rule="nonzero"/><path fill="#2e1b5b" d="M 450.351562 389.410156 L 461.871094 389.410156 L 461.871094 395.175781 L 450.351562 395.175781 Z M 450.351562 389.410156 " fill-opacity="1" fill-rule="nonzero"/><path fill="#2e1b5b" d="M 582.816406 395.175781 L 588.578125 395.175781 L 588.578125 400.941406 L 582.816406 400.941406 Z M 582.816406 395.175781 " fill-opacity="1" fill-rule="nonzero"/><path fill="#2e1b5b" d="M 611.613281 389.410156 L 617.375 389.410156 L 617.375 395.175781 L 611.613281 395.175781 Z M 611.613281 389.410156 " fill-opacity="1" fill-rule="nonzero"/><path fill="#2e1b5b" d="M 657.691406 395.175781 L 663.449219 395.175781 L 663.449219 400.941406 L 657.691406 400.941406 Z M 657.691406 395.175781 " fill-opacity="1" fill-rule="nonzero"/><path fill="#2e1b5b" d="M 657.691406 383.644531 L 663.449219 383.644531 L 663.449219 389.410156 L 657.691406 389.410156 Z M 657.691406 383.644531 " fill-opacity="1" fill-rule="nonzero"/><path fill="#2e1b5b" d="M 231.496094 389.410156 L 237.253906 389.410156 L 237.253906 395.175781 L 231.496094 395.175781 Z M 231.496094 389.410156 " fill-opacity="1" fill-rule="nonzero"/><path fill="#2e1b5b" d="M 214.21875 383.644531 L 219.976562 383.644531 L 219.976562 389.410156 L 214.21875 389.410156 Z M 214.21875 383.644531 " fill-opacity="1" fill-rule="nonzero"/><path fill="#2e1b5b" d="M 127.824219 389.410156 L 133.585938 389.410156 L 133.585938 395.175781 L 127.824219 395.175781 Z M 127.824219 389.410156 " fill-opacity="1" fill-rule="nonzero"/><path fill="#2e1b5b" d="M 150.863281 383.644531 L 156.621094 383.644531 L 156.621094 389.410156 L 150.863281 389.410156 Z M 150.863281 383.644531 " fill-opacity="1" fill-rule="nonzero"/><path fill="#2e1b5b" d="M 438.832031 383.644531 L 444.59375 383.644531 L 444.59375 389.410156 L 438.832031 389.410156 Z M 438.832031 383.644531 " fill-opacity="1" fill-rule="nonzero"/><path fill="#2e1b5b" d="M 346.683594 377.882812 L 352.441406 377.882812 L 352.441406 383.644531 L 346.683594 383.644531 Z M 346.683594 377.882812 " fill-opacity="1" fill-rule="nonzero"/><path fill="#2e1b5b" d="M 312.125 383.644531 L 317.886719 383.644531 L 317.886719 389.410156 L 312.125 389.410156 Z M 312.125 383.644531 " fill-opacity="1" fill-rule="nonzero"/><path fill="#2e1b5b" d="M 554.019531 377.882812 L 559.78125 377.882812 L 559.78125 383.644531 L 554.019531 383.644531 Z M 554.019531 377.882812 " fill-opacity="1" fill-rule="nonzero"/><path fill="#2e1b5b" d="M 594.335938 383.644531 L 600.097656 383.644531 L 600.097656 389.410156 L 594.335938 389.410156 Z M 594.335938 383.644531 " fill-opacity="1" fill-rule="nonzero"/><path fill="#2e1b5b" d="M 640.410156 383.644531 L 646.171875 383.644531 L 646.171875 389.410156 L 640.410156 389.410156 Z M 640.410156 383.644531 " fill-opacity="1" fill-rule="nonzero"/><path fill="#00c49c" d="M 525.222656 377.882812 L 530.984375 377.882812 L 530.984375 383.644531 L 525.222656 383.644531 Z M 525.222656 377.882812 " fill-opacity="1" fill-rule="nonzero"/><path fill="#00c49c" d="M 542.503906 377.882812 L 548.261719 377.882812 L 548.261719 383.644531 L 542.503906 383.644531 Z M 542.503906 377.882812 " fill-opacity="1" fill-rule="nonzero"/><path fill="#00c49c" d="M 490.667969 383.644531 L 502.1875 383.644531 L 502.1875 389.410156 L 490.667969 389.410156 Z M 490.667969 383.644531 " fill-opacity="1" fill-rule="nonzero"/><path fill="#00c49c" d="M 502.1875 377.882812 L 507.945312 377.882812 L 507.945312 383.644531 L 502.1875 383.644531 Z M 502.1875 377.882812 " fill-opacity="1" fill-rule="nonzero"/><path fill="#00c49c" d="M 461.871094 360.585938 L 473.390625 360.585938 L 473.390625 372.117188 L 461.871094 372.117188 Z M 461.871094 360.585938 " fill-opacity="1" fill-rule="nonzero"/><path fill="#00c49c" d="M 479.148438 366.351562 L 484.910156 366.351562 L 484.910156 372.117188 L 479.148438 372.117188 Z M 479.148438 366.351562 " fill-opacity="1" fill-rule="nonzero"/><path fill="#00c49c" d="M 496.425781 366.351562 L 502.1875 366.351562 L 502.1875 372.117188 L 496.425781 372.117188 Z M 496.425781 366.351562 " fill-opacity="1" fill-rule="nonzero"/><path fill="#00c49c" d="M 358.203125 360.585938 L 363.960938 360.585938 L 363.960938 366.351562 L 358.203125 366.351562 Z M 358.203125 360.585938 " fill-opacity="1" fill-rule="nonzero"/><path fill="#00c49c" d="M 363.960938 372.117188 L 375.480469 372.117188 L 375.480469 377.882812 L 363.960938 377.882812 Z M 363.960938 372.117188 " fill-opacity="1" fill-rule="nonzero"/><path fill="#00c49c" d="M 375.480469 366.351562 L 381.238281 366.351562 L 381.238281 372.117188 L 375.480469 372.117188 Z M 375.480469 366.351562 " fill-opacity="1" fill-rule="nonzero"/><path fill="#00c49c" d="M 381.238281 383.644531 L 387 383.644531 L 387 389.410156 L 381.238281 389.410156 Z M 381.238281 383.644531 " fill-opacity="1" fill-rule="nonzero"/><path fill="#00c49c" d="M 392.757812 377.882812 L 398.515625 377.882812 L 398.515625 383.644531 L 392.757812 383.644531 Z M 392.757812 377.882812 " fill-opacity="1" fill-rule="nonzero"/><path fill="#00c49c" d="M 398.515625 366.351562 L 410.035156 366.351562 L 410.035156 377.882812 L 398.515625 377.882812 Z M 398.515625 366.351562 " fill-opacity="1" fill-rule="nonzero"/><path fill="#00c49c" d="M 410.035156 360.585938 L 415.796875 360.585938 L 415.796875 366.351562 L 410.035156 366.351562 Z M 410.035156 360.585938 " fill-opacity="1" fill-rule="nonzero"/><path fill="#00c49c" d="M 410.035156 377.882812 L 415.796875 377.882812 L 415.796875 383.644531 L 410.035156 383.644531 Z M 410.035156 377.882812 " fill-opacity="1" fill-rule="nonzero"/><path fill="#00c49c" d="M 427.316406 366.351562 L 433.074219 366.351562 L 433.074219 372.117188 L 427.316406 372.117188 Z M 427.316406 366.351562 " fill-opacity="1" fill-rule="nonzero"/><path fill="#00c49c" d="M 415.796875 372.117188 L 427.316406 372.117188 L 427.316406 377.882812 L 415.796875 377.882812 Z M 415.796875 372.117188 " fill-opacity="1" fill-rule="nonzero"/><path fill="#00c49c" d="M 427.316406 383.644531 L 433.074219 383.644531 L 433.074219 389.410156 L 427.316406 389.410156 Z M 427.316406 383.644531 " fill-opacity="1" fill-rule="nonzero"/><path fill="#00c49c" d="M 438.832031 360.585938 L 433.074219 360.585938 L 433.074219 366.351562 L 444.59375 366.351562 L 444.59375 354.820312 L 438.832031 354.820312 Z M 438.832031 360.585938 " fill-opacity="1" fill-rule="nonzero"/><path fill="#00c49c" d="M 438.832031 377.882812 L 444.59375 377.882812 L 444.59375 383.644531 L 438.832031 383.644531 Z M 438.832031 377.882812 " fill-opacity="1" fill-rule="nonzero"/><path fill="#00c49c" d="M 450.351562 366.351562 L 456.113281 366.351562 L 456.113281 372.117188 L 450.351562 372.117188 Z M 450.351562 366.351562 " fill-opacity="1" fill-rule="nonzero"/><path fill="#00c49c" d="M 507.945312 349.058594 L 519.464844 349.058594 L 519.464844 360.585938 L 507.945312 360.585938 Z M 507.945312 349.058594 " fill-opacity="1" fill-rule="nonzero"/><path fill="#00c49c" d="M 519.464844 360.585938 L 525.222656 360.585938 L 525.222656 366.351562 L 519.464844 366.351562 Z M 519.464844 360.585938 " fill-opacity="1" fill-rule="nonzero"/><path fill="#00c49c" d="M 530.984375 354.820312 L 536.742188 354.820312 L 536.742188 360.585938 L 530.984375 360.585938 Z M 530.984375 354.820312 " fill-opacity="1" fill-rule="nonzero"/><path fill="#00c49c" d="M 559.78125 354.820312 L 565.539062 354.820312 L 565.539062 360.585938 L 559.78125 360.585938 Z M 559.78125 354.820312 " fill-opacity="1" fill-rule="nonzero"/><path fill="#00c49c" d="M 548.261719 360.585938 L 554.019531 360.585938 L 554.019531 366.351562 L 548.261719 366.351562 Z M 548.261719 360.585938 " fill-opacity="1" fill-rule="nonzero"/><path fill="#00c49c" d="M 577.058594 366.351562 L 582.816406 366.351562 L 582.816406 372.117188 L 577.058594 372.117188 Z M 577.058594 366.351562 " fill-opacity="1" fill-rule="nonzero"/><path fill="#00c49c" d="M 565.539062 372.117188 L 577.058594 372.117188 L 577.058594 377.882812 L 565.539062 377.882812 Z M 565.539062 372.117188 " fill-opacity="1" fill-rule="nonzero"/><path fill="#00c49c" d="M 582.816406 349.058594 L 594.335938 349.058594 L 594.335938 354.820312 L 582.816406 354.820312 Z M 582.816406 349.058594 " fill-opacity="1" fill-rule="nonzero"/><path fill="#00c49c" d="M 594.335938 360.585938 L 600.097656 360.585938 L 600.097656 366.351562 L 594.335938 366.351562 Z M 594.335938 360.585938 " fill-opacity="1" fill-rule="nonzero"/><path fill="#00c49c" d="M 611.613281 360.585938 L 623.132812 360.585938 L 623.132812 366.351562 L 611.613281 366.351562 Z M 611.613281 360.585938 " fill-opacity="1" fill-rule="nonzero"/><path fill="#00c49c" d="M 628.894531 360.585938 L 634.652344 360.585938 L 634.652344 366.351562 L 628.894531 366.351562 Z M 628.894531 360.585938 " fill-opacity="1" fill-rule="nonzero"/><path fill="#00c49c" d="M 605.855469 372.117188 L 611.613281 372.117188 L 611.613281 377.882812 L 605.855469 377.882812 Z M 605.855469 372.117188 " fill-opacity="1" fill-rule="nonzero"/><path fill="#00c49c" d="M 611.613281 377.882812 L 617.375 377.882812 L 617.375 383.644531 L 611.613281 383.644531 Z M 611.613281 377.882812 " fill-opacity="1" fill-rule="nonzero"/><path fill="#00c49c" d="M 640.410156 366.351562 L 651.929688 366.351562 L 651.929688 377.882812 L 640.410156 377.882812 Z M 640.410156 366.351562 " fill-opacity="1" fill-rule="nonzero"/><path fill="#00c49c" d="M 651.929688 354.820312 L 657.691406 354.820312 L 657.691406 360.585938 L 651.929688 360.585938 Z M 651.929688 354.820312 " fill-opacity="1" fill-rule="nonzero"/><path fill="#00c49c" d="M 663.449219 372.117188 L 669.207031 372.117188 L 669.207031 377.882812 L 663.449219 377.882812 Z M 663.449219 372.117188 " fill-opacity="1" fill-rule="nonzero"/><path fill="#00c49c" d="M 623.132812 383.644531 L 628.894531 383.644531 L 628.894531 389.410156 L 623.132812 389.410156 Z M 623.132812 383.644531 " fill-opacity="1" fill-rule="nonzero"/><path fill="#00c49c" d="M 640.410156 343.292969 L 646.171875 343.292969 L 646.171875 349.058594 L 640.410156 349.058594 Z M 640.410156 343.292969 " fill-opacity="1" fill-rule="nonzero"/><path fill="#00c49c" d="M 571.300781 383.644531 L 577.058594 383.644531 L 577.058594 389.410156 L 571.300781 389.410156 Z M 571.300781 383.644531 " fill-opacity="1" fill-rule="nonzero"/><path fill="#00c49c" d="M 104.789062 354.820312 L 110.546875 354.820312 L 110.546875 360.585938 L 104.789062 360.585938 Z M 104.789062 354.820312 " fill-opacity="1" fill-rule="nonzero"/><path fill="#00c49c" d="M 116.308594 366.351562 L 122.066406 366.351562 L 122.066406 372.117188 L 116.308594 372.117188 Z M 116.308594 366.351562 " fill-opacity="1" fill-rule="nonzero"/><path fill="#00c49c" d="M 127.824219 354.820312 L 139.34375 354.820312 L 139.34375 366.351562 L 127.824219 366.351562 Z M 127.824219 354.820312 " fill-opacity="1" fill-rule="nonzero"/><path fill="#00c49c" d="M 133.585938 377.882812 L 139.34375 377.882812 L 139.34375 383.644531 L 133.585938 383.644531 Z M 133.585938 377.882812 " fill-opacity="1" fill-rule="nonzero"/><path fill="#00c49c" d="M 145.105469 343.292969 L 156.621094 343.292969 L 156.621094 349.058594 L 145.105469 349.058594 Z M 145.105469 343.292969 " fill-opacity="1" fill-rule="nonzero"/><path fill="#00c49c" d="M 139.34375 349.058594 L 145.105469 349.058594 L 145.105469 354.820312 L 139.34375 354.820312 Z M 139.34375 349.058594 " fill-opacity="1" fill-rule="nonzero"/><path fill="#00c49c" d="M 150.863281 366.351562 L 168.140625 366.351562 L 168.140625 372.117188 L 150.863281 372.117188 Z M 150.863281 366.351562 " fill-opacity="1" fill-rule="nonzero"/><path fill="#00c49c" d="M 162.382812 354.820312 L 168.140625 354.820312 L 168.140625 360.585938 L 162.382812 360.585938 Z M 162.382812 354.820312 " fill-opacity="1" fill-rule="nonzero"/><path fill="#00c49c" d="M 168.140625 372.117188 L 179.660156 372.117188 L 179.660156 377.882812 L 168.140625 377.882812 Z M 168.140625 372.117188 " fill-opacity="1" fill-rule="nonzero"/><path fill="#00c49c" d="M 179.660156 377.882812 L 185.421875 377.882812 L 185.421875 383.644531 L 179.660156 383.644531 Z M 179.660156 377.882812 " fill-opacity="1" fill-rule="nonzero"/><path fill="#00c49c" d="M 179.660156 366.351562 L 185.421875 366.351562 L 185.421875 372.117188 L 179.660156 372.117188 Z M 179.660156 366.351562 " fill-opacity="1" fill-rule="nonzero"/><path fill="#00c49c" d="M 185.421875 354.820312 L 196.9375 354.820312 L 196.9375 366.351562 L 185.421875 366.351562 Z M 185.421875 354.820312 " fill-opacity="1" fill-rule="nonzero"/><path fill="#00c49c" d="M 202.699219 354.820312 L 208.457031 354.820312 L 208.457031 360.585938 L 202.699219 360.585938 Z M 202.699219 354.820312 " fill-opacity="1" fill-rule="nonzero"/><path fill="#00c49c" d="M 196.9375 383.644531 L 202.699219 383.644531 L 202.699219 389.410156 L 196.9375 389.410156 Z M 196.9375 383.644531 " fill-opacity="1" fill-rule="nonzero"/><path fill="#00c49c" d="M 104.789062 377.882812 L 110.546875 377.882812 L 110.546875 383.644531 L 104.789062 383.644531 Z M 104.789062 377.882812 " fill-opacity="1" fill-rule="nonzero"/><path fill="#00c49c" d="M 369.71875 349.058594 L 375.480469 349.058594 L 375.480469 354.820312 L 369.71875 354.820312 Z M 369.71875 349.058594 " fill-opacity="1" fill-rule="nonzero"/><path fill="#00c49c" d="M 335.164062 372.117188 L 346.683594 372.117188 L 346.683594 377.882812 L 335.164062 377.882812 Z M 335.164062 372.117188 " fill-opacity="1" fill-rule="nonzero"/><path fill="#00c49c" d="M 323.644531 383.644531 L 329.40625 383.644531 L 329.40625 389.410156 L 323.644531 389.410156 Z M 323.644531 383.644531 " fill-opacity="1" fill-rule="nonzero"/><path fill="#00c49c" d="M 225.734375 366.351562 L 231.496094 366.351562 L 231.496094 372.117188 L 225.734375 372.117188 Z M 225.734375 366.351562 " fill-opacity="1" fill-rule="nonzero"/><path fill="#00c49c" d="M 237.253906 354.820312 L 243.015625 354.820312 L 243.015625 360.585938 L 237.253906 360.585938 Z M 237.253906 354.820312 " fill-opacity="1" fill-rule="nonzero"/><path fill="#00c49c" d="M 243.015625 360.585938 L 248.773438 360.585938 L 248.773438 372.117188 L 243.015625 372.117188 Z M 243.015625 360.585938 " fill-opacity="1" fill-rule="nonzero"/><path fill="#00c49c" d="M 248.773438 372.117188 L 254.53125 372.117188 L 254.53125 377.882812 L 248.773438 377.882812 Z M 248.773438 372.117188 " fill-opacity="1" fill-rule="nonzero"/><path fill="#00c49c" d="M 254.53125 354.820312 L 266.050781 354.820312 L 266.050781 366.351562 L 254.53125 366.351562 Z M 254.53125 354.820312 " fill-opacity="1" fill-rule="nonzero"/><path fill="#00c49c" d="M 266.050781 372.117188 L 271.8125 372.117188 L 271.8125 377.882812 L 266.050781 377.882812 Z M 266.050781 372.117188 " fill-opacity="1" fill-rule="nonzero"/><path fill="#00c49c" d="M 277.570312 366.351562 L 283.328125 366.351562 L 283.328125 372.117188 L 277.570312 372.117188 Z M 277.570312 366.351562 " fill-opacity="1" fill-rule="nonzero"/><path fill="#00c49c" d="M 294.847656 360.585938 L 300.609375 360.585938 L 300.609375 366.351562 L 294.847656 366.351562 Z M 294.847656 360.585938 " fill-opacity="1" fill-rule="nonzero"/><path fill="#00c49c" d="M 300.609375 366.351562 L 312.125 366.351562 L 312.125 372.117188 L 300.609375 372.117188 Z M 300.609375 366.351562 " fill-opacity="1" fill-rule="nonzero"/><path fill="#00c49c" d="M 312.125 360.585938 L 317.886719 360.585938 L 317.886719 366.351562 L 312.125 366.351562 Z M 312.125 360.585938 " fill-opacity="1" fill-rule="nonzero"/><path fill="#00c49c" d="M 300.609375 349.058594 L 306.367188 349.058594 L 306.367188 354.820312 L 300.609375 354.820312 Z M 300.609375 349.058594 " fill-opacity="1" fill-rule="nonzero"/><path fill="#00c49c" d="M 323.644531 354.820312 L 329.40625 354.820312 L 329.40625 360.585938 L 323.644531 360.585938 Z M 323.644531 354.820312 " fill-opacity="1" fill-rule="nonzero"/><path fill="#00c49c" d="M 340.921875 360.585938 L 352.441406 360.585938 L 352.441406 366.351562 L 340.921875 366.351562 Z M 340.921875 360.585938 " fill-opacity="1" fill-rule="nonzero"/><path fill="#179cff" d="M 202.699219 360.585938 L 208.457031 360.585938 L 208.457031 366.351562 L 202.699219 366.351562 Z M 202.699219 360.585938 " fill-opacity="1" fill-rule="nonzero"/><path fill="#179cff" d="M 214.21875 360.585938 L 225.734375 360.585938 L 225.734375 366.351562 L 214.21875 366.351562 Z M 214.21875 360.585938 " fill-opacity="1" fill-rule="nonzero"/><path fill="#179cff" d="M 243.015625 343.292969 L 248.773438 343.292969 L 248.773438 349.058594 L 243.015625 349.058594 Z M 243.015625 343.292969 " fill-opacity="1" fill-rule="nonzero"/><path fill="#179cff" d="M 277.570312 349.058594 L 289.089844 349.058594 L 289.089844 354.820312 L 277.570312 354.820312 Z M 277.570312 349.058594 " fill-opacity="1" fill-rule="nonzero"/><path fill="#179cff" d="M 335.164062 343.292969 L 346.683594 343.292969 L 346.683594 349.058594 L 335.164062 349.058594 Z M 335.164062 343.292969 " fill-opacity="1" fill-rule="nonzero"/><path fill="#179cff" d="M 387 349.058594 L 398.515625 349.058594 L 398.515625 354.820312 L 387 354.820312 Z M 387 349.058594 " fill-opacity="1" fill-rule="nonzero"/><path fill="#179cff" d="M 363.960938 337.527344 L 375.480469 337.527344 L 375.480469 343.292969 L 363.960938 343.292969 Z M 363.960938 337.527344 " fill-opacity="1" fill-rule="nonzero"/><path fill="#179cff" d="M 352.441406 343.292969 L 358.203125 343.292969 L 358.203125 349.058594 L 352.441406 349.058594 Z M 352.441406 343.292969 " fill-opacity="1" fill-rule="nonzero"/><path fill="#179cff" d="M 450.351562 343.292969 L 461.871094 343.292969 L 461.871094 349.058594 L 450.351562 349.058594 Z M 450.351562 343.292969 " fill-opacity="1" fill-rule="nonzero"/><path fill="#179cff" d="M 467.628906 354.820312 L 479.148438 354.820312 L 479.148438 360.585938 L 467.628906 360.585938 Z M 467.628906 354.820312 " fill-opacity="1" fill-rule="nonzero"/><path fill="#179cff" d="M 479.148438 337.527344 L 490.667969 337.527344 L 490.667969 349.058594 L 479.148438 349.058594 Z M 479.148438 337.527344 " fill-opacity="1" fill-rule="nonzero"/><path fill="#179cff" d="M 496.425781 354.820312 L 502.1875 354.820312 L 502.1875 360.585938 L 496.425781 360.585938 Z M 496.425781 354.820312 " fill-opacity="1" fill-rule="nonzero"/><path fill="#179cff" d="M 513.707031 337.527344 L 519.464844 337.527344 L 519.464844 343.292969 L 513.707031 343.292969 Z M 513.707031 337.527344 " fill-opacity="1" fill-rule="nonzero"/><path fill="#179cff" d="M 530.984375 343.292969 L 536.742188 343.292969 L 536.742188 349.058594 L 530.984375 349.058594 Z M 530.984375 343.292969 " fill-opacity="1" fill-rule="nonzero"/><path fill="#179cff" d="M 548.261719 343.292969 L 559.78125 343.292969 L 559.78125 354.820312 L 548.261719 354.820312 Z M 548.261719 343.292969 " fill-opacity="1" fill-rule="nonzero"/><path fill="#179cff" d="M 577.058594 337.527344 L 582.816406 337.527344 L 582.816406 343.292969 L 577.058594 343.292969 Z M 577.058594 337.527344 " fill-opacity="1" fill-rule="nonzero"/><path fill="#179cff" d="M 571.300781 349.058594 L 577.058594 349.058594 L 577.058594 354.820312 L 571.300781 354.820312 Z M 571.300781 349.058594 " fill-opacity="1" fill-rule="nonzero"/><path fill="#179cff" d="M 605.855469 349.058594 L 611.613281 349.058594 L 611.613281 354.820312 L 605.855469 354.820312 Z M 605.855469 349.058594 " fill-opacity="1" fill-rule="nonzero"/><path fill="#179cff" d="M 617.375 343.292969 L 628.894531 343.292969 L 628.894531 354.820312 L 617.375 354.820312 Z M 617.375 343.292969 " fill-opacity="1" fill-rule="nonzero"/><path fill="#179cff" d="M 634.652344 349.058594 L 640.410156 349.058594 L 640.410156 354.820312 L 634.652344 354.820312 Z M 634.652344 349.058594 " fill-opacity="1" fill-rule="nonzero"/><path fill="#179cff" d="M 588.578125 372.117188 L 594.335938 372.117188 L 594.335938 377.882812 L 588.578125 377.882812 Z M 588.578125 372.117188 " fill-opacity="1" fill-rule="nonzero"/><path fill="#179cff" d="M 623.132812 372.117188 L 628.894531 372.117188 L 628.894531 377.882812 L 623.132812 377.882812 Z M 623.132812 372.117188 " fill-opacity="1" fill-rule="nonzero"/><path fill="#179cff" d="M 646.171875 372.117188 L 651.929688 372.117188 L 651.929688 377.882812 L 646.171875 377.882812 Z M 646.171875 372.117188 " fill-opacity="1" fill-rule="nonzero"/><g clip-path="url(#e9f70139ac)"><path fill="#179cff" d="M 663.449219 354.820312 L 674.96875 354.820312 L 674.96875 366.351562 L 663.449219 366.351562 Z M 663.449219 354.820312 " fill-opacity="1" fill-rule="nonzero"/></g><path fill="#179cff" d="M 133.585938 372.117188 L 139.34375 372.117188 L 139.34375 377.882812 L 133.585938 377.882812 Z M 133.585938 372.117188 " fill-opacity="1" fill-rule="nonzero"/><path fill="#179cff" d="M 116.308594 383.644531 L 122.066406 383.644531 L 122.066406 389.410156 L 116.308594 389.410156 Z M 116.308594 383.644531 " fill-opacity="1" fill-rule="nonzero"/><path fill="#179cff" d="M 110.546875 343.292969 L 127.824219 343.292969 L 127.824219 349.058594 L 110.546875 349.058594 Z M 110.546875 343.292969 " fill-opacity="1" fill-rule="nonzero"/><path fill="#179cff" d="M 133.585938 337.527344 L 139.34375 337.527344 L 139.34375 343.292969 L 133.585938 343.292969 Z M 133.585938 337.527344 " fill-opacity="1" fill-rule="nonzero"/><path fill="#179cff" d="M 156.621094 354.820312 L 162.382812 354.820312 L 162.382812 360.585938 L 156.621094 360.585938 Z M 156.621094 354.820312 " fill-opacity="1" fill-rule="nonzero"/><path fill="#179cff" d="M 300.609375 377.882812 L 312.125 377.882812 L 312.125 383.644531 L 300.609375 383.644531 Z M 300.609375 377.882812 " fill-opacity="1" fill-rule="nonzero"/><path fill="#fc85ff" d="M 375.480469 337.527344 L 387 337.527344 L 387 343.292969 L 375.480469 343.292969 Z M 375.480469 337.527344 " fill-opacity="1" fill-rule="nonzero"/><path fill="#fc85ff" d="M 358.203125 349.058594 L 363.960938 349.058594 L 363.960938 354.820312 L 358.203125 354.820312 Z M 358.203125 349.058594 " fill-opacity="1" fill-rule="nonzero"/><g clip-path="url(#76964e9363)"><path fill="#fc85ff" d="M 346.683594 331.761719 L 358.203125 331.761719 L 358.203125 337.527344 L 346.683594 337.527344 Z M 346.683594 331.761719 " fill-opacity="1" fill-rule="nonzero"/></g><path fill="#fc85ff" d="M 323.644531 354.820312 L 335.164062 354.820312 L 335.164062 360.585938 L 323.644531 360.585938 Z M 323.644531 354.820312 " fill-opacity="1" fill-rule="nonzero"/><path fill="#fc85ff" d="M 340.921875 349.058594 L 346.683594 349.058594 L 346.683594 354.820312 L 340.921875 354.820312 Z M 340.921875 349.058594 " fill-opacity="1" fill-rule="nonzero"/><path fill="#fc85ff" d="M 381.238281 354.820312 L 392.757812 354.820312 L 392.757812 360.585938 L 381.238281 360.585938 Z M 381.238281 354.820312 " fill-opacity="1" fill-rule="nonzero"/><path fill="#fc85ff" d="M 415.796875 354.820312 L 427.316406 354.820312 L 427.316406 360.585938 L 415.796875 360.585938 Z M 415.796875 354.820312 " fill-opacity="1" fill-rule="nonzero"/><path fill="#fc85ff" d="M 438.832031 349.058594 L 450.351562 349.058594 L 450.351562 354.820312 L 438.832031 354.820312 Z M 438.832031 349.058594 " fill-opacity="1" fill-rule="nonzero"/><path fill="#fc85ff" d="M 415.796875 343.292969 L 427.316406 343.292969 L 427.316406 349.058594 L 415.796875 349.058594 Z M 415.796875 343.292969 " fill-opacity="1" fill-rule="nonzero"/><path fill="#fc85ff" d="M 467.628906 349.058594 L 479.148438 349.058594 L 479.148438 354.820312 L 467.628906 354.820312 Z M 467.628906 349.058594 " fill-opacity="1" fill-rule="nonzero"/><path fill="#fc85ff" d="M 484.910156 354.820312 L 490.667969 354.820312 L 490.667969 360.585938 L 484.910156 360.585938 Z M 484.910156 354.820312 " fill-opacity="1" fill-rule="nonzero"/><path fill="#fc85ff" d="M 507.945312 366.351562 L 513.707031 366.351562 L 513.707031 372.117188 L 507.945312 372.117188 Z M 507.945312 366.351562 " fill-opacity="1" fill-rule="nonzero"/><path fill="#fc85ff" d="M 519.464844 343.292969 L 530.984375 343.292969 L 530.984375 349.058594 L 519.464844 349.058594 Z M 519.464844 343.292969 " fill-opacity="1" fill-rule="nonzero"/><g clip-path="url(#73de905a79)"><path fill="#fc85ff" d="M 525.222656 331.761719 L 530.984375 331.761719 L 530.984375 337.527344 L 525.222656 337.527344 Z M 525.222656 331.761719 " fill-opacity="1" fill-rule="nonzero"/></g><path fill="#fc85ff" d="M 536.742188 372.117188 L 548.261719 372.117188 L 548.261719 377.882812 L 536.742188 377.882812 Z M 536.742188 372.117188 " fill-opacity="1" fill-rule="nonzero"/><path fill="#fc85ff" d="M 571.300781 354.820312 L 577.058594 354.820312 L 577.058594 360.585938 L 571.300781 360.585938 Z M 571.300781 354.820312 " fill-opacity="1" fill-rule="nonzero"/><path fill="#fc85ff" d="M 283.328125 372.117188 L 300.609375 372.117188 L 300.609375 377.882812 L 283.328125 377.882812 Z M 283.328125 372.117188 " fill-opacity="1" fill-rule="nonzero"/><path fill="#fc85ff" d="M 277.570312 360.585938 L 283.328125 360.585938 L 283.328125 366.351562 L 277.570312 366.351562 Z M 277.570312 360.585938 " fill-opacity="1" fill-rule="nonzero"/><path fill="#fc85ff" d="M 219.976562 354.820312 L 231.496094 354.820312 L 231.496094 360.585938 L 219.976562 360.585938 Z M 219.976562 354.820312 " fill-opacity="1" fill-rule="nonzero"/><path fill="#fc85ff" d="M 237.253906 383.644531 L 243.015625 383.644531 L 243.015625 389.410156 L 237.253906 389.410156 Z M 237.253906 383.644531 " fill-opacity="1" fill-rule="nonzero"/><path fill="#fc85ff" d="M 179.660156 349.058594 L 196.9375 349.058594 L 196.9375 354.820312 L 179.660156 354.820312 Z M 179.660156 349.058594 " fill-opacity="1" fill-rule="nonzero"/><path fill="#fc85ff" d="M 145.105469 360.585938 L 156.621094 360.585938 L 156.621094 366.351562 L 145.105469 366.351562 Z M 145.105469 360.585938 " fill-opacity="1" fill-rule="nonzero"/><path fill="#fc85ff" d="M 145.105469 337.527344 L 156.621094 337.527344 L 156.621094 343.292969 L 145.105469 343.292969 Z M 145.105469 337.527344 " fill-opacity="1" fill-rule="nonzero"/><path fill="#fc85ff" d="M 162.382812 349.058594 L 168.140625 349.058594 L 168.140625 354.820312 L 162.382812 354.820312 Z M 162.382812 349.058594 " fill-opacity="1" fill-rule="nonzero"/><path fill="#fc85ff" d="M 139.34375 377.882812 L 145.105469 377.882812 L 145.105469 383.644531 L 139.34375 383.644531 Z M 139.34375 377.882812 " fill-opacity="1" fill-rule="nonzero"/><path fill="#fc85ff" d="M 122.066406 366.351562 L 127.824219 366.351562 L 127.824219 372.117188 L 122.066406 372.117188 Z M 122.066406 366.351562 " fill-opacity="1" fill-rule="nonzero"/><path fill="#fc85ff" d="M 116.308594 354.820312 L 122.066406 354.820312 L 122.066406 360.585938 L 116.308594 360.585938 Z M 116.308594 354.820312 " fill-opacity="1" fill-rule="nonzero"/><path fill="#fc85ff" d="M 617.375 354.820312 L 628.894531 354.820312 L 628.894531 360.585938 L 617.375 360.585938 Z M 617.375 354.820312 " fill-opacity="1" fill-rule="nonzero"/><path fill="#fc85ff" d="M 646.171875 337.527344 L 651.929688 337.527344 L 651.929688 343.292969 L 646.171875 343.292969 Z M 646.171875 337.527344 " fill-opacity="1" fill-rule="nonzero"/><path fill="#fc85ff" d="M 640.410156 360.585938 L 646.171875 360.585938 L 646.171875 366.351562 L 640.410156 366.351562 Z M 640.410156 360.585938 " fill-opacity="1" fill-rule="nonzero"/><path fill="#fc85ff" d="M 657.691406 349.058594 L 669.207031 349.058594 L 669.207031 354.820312 L 657.691406 354.820312 Z M 657.691406 349.058594 " fill-opacity="1" fill-rule="nonzero"/><path fill="#fc85ff" d="M 657.691406 366.351562 L 669.207031 366.351562 L 669.207031 372.117188 L 657.691406 372.117188 Z M 657.691406 366.351562 " fill-opacity="1" fill-rule="nonzero"/><path fill="#fc85ff" d="M 594.335938 366.351562 L 605.855469 366.351562 L 605.855469 372.117188 L 594.335938 372.117188 Z M 594.335938 366.351562 " fill-opacity="1" fill-rule="nonzero"/><path fill="#fc85ff" d="M 208.457031 372.117188 L 214.21875 372.117188 L 214.21875 377.882812 L 208.457031 377.882812 Z M 208.457031 372.117188 " fill-opacity="1" fill-rule="nonzero"/><path fill="#fc85ff" d="M 254.53125 349.058594 L 266.050781 349.058594 L 266.050781 354.820312 L 254.53125 354.820312 Z M 254.53125 349.058594 " fill-opacity="1" fill-rule="nonzero"/></svg>