<svg width="497" height="76" viewBox="0 0 497 76" fill="none" xmlns="http://www.w3.org/2000/svg">
<mask id="mask0_1_15747" style="mask-type:luminance" maskUnits="userSpaceOnUse" x="0" y="0" width="497" height="76">
<path d="M0 0H497V75.0652H0V0Z" fill="white"/>
</mask>
<g mask="url(#mask0_1_15747)">
<path d="M492.028 15.1486V10.1732H482.091V5.19786H472.15V0.222504H467.178V5.19786H462.21V15.1486H457.241V10.1732H442.328V15.1486H437.36V10.1732H427.419V5.19786H432.391V0.222504H422.451V5.19786H412.51V10.1732H402.569V15.1486H397.601V5.19786H392.629V10.1732H382.691V15.1486H377.719V10.1732H367.779V5.19786H377.719V0.222504H362.81V5.19786H352.87V10.1732H347.901V15.1486H342.929V5.19786H347.901V0.222504H337.96V5.19786H323.051V10.1732H328.02V15.1486H323.051V10.1732H318.079V5.19786H313.111V10.1732H308.142V5.19786H303.17V0.222504H293.229V5.19786H298.201V10.1732H293.229V15.1486H288.261V10.1732H283.292V5.19786H278.32V10.1732H273.352V15.1486H268.38V10.1732H263.411V15.1486H258.439V10.1732H248.502V5.19786H238.561V0.222504H228.62V5.19786H223.652V0.222504H208.739V5.19786H218.68V10.1732H203.771V15.1486H188.861V10.1732H183.889V5.19786H178.921V10.1732H168.98V15.1486H164.012V10.1732H154.071V15.1486H149.102V10.1732H144.13V15.1486H139.162V10.1732H134.19V5.19786H119.281V10.1732H114.312V15.1486H104.371V10.1732H99.4027V15.1486H94.4307V10.1732H74.5529V15.1486H69.5809V10.1732H74.5529V5.19786H64.6123V10.1732H59.6403V5.19786H54.6717V0.222504H44.731V5.19786H24.8498V10.1732H9.94061V5.39674H0V10.1732H4.97199V15.1486H0V74.8428H497V15.1486H492.028Z" fill="#007D2A"/>
</g>
<mask id="mask1_1_15747" style="mask-type:luminance" maskUnits="userSpaceOnUse" x="133" y="0" width="7" height="6">
<path d="M133.731 0H139.772V5.60571H133.731V0Z" fill="white"/>
</mask>
<g mask="url(#mask1_1_15747)">
<path d="M134.19 0.222504H139.162V5.19786H134.19V0.222504Z" fill="#007D2A"/>
</g>
<path d="M94.4307 5.19788H99.4027V10.1732H94.4307V5.19788Z" fill="#007D2A"/>
<path d="M258.439 5.19788H263.411V10.1732H258.439V5.19788Z" fill="#007D2A"/>
<path d="M193.83 5.19788H203.771V10.1732H193.83V5.19788Z" fill="#007D2A"/>
<mask id="mask2_1_15747" style="mask-type:luminance" maskUnits="userSpaceOnUse" x="481" y="0" width="12" height="6">
<path d="M481.494 0H492.712V5.60571H481.494V0Z" fill="white"/>
</mask>
<g mask="url(#mask2_1_15747)">
<path d="M482.091 0.222504H492.028V5.19786H482.091V0.222504Z" fill="#007D2A"/>
</g>
<mask id="mask3_1_15747" style="mask-type:luminance" maskUnits="userSpaceOnUse" x="0" y="49" width="497" height="27">
<path d="M0 49.6154H497V75.0653H0V49.6154Z" fill="white"/>
</mask>
<g mask="url(#mask3_1_15747)">
<path d="M492.028 64.8921V59.9201H487.059V64.8921H482.091V59.9201H477.119V64.8921H472.15V54.9447H457.241V59.9201H467.178V64.8921H447.3V59.9201H442.328V54.9447H437.36V59.9201H427.419V64.8921H417.479V59.9201H407.541V64.8921H402.569V59.9201H392.629V54.9447H387.66V64.8921H382.691V59.9201H377.719V64.8921H372.751V59.9201H367.779V64.8921H362.81V59.9201H357.842V54.9447H352.87V59.9201H337.96V64.8921H328.02V59.9201H318.079V64.8921H313.111V59.9201H303.17V64.8921H293.229V59.9201H288.261V64.8921H283.292V59.9201H278.32V54.9447H273.352V59.9201H268.38V64.8921H263.411V59.9201H248.502V64.8921H243.53V59.9201H238.561V64.8921H218.68V59.9201H223.652V54.9447H208.739V49.9694H203.771V54.9447H198.802V59.9201H213.711V64.8921H188.861V59.9201H183.889V64.8921H173.952V54.9447H168.98V59.9201H164.012V64.8921H149.102V59.9201H144.13V64.8921H129.221V59.9201H119.281V64.8921H114.312V54.9447H109.34V59.9201H99.4027V64.8921H84.4901V59.9201H74.5529V64.8921H64.6123V59.9201H54.6717V54.9447H49.6997V64.8921H34.7904V59.9201H24.8498V64.8921H14.9126V59.9201H4.97199V64.8921H0V74.8428H497V64.8921H492.028Z" fill="#2E1B5B"/>
</g>
<path d="M14.9126 54.9447H19.8812V59.9201H14.9126V54.9447Z" fill="#2E1B5B"/>
<path d="M84.4902 54.9447H89.4622V59.9201H84.4902V54.9447Z" fill="#2E1B5B"/>
<path d="M64.6123 49.9694H69.5809V54.9448H64.6123V49.9694Z" fill="#2E1B5B"/>
<path d="M4.97217 49.9694H9.94079V54.9448H4.97217V49.9694Z" fill="#2E1B5B"/>
<path d="M134.19 49.9694H139.162V54.9448H134.19V49.9694Z" fill="#2E1B5B"/>
<path d="M139.162 54.9447H144.13V59.9201H139.162V54.9447Z" fill="#2E1B5B"/>
<path d="M149.102 54.9447H154.071V59.9201H149.102V54.9447Z" fill="#2E1B5B"/>
<path d="M228.621 54.9447H233.589V59.9201H228.621V54.9447Z" fill="#2E1B5B"/>
<path d="M243.53 54.9447H248.502V59.9201H243.53V54.9447Z" fill="#2E1B5B"/>
<path d="M258.439 49.9694H268.38V54.9448H258.439V49.9694Z" fill="#2E1B5B"/>
<path d="M293.229 54.9447H298.201V59.9201H293.229V54.9447Z" fill="#2E1B5B"/>
<path d="M313.111 54.9447H318.079V59.9201H313.111V54.9447Z" fill="#2E1B5B"/>
<path d="M372.751 54.9447H377.72V59.9201H372.751V54.9447Z" fill="#2E1B5B"/>
<path d="M377.719 49.9694H382.691V54.9448H377.719V49.9694Z" fill="#2E1B5B"/>
<path d="M347.901 49.9694H352.869V54.9448H347.901V49.9694Z" fill="#2E1B5B"/>
<path d="M332.992 49.9694H337.96V54.9448H332.992V49.9694Z" fill="#2E1B5B"/>
<path d="M303.17 49.9694H313.111V54.9448H303.17V49.9694Z" fill="#2E1B5B"/>
<path d="M417.479 54.9447H422.451V59.9201H417.479V54.9447Z" fill="#2E1B5B"/>
<path d="M442.328 49.9694H447.3V54.9448H442.328V49.9694Z" fill="#2E1B5B"/>
<path d="M482.091 54.9447H487.059V59.9201H482.091V54.9447Z" fill="#2E1B5B"/>
<path d="M482.091 44.994H487.059V49.9694H482.091V44.994Z" fill="#2E1B5B"/>
<path d="M114.312 49.9694H119.281V54.9448H114.312V49.9694Z" fill="#2E1B5B"/>
<path d="M99.4023 44.994H104.371V49.9694H99.4023V44.994Z" fill="#2E1B5B"/>
<path d="M24.8496 49.9694H29.8216V54.9448H24.8496V49.9694Z" fill="#2E1B5B"/>
<path d="M44.731 44.994H49.6996V49.9694H44.731V44.994Z" fill="#2E1B5B"/>
<path d="M293.229 44.994H298.201V49.9694H293.229V44.994Z" fill="#2E1B5B"/>
<path d="M213.711 40.022H218.68V44.994H213.711V40.022Z" fill="#2E1B5B"/>
<path d="M183.89 44.994H188.862V49.9694H183.89V44.994Z" fill="#2E1B5B"/>
<path d="M392.629 40.022H397.601V44.994H392.629V40.022Z" fill="#2E1B5B"/>
<path d="M427.419 44.994H432.391V49.9694H427.419V44.994Z" fill="#2E1B5B"/>
<path d="M467.178 44.994H472.15V49.9694H467.178V44.994Z" fill="#2E1B5B"/>
<path d="M367.779 40.022H372.751V44.994H367.779V40.022Z" fill="#00C49C"/>
<path d="M382.691 40.022H387.66V44.994H382.691V40.022Z" fill="#00C49C"/>
<path d="M337.96 44.994H347.901V49.9694H337.96V44.994Z" fill="#00C49C"/>
<path d="M347.901 40.022H352.869V44.994H347.901V40.022Z" fill="#00C49C"/>
<path d="M313.111 25.0959H323.051V35.0467H313.111V25.0959Z" fill="#00C49C"/>
<path d="M328.02 30.0713H332.992V35.0466H328.02V30.0713Z" fill="#00C49C"/>
<path d="M342.929 30.0713H347.901V35.0466H342.929V30.0713Z" fill="#00C49C"/>
<path d="M223.652 25.0959H228.62V30.0713H223.652V25.0959Z" fill="#00C49C"/>
<path d="M228.621 35.0466H238.561V40.022H228.621V35.0466Z" fill="#00C49C"/>
<path d="M238.561 30.0713H243.53V35.0466H238.561V30.0713Z" fill="#00C49C"/>
<path d="M243.53 44.994H248.502V49.9694H243.53V44.994Z" fill="#00C49C"/>
<path d="M253.47 40.022H258.439V44.994H253.47V40.022Z" fill="#00C49C"/>
<path d="M258.439 30.0713H268.38V40.022H258.439V30.0713Z" fill="#00C49C"/>
<path d="M268.379 25.0959H273.351V30.0713H268.379V25.0959Z" fill="#00C49C"/>
<path d="M268.379 40.022H273.351V44.994H268.379V40.022Z" fill="#00C49C"/>
<path d="M283.292 30.0713H288.261V35.0466H283.292V30.0713Z" fill="#00C49C"/>
<path d="M273.352 35.0466H283.292V40.022H273.352V35.0466Z" fill="#00C49C"/>
<path d="M283.292 44.994H288.261V49.9694H283.292V44.994Z" fill="#00C49C"/>
<path d="M293.229 25.0959H288.261V30.0713H298.201V20.1206H293.229V25.0959Z" fill="#00C49C"/>
<path d="M293.229 40.022H298.201V44.994H293.229V40.022Z" fill="#00C49C"/>
<path d="M303.17 30.0713H308.142V35.0466H303.17V30.0713Z" fill="#00C49C"/>
<path d="M352.87 15.1486H362.81V25.096H352.87V15.1486Z" fill="#00C49C"/>
<path d="M362.811 25.0959H367.779V30.0713H362.811V25.0959Z" fill="#00C49C"/>
<path d="M372.751 20.1206H377.72V25.0959H372.751V20.1206Z" fill="#00C49C"/>
<path d="M397.601 20.1206H402.569V25.0959H397.601V20.1206Z" fill="#00C49C"/>
<path d="M387.66 25.0959H392.628V30.0713H387.66V25.0959Z" fill="#00C49C"/>
<path d="M412.51 30.0713H417.479V35.0466H412.51V30.0713Z" fill="#00C49C"/>
<path d="M402.569 35.0466H412.51V40.022H402.569V35.0466Z" fill="#00C49C"/>
<path d="M417.479 15.1486H427.419V20.1206H417.479V15.1486Z" fill="#00C49C"/>
<path d="M427.419 25.0959H432.391V30.0713H427.419V25.0959Z" fill="#00C49C"/>
<path d="M442.328 25.0959H452.269V30.0713H442.328V25.0959Z" fill="#00C49C"/>
<path d="M457.241 25.0959H462.209V30.0713H457.241V25.0959Z" fill="#00C49C"/>
<path d="M437.359 35.0466H442.328V40.022H437.359V35.0466Z" fill="#00C49C"/>
<path d="M442.328 40.022H447.3V44.994H442.328V40.022Z" fill="#00C49C"/>
<path d="M467.178 30.0713H477.119V40.022H467.178V30.0713Z" fill="#00C49C"/>
<path d="M477.119 20.1206H482.091V25.0959H477.119V20.1206Z" fill="#00C49C"/>
<path d="M487.059 35.0466H492.028V40.022H487.059V35.0466Z" fill="#00C49C"/>
<path d="M452.269 44.994H457.241V49.9694H452.269V44.994Z" fill="#00C49C"/>
<path d="M467.178 10.1732H472.15V15.1486H467.178V10.1732Z" fill="#00C49C"/>
<path d="M407.541 44.994H412.51V49.9694H407.541V44.994Z" fill="#00C49C"/>
<path d="M4.97217 20.1206H9.94079V25.0959H4.97217V20.1206Z" fill="#00C49C"/>
<path d="M14.9126 30.0713H19.8812V35.0466H14.9126V30.0713Z" fill="#00C49C"/>
<path d="M24.8496 20.1206H34.7902V30.0713H24.8496V20.1206Z" fill="#00C49C"/>
<path d="M29.8218 40.022H34.7904V44.994H29.8218V40.022Z" fill="#00C49C"/>
<path d="M39.7622 10.1732H49.6994V15.1486H39.7622V10.1732Z" fill="#00C49C"/>
<path d="M34.7905 15.1486H39.7625V20.1206H34.7905V15.1486Z" fill="#00C49C"/>
<path d="M44.731 30.0713H59.6402V35.0466H44.731V30.0713Z" fill="#00C49C"/>
<path d="M54.6719 20.1206H59.6405V25.0959H54.6719V20.1206Z" fill="#00C49C"/>
<path d="M59.6401 35.0466H69.5807V40.022H59.6401V35.0466Z" fill="#00C49C"/>
<path d="M69.5811 40.022H74.553V44.994H69.5811V40.022Z" fill="#00C49C"/>
<path d="M69.5811 30.0713H74.553V35.0466H69.5811V30.0713Z" fill="#00C49C"/>
<path d="M74.5527 20.1206H84.49V30.0713H74.5527V20.1206Z" fill="#00C49C"/>
<path d="M89.4619 20.1206H94.4305V25.0959H89.4619V20.1206Z" fill="#00C49C"/>
<path d="M84.4902 44.994H89.4622V49.9694H84.4902V44.994Z" fill="#00C49C"/>
<path d="M4.97217 40.022H9.94079V44.994H4.97217V40.022Z" fill="#00C49C"/>
<path d="M233.589 15.1486H238.561V20.1206H233.589V15.1486Z" fill="#00C49C"/>
<path d="M203.771 35.0466H213.711V40.022H203.771V35.0466Z" fill="#00C49C"/>
<path d="M193.83 44.994H198.802V49.9694H193.83V44.994Z" fill="#00C49C"/>
<path d="M109.34 30.0713H114.312V35.0466H109.34V30.0713Z" fill="#00C49C"/>
<path d="M119.281 20.1206H124.253V25.0959H119.281V20.1206Z" fill="#00C49C"/>
<path d="M124.252 25.0959H129.221V35.0467H124.252V25.0959Z" fill="#00C49C"/>
<path d="M129.221 35.0466H134.19V40.022H129.221V35.0466Z" fill="#00C49C"/>
<path d="M134.19 20.1206H144.131V30.0713H134.19V20.1206Z" fill="#00C49C"/>
<path d="M144.13 35.0466H149.102V40.022H144.13V35.0466Z" fill="#00C49C"/>
<path d="M154.071 30.0713H159.039V35.0466H154.071V30.0713Z" fill="#00C49C"/>
<path d="M168.98 25.0959H173.952V30.0713H168.98V25.0959Z" fill="#00C49C"/>
<path d="M173.952 30.0713H183.889V35.0466H173.952V30.0713Z" fill="#00C49C"/>
<path d="M183.89 25.0959H188.862V30.0713H183.89V25.0959Z" fill="#00C49C"/>
<path d="M173.952 15.1486H178.921V20.1206H173.952V15.1486Z" fill="#00C49C"/>
<path d="M193.83 20.1206H198.802V25.0959H193.83V20.1206Z" fill="#00C49C"/>
<path d="M208.739 25.0959H218.68V30.0713H208.739V25.0959Z" fill="#00C49C"/>
<path d="M89.4619 25.0959H94.4305V30.0713H89.4619V25.0959Z" fill="#179CFF"/>
<path d="M99.4023 25.0959H109.34V30.0713H99.4023V25.0959Z" fill="#179CFF"/>
<path d="M124.252 10.1732H129.221V15.1486H124.252V10.1732Z" fill="#179CFF"/>
<path d="M154.071 15.1486H164.011V20.1206H154.071V15.1486Z" fill="#179CFF"/>
<path d="M203.771 10.1732H213.711V15.1486H203.771V10.1732Z" fill="#179CFF"/>
<path d="M248.501 15.1486H258.439V20.1206H248.501V15.1486Z" fill="#179CFF"/>
<path d="M228.621 5.19788H238.561V10.1732H228.621V5.19788Z" fill="#179CFF"/>
<path d="M218.68 10.1732H223.652V15.1486H218.68V10.1732Z" fill="#179CFF"/>
<path d="M303.17 10.1732H313.111V15.1486H303.17V10.1732Z" fill="#179CFF"/>
<path d="M318.079 20.1206H328.02V25.0959H318.079V20.1206Z" fill="#179CFF"/>
<path d="M328.02 5.19788H337.961V15.1486H328.02V5.19788Z" fill="#179CFF"/>
<path d="M342.929 20.1206H347.901V25.0959H342.929V20.1206Z" fill="#179CFF"/>
<path d="M357.841 5.19788H362.81V10.1732H357.841V5.19788Z" fill="#179CFF"/>
<path d="M372.751 10.1732H377.72V15.1486H372.751V10.1732Z" fill="#179CFF"/>
<path d="M387.66 10.1732H397.6V20.1206H387.66V10.1732Z" fill="#179CFF"/>
<path d="M412.51 5.19788H417.479V10.1732H412.51V5.19788Z" fill="#179CFF"/>
<path d="M407.541 15.1486H412.51V20.1206H407.541V15.1486Z" fill="#179CFF"/>
<path d="M437.359 15.1486H442.328V20.1206H437.359V15.1486Z" fill="#179CFF"/>
<path d="M447.3 10.1732H457.241V20.1206H447.3V10.1732Z" fill="#179CFF"/>
<path d="M462.21 15.1486H467.179V20.1206H462.21V15.1486Z" fill="#179CFF"/>
<path d="M422.451 35.0466H427.419V40.022H422.451V35.0466Z" fill="#179CFF"/>
<path d="M452.269 35.0466H457.241V40.022H452.269V35.0466Z" fill="#179CFF"/>
<path d="M472.15 35.0466H477.119V40.022H472.15V35.0466Z" fill="#179CFF"/>
<mask id="mask4_1_15747" style="mask-type:luminance" maskUnits="userSpaceOnUse" x="486" y="19" width="11" height="12">
<path d="M486.671 19.4127H497V30.6308H486.671V19.4127Z" fill="white"/>
</mask>
<g mask="url(#mask4_1_15747)">
<path d="M487.059 20.1206H497V30.0713H487.059V20.1206Z" fill="#179CFF"/>
</g>
<path d="M29.8218 35.0466H34.7904V40.022H29.8218V35.0466Z" fill="#179CFF"/>
<path d="M14.9126 44.994H19.8812V49.9694H14.9126V44.994Z" fill="#179CFF"/>
<path d="M9.94043 10.1732H24.8497V15.1486H9.94043V10.1732Z" fill="#179CFF"/>
<path d="M29.8218 5.19788H34.7904V10.1732H29.8218V5.19788Z" fill="#179CFF"/>
<path d="M49.6997 20.1206H54.6717V25.0959H49.6997V20.1206Z" fill="#179CFF"/>
<path d="M173.952 40.022H183.889V44.994H173.952V40.022Z" fill="#179CFF"/>
<path d="M238.561 5.19788H248.502V10.1732H238.561V5.19788Z" fill="#FC85FF"/>
<path d="M223.652 15.1486H228.62V20.1206H223.652V15.1486Z" fill="#FC85FF"/>
<mask id="mask5_1_15747" style="mask-type:luminance" maskUnits="userSpaceOnUse" x="213" y="0" width="12" height="6">
<path d="M213.122 0H224.34V5.60571H213.122V0Z" fill="white"/>
</mask>
<g mask="url(#mask5_1_15747)">
<path d="M213.711 0.222504H223.652V5.19786H213.711V0.222504Z" fill="#FC85FF"/>
</g>
<path d="M193.83 20.1206H203.771V25.0959H193.83V20.1206Z" fill="#FC85FF"/>
<path d="M208.739 15.1486H213.711V20.1206H208.739V15.1486Z" fill="#FC85FF"/>
<path d="M243.53 20.1206H253.47V25.0959H243.53V20.1206Z" fill="#FC85FF"/>
<path d="M273.352 20.1206H283.292V25.0959H273.352V20.1206Z" fill="#FC85FF"/>
<path d="M293.229 15.1486H303.17V20.1206H293.229V15.1486Z" fill="#FC85FF"/>
<path d="M273.352 10.1732H283.292V15.1486H273.352V10.1732Z" fill="#FC85FF"/>
<path d="M318.079 15.1486H328.02V20.1206H318.079V15.1486Z" fill="#FC85FF"/>
<path d="M332.992 20.1206H337.96V25.0959H332.992V20.1206Z" fill="#FC85FF"/>
<path d="M352.87 30.0713H357.842V35.0466H352.87V30.0713Z" fill="#FC85FF"/>
<path d="M362.811 10.1732H372.751V15.1486H362.811V10.1732Z" fill="#FC85FF"/>
<mask id="mask6_1_15747" style="mask-type:luminance" maskUnits="userSpaceOnUse" x="367" y="0" width="6" height="6">
<path d="M367.586 3.05176e-05H372.764V5.60574H367.586V3.05176e-05Z" fill="white"/>
</mask>
<g mask="url(#mask6_1_15747)">
<path d="M367.779 0.222504H372.751V5.19786H367.779V0.222504Z" fill="#FC85FF"/>
</g>
<path d="M377.719 35.0466H387.66V40.022H377.719V35.0466Z" fill="#FC85FF"/>
<path d="M407.541 20.1206H412.51V25.0959H407.541V20.1206Z" fill="#FC85FF"/>
<path d="M159.04 35.0466H173.952V40.022H159.04V35.0466Z" fill="#FC85FF"/>
<path d="M154.071 25.0959H159.039V30.0713H154.071V25.0959Z" fill="#FC85FF"/>
<path d="M104.372 20.1206H114.312V25.0959H104.372V20.1206Z" fill="#FC85FF"/>
<path d="M119.281 44.994H124.253V49.9694H119.281V44.994Z" fill="#FC85FF"/>
<path d="M69.5811 15.1486H84.4903V20.1206H69.5811V15.1486Z" fill="#FC85FF"/>
<path d="M39.7622 25.0959H49.6994V30.0713H39.7622V25.0959Z" fill="#FC85FF"/>
<path d="M39.7622 5.19788H49.6994V10.1732H39.7622V5.19788Z" fill="#FC85FF"/>
<path d="M54.6719 15.1486H59.6405V20.1206H54.6719V15.1486Z" fill="#FC85FF"/>
<path d="M34.7905 40.022H39.7625V44.994H34.7905V40.022Z" fill="#FC85FF"/>
<path d="M19.8813 30.0713H24.85V35.0466H19.8813V30.0713Z" fill="#FC85FF"/>
<path d="M14.9126 20.1206H19.8812V25.0959H14.9126V20.1206Z" fill="#FC85FF"/>
<path d="M447.3 20.1206H457.241V25.0959H447.3V20.1206Z" fill="#FC85FF"/>
<path d="M472.15 5.19788H477.119V10.1732H472.15V5.19788Z" fill="#FC85FF"/>
<path d="M467.178 25.0959H472.15V30.0713H467.178V25.0959Z" fill="#FC85FF"/>
<path d="M482.091 15.1486H492.028V20.1206H482.091V15.1486Z" fill="#FC85FF"/>
<path d="M482.091 30.0713H492.028V35.0466H482.091V30.0713Z" fill="#FC85FF"/>
<path d="M427.419 30.0713H437.36V35.0466H427.419V30.0713Z" fill="#FC85FF"/>
<path d="M94.4307 35.0466H99.4027V40.022H94.4307V35.0466Z" fill="#FC85FF"/>
<path d="M134.19 15.1486H144.131V20.1206H134.19V15.1486Z" fill="#FC85FF"/>
</svg>
