<svg width="664" height="260" viewBox="0 0 664 260" fill="none" xmlns="http://www.w3.org/2000/svg">
<mask id="mask0_2_2" style="mask-type:luminance" maskUnits="userSpaceOnUse" x="0" y="0" width="664" height="260">
<path d="M0 3.05176e-05H663.036V259.67H0V3.05176e-05Z" fill="white"/>
</mask>
<g mask="url(#mask0_2_2)">
<path d="M656.406 251.504V243.661H649.776V235.811H636.516V227.961H629.886V212.261H616.621V196.568H609.991V188.718H603.361V173.019H596.731V165.175H590.101V149.475H583.471V141.625H570.211V133.776H563.581V125.932H556.951V118.082H550.321V110.232H543.691V102.383H517.166V110.232H510.536V118.082H503.906V133.776H497.276V141.625H484.016V149.475H464.126V133.776H450.866V125.932H437.606V118.082H424.341V110.232H411.081V102.383H404.451V86.6892H391.191V70.9896H384.561V55.29H377.931V39.5966H364.671V31.7468H351.411V23.897H344.781V16.0472H338.151V8.19736H331.521V0.35376H304.996V8.19736H298.366V16.0472H291.736V23.897H278.476V39.5966H271.846V47.4402H258.586V63.1398H251.956V78.8394H238.696V94.5328H225.43V102.383H218.8V110.232H212.17V118.082H205.54V125.932H192.28V118.082H185.65V110.232H172.39V118.082H165.76V125.932H159.13V141.625H145.87V149.475H139.24V157.325H125.975V149.475H99.4552V157.325H92.8252V165.175H86.1952V173.019H72.9352V188.718H66.3052V204.418H53.0452V212.261H46.4152V220.111H39.7852V227.961H19.89V235.811H13.26V243.661H6.63V251.504H0V259.354H663.036V251.504H656.406Z" fill="#2E1B5B"/>
<path d="M656.406 251.504V243.661H649.776V235.811H636.516V227.961H629.886V212.261H616.621V196.568H609.991V188.718H603.361V173.019H596.731V165.175H590.101V149.475H583.471V141.625H570.211V133.776H563.581V125.932H556.951V118.082H550.321V110.232H543.691V102.383H517.166V110.232H510.536V118.082H503.906V133.776H497.276V141.625H484.016V149.475H464.126V133.776H450.866V125.932H437.606V118.082H424.341V110.232H411.081V102.383H404.451V86.6892H391.191V70.9896H384.561V55.29H377.931V39.5966H364.671V31.7468H351.411V23.897H344.781V16.0472H338.151V8.19736H331.521V0.35376H304.996V8.19736H298.366V16.0472H291.736V23.897H278.476V39.5966H271.846V47.4402H258.586V63.1398H251.956V78.8394H238.696V94.5328H225.43V102.383H218.8V110.232H212.17V118.082H205.54V125.932H192.28V118.082H185.65V110.232H172.39V118.082H165.76V125.932H159.13V141.625H145.87V149.475H139.24V157.325H125.975V149.475H99.4552V157.325H92.8252V165.175H86.1952V173.019H72.9352V188.718H66.3052V204.418H53.0452V212.261H46.4152V227.961H19.89V235.811H13.26V243.661H6.63V251.504H0V259.354H663.036V251.504H656.406Z" fill="#5881AE"/>
</g>
<mask id="mask1_2_2" style="mask-type:luminance" maskUnits="userSpaceOnUse" x="0" y="172" width="134" height="88">
<path d="M0 172.299H133.024V259.67H0V172.299Z" fill="white"/>
</mask>
<g mask="url(#mask1_2_2)">
<path d="M125.975 243.661H112.715V235.811H106.085V227.961H99.4552V212.261H92.8252V196.568H86.1952V188.718H79.5652V180.868H86.1952V173.018H72.9352V188.718H66.3052V204.418H53.0452V212.261H46.4152V220.111H39.7852V227.961H19.89V235.811H13.26V243.661H6.63V251.504H0V259.354H26.5252V251.504H33.1552V243.661H46.4152V235.811H59.6752V227.961H66.3052V235.811H59.6752V251.504H66.3052V243.661H72.9352V227.961H79.5652V220.111H86.1952V227.961H92.8252V235.811H99.4552V243.661H106.085V259.354H132.61V251.504H125.975V243.661Z" fill="#2C508C"/>
</g>
<path d="M76.9123 259.354H86.1953V251.504H79.5653V243.661H72.9353V259.354H76.9123Z" fill="#2C508C"/>
<path d="M145.87 204.418H152.5V212.261H145.87V204.418Z" fill="#2C508C"/>
<mask id="mask2_2_2" style="mask-type:luminance" maskUnits="userSpaceOnUse" x="124" y="0" width="189" height="260">
<path d="M124.986 3.05176e-05H312.531V259.67H124.986V3.05176e-05Z" fill="white"/>
</mask>
<g mask="url(#mask2_2_2)">
<path d="M304.995 8.19736H298.365V16.0472H291.735V23.897H278.475V39.5966H271.845V47.4402H258.585V63.1398H251.955V78.8394H238.695V94.5328H225.43V102.383H218.8V110.232H212.17V118.082H205.54V125.932H192.28V133.776H185.65V141.625H179.02V149.475H165.76V157.325H159.13V173.019H145.87V165.175H152.5V157.325H159.13V149.475H165.76V133.776H172.39V125.932H179.02V110.232H172.39V118.082H165.76V125.932H159.13V141.625H145.87V149.475H139.24V157.325H125.975V165.175H132.61V173.019H139.24V188.718H145.87V196.568H152.5V204.418H159.13V212.261H165.76V220.111H172.39V227.961H185.65V243.661H192.28V251.504H198.91V259.354H305.927V251.504H298.502V243.661H304.995V235.811H298.365V243.661H291.735V227.961H284.839V220.111H271.845V212.261H265.215V196.568H257.79V188.718H251.955V180.868H245.325V173.019H238.695V188.718H225.43V196.568H218.8V180.868H232.065V173.019H225.43V165.175H232.065V157.325H238.695V149.475H251.955V141.625H245.325V133.776H258.585V125.932H265.215V118.082H258.585V110.232H271.845V102.383H265.215V94.5328H271.845V86.6892H265.215V78.8394H271.845V63.1398H278.475V55.29H291.735V63.1398H298.365V47.4402H291.735V39.5966H298.365V31.7468H311.625V23.897H304.995V16.0472H311.625V0.35376H304.995V8.19736Z" fill="#2C508C"/>
</g>
<path d="M596.731 243.661H583.471V235.811H570.211V227.961H563.581V220.111H550.321V212.261H543.691V204.418H537.061V196.568H530.431V188.718H523.796V180.868H517.166V173.019H503.906V165.175H497.276V157.325H503.906V149.475H510.536V141.626H517.166V125.932H523.796V110.233H530.431V102.383H517.166V110.233H510.536V118.082H503.906V133.776H497.276V141.626H484.016V149.475H464.126V157.325H470.756V165.175H477.386V173.019H484.016V180.868H497.276V188.718H503.906V196.568H510.536V212.261H517.166V204.418H523.796V212.261H530.431V227.961H537.061V235.811H543.691V243.661H550.321V251.504H563.581V259.354H609.86V251.504H596.731V243.661Z" fill="#2C508C"/>
<path d="M437.606 243.661V235.811H430.976V243.661H424.34V235.811H417.71V227.961H411.08V235.811H404.45V227.961H411.08V212.261H404.45V220.111H397.82V212.261H391.19V204.418H384.56V188.718H377.93V196.568H371.301V180.868H364.671V173.019H358.041V165.175H351.411V157.325H344.781V180.868H351.411V188.718H344.781V204.418H351.411V220.111H358.041V227.961H364.671V235.811H358.041V243.661H364.671V251.504H358.041V259.354H444.236V251.504H437.606V243.661Z" fill="#2C508C"/>
<path d="M338.151 149.475H344.781V157.325H338.151V149.475Z" fill="#2C508C"/>
<path d="M298.365 39.5966H304.995V47.4402H298.365V39.5966Z" fill="#2C508C"/>
<path d="M278.475 63.1398H285.105V70.9896H278.475V63.1398Z" fill="#2C508C"/>
<path d="M271.846 78.8395H278.476V86.6893H271.846V78.8395Z" fill="#2C508C"/>
<path d="M285.105 70.9896H291.735V78.8394H285.105V70.9896Z" fill="#2C508C"/>
<path d="M271.846 94.5328H278.476V102.383H271.846V94.5328Z" fill="#2C508C"/>
<path d="M265.216 125.932H271.846V133.776H265.216V125.932Z" fill="#2C508C"/>
<path d="M258.585 133.776H265.215V141.626H258.585V133.776Z" fill="#2C508C"/>
<path d="M238.696 157.325H245.326V165.175H238.696V157.325Z" fill="#2C508C"/>
<path d="M251.956 149.475H258.586V157.325H251.956V149.475Z" fill="#2C508C"/>
<path d="M232.065 165.175H238.695V173.019H232.065V165.175Z" fill="#2C508C"/>
<path d="M265.216 188.718H271.846V196.568H265.216V188.718Z" fill="#2C508C"/>
<path d="M258.585 180.868H265.215V188.718H258.585V180.868Z" fill="#2C508C"/>
<path d="M271.846 204.418H278.476V212.261H271.846V204.418Z" fill="#2C508C"/>
<path d="M278.475 196.568H285.105V204.418H278.475V196.568Z" fill="#2C508C"/>
<path d="M285.105 212.261H291.735V220.111H285.105V212.261Z" fill="#2C508C"/>
<path d="M338.151 180.868H344.781V188.718H338.151V180.868Z" fill="#2C508C"/>
<path d="M351.411 149.475H358.041V157.325H351.411V149.475Z" fill="#2C508C"/>
<path d="M371.301 173.018H377.931V180.868H371.301V173.018Z" fill="#2C508C"/>
<path d="M391.191 196.568H397.821V204.418H391.191V196.568Z" fill="#2C508C"/>
<path d="M397.821 204.418H404.451V212.261H397.821V204.418Z" fill="#2C508C"/>
<path d="M424.341 227.961H430.976V235.811H424.341V227.961Z" fill="#2C508C"/>
<path d="M444.236 243.661H450.866V251.504H444.236V243.661Z" fill="#2C508C"/>
<path d="M450.866 251.504H457.098V259.354H450.866V251.504Z" fill="#2C508C"/>
<path d="M338.151 204.418H344.781V212.261H338.151V204.418Z" fill="#2C508C"/>
<path d="M344.781 220.111H351.411V227.961H344.781V220.111Z" fill="#2C508C"/>
<path d="M351.411 227.961H358.041V235.811H351.411V227.961Z" fill="#2C508C"/>
<path d="M344.781 243.661H351.411V251.504H344.781V243.661Z" fill="#2C508C"/>
<path d="M86.1953 180.868H92.8253V188.718H86.1953V180.868Z" fill="#2C508C"/>
<path d="M99.4551 204.418H106.085V212.261H99.4551V204.418Z" fill="#2C508C"/>
<path d="M92.8252 188.718H99.4552V196.568H92.8252V188.718Z" fill="#2C508C"/>
<path d="M106.085 220.111H112.715V227.961H106.085V220.111Z" fill="#2C508C"/>
<path d="M106.085 196.568H112.715V204.418H106.085V196.568Z" fill="#2C508C"/>
<path d="M112.715 227.961H119.345V235.811H112.715V227.961Z" fill="#2C508C"/>
<path d="M125.975 235.811H132.61V243.661H125.975V235.811Z" fill="#2C508C"/>
<path d="M132.61 243.661H139.24V251.504H132.61V243.661Z" fill="#2C508C"/>
<path d="M46.415 243.661H53.045V251.504H46.415V243.661Z" fill="#2C508C"/>
<path d="M33.1553 251.504H39.7853V259.354H33.1553V251.504Z" fill="#2C508C"/>
<path d="M79.5652 235.811H86.1952V243.661H79.5652V235.811Z" fill="#2C508C"/>
<path d="M92.8252 243.661H99.4552V251.504H92.8252V243.661Z" fill="#2C508C"/>
<path d="M139.24 196.568H145.87V204.418H139.24V196.568Z" fill="#2C508C"/>
<path d="M159.13 220.111H165.76V227.961H159.13V220.111Z" fill="#2C508C"/>
<path d="M152.5 227.961H159.13V235.811H152.5V227.961Z" fill="#2C508C"/>
<path d="M165.76 227.961H172.39V235.811H165.76V227.961Z" fill="#2C508C"/>
<path d="M172.39 235.811H179.02V243.661H172.39V235.811Z" fill="#2C508C"/>
<path d="M185.65 251.504H192.28V259.354H185.65V251.504Z" fill="#2C508C"/>
<path d="M172.39 133.776H179.02V141.626H172.39V133.776Z" fill="#2C508C"/>
<path d="M457.496 141.625H464.126V149.475H457.496V141.625Z" fill="#2C508C"/>
<path d="M464.126 165.175H470.756V173.019H464.126V165.175Z" fill="#2C508C"/>
<path d="M470.756 173.018H477.386V180.868H470.756V173.018Z" fill="#2C508C"/>
<path d="M490.646 188.718H497.276V196.568H490.646V188.718Z" fill="#2C508C"/>
<path d="M497.276 196.568H503.906V204.418H497.276V196.568Z" fill="#2C508C"/>
<path d="M517.166 212.261H523.796V220.111H517.166V212.261Z" fill="#2C508C"/>
<path d="M523.796 227.961H530.431V235.811H523.796V227.961Z" fill="#2C508C"/>
<path d="M530.431 235.811H537.061V243.661H530.431V235.811Z" fill="#2C508C"/>
<path d="M543.691 251.504H550.321V259.354H543.691V251.504Z" fill="#2C508C"/>
<path d="M503.906 212.261H510.536V220.111H503.906V212.261Z" fill="#2C508C"/>
<path d="M510.536 227.961H517.166V235.811H510.536V227.961Z" fill="#2C508C"/>
<path d="M503.906 157.325H510.536V165.175H503.906V157.325Z" fill="#2C508C"/>
<path d="M517.166 141.625H523.796V149.475H517.166V141.625Z" fill="#2C508C"/>
<path d="M517.166 165.175H523.796V173.019H517.166V165.175Z" fill="#2C508C"/>
<path d="M523.796 125.932H530.431V133.776H523.796V125.932Z" fill="#2C508C"/>
<path d="M510.536 149.475H517.166V157.325H510.536V149.475Z" fill="#2C508C"/>
<path d="M523.796 173.018H530.431V180.868H523.796V173.018Z" fill="#2C508C"/>
<path d="M537.061 180.868H543.691V188.718H537.061V180.868Z" fill="#2C508C"/>
<path d="M543.691 196.568H550.321V204.418H543.691V196.568Z" fill="#2C508C"/>
<path d="M563.581 212.261H570.211V220.111H563.581V212.261Z" fill="#2C508C"/>
<path d="M570.211 220.111H576.841V227.961H570.211V220.111Z" fill="#2C508C"/>
<path d="M583.471 227.961H590.101V235.811H583.471V227.961Z" fill="#2C508C"/>
<path d="M596.731 235.811H603.361V243.661H596.731V235.811Z" fill="#2C508C"/>
<path d="M609.991 243.661H616.621V251.504H609.991V243.661Z" fill="#2C508C"/>
<path d="M417.711 212.261H424.341V204.418H430.976V196.568H417.711V212.261Z" fill="#7CAAC9"/>
<path d="M424.341 212.261H430.976V220.111H424.341V212.261Z" fill="#7CAAC9"/>
<path d="M437.606 220.111H444.236V227.961H437.606V220.111Z" fill="#7CAAC9"/>
<mask id="mask3_2_2" style="mask-type:luminance" maskUnits="userSpaceOnUse" x="291" y="0" width="181" height="198">
<path d="M291.097 3.05176e-05H471.944V197.716H291.097V3.05176e-05Z" fill="white"/>
</mask>
<g mask="url(#mask3_2_2)">
<path d="M470.756 180.868H464.126V173.019H457.496V141.625H450.866V125.932H437.606V118.082H424.34V110.232H411.081V102.383H404.451V86.6892H391.191V70.9896H384.561V55.29H377.931V39.5966H364.671V31.7468H351.411V23.897H344.781V16.0472H338.151V8.19736H331.521V0.35376H318.255V8.19736H311.625V16.0472H318.255V31.7468H311.625V39.5966H304.995V70.9896H298.365V86.6892H291.735V94.5328H298.365V110.232H291.735V118.082H298.365V125.932H311.625V133.776H318.255V141.625H324.885V133.776H331.521V141.625H338.151V133.776H344.781V141.625H364.671V149.475H371.301V165.175H384.561V180.868H397.821V188.718H404.451V196.568H417.711V188.718H424.34V173.019H411.081V165.175H404.451V157.325H397.821V149.475H411.081V157.325H417.711V149.475H424.34V157.325H437.606V165.175H450.866V173.019H444.236V180.868H457.496V196.568H464.126V188.718H470.756V180.868ZM304.995 102.383H311.625V110.232H304.995V102.383Z" fill="#7CAAC9"/>
</g>
<path d="M477.386 196.568H484.016V204.418H477.386V196.568Z" fill="#7CAAC9"/>
<path d="M470.756 212.261H484.016V220.111H470.756V212.261Z" fill="#7CAAC9"/>
<path d="M484.016 220.111H490.646V227.961H484.016V220.111Z" fill="#7CAAC9"/>
<path d="M304.996 133.776H311.626V141.626H304.996V133.776Z" fill="#7CAAC9"/>
<path d="M311.625 141.625H318.255V149.475H311.625V141.625Z" fill="#7CAAC9"/>
<path d="M291.735 133.776H285.105V141.626H291.735V149.475H298.365V125.932H291.735V133.776Z" fill="#7CAAC9"/>
<path d="M338.151 141.625H344.781V149.475H338.151V141.625Z" fill="#7CAAC9"/>
<path d="M358.041 149.475H364.671V157.325H358.041V149.475Z" fill="#7CAAC9"/>
<path d="M530.431 118.082H537.061V125.932H530.431V118.082Z" fill="#7CAAC9"/>
<path d="M530.431 133.776H537.061V141.626H530.431V133.776Z" fill="#7CAAC9"/>
<path d="M550.321 204.418H556.951V212.261H550.321V204.418Z" fill="#7CAAC9"/>
<path d="M643.146 235.811H636.516V227.961H629.886V212.261H616.621V196.568H609.991V188.718H603.361V173.019H596.731V165.175H590.101V149.475H583.471V141.626H570.211V133.776H563.581V125.932H556.951V118.082H550.321V110.233H543.691V102.383H530.431V110.233H537.061V118.082H543.691V125.932H537.061V133.776H543.691V141.626H537.061V149.475H530.431V157.325H523.796V165.175H537.061V173.019H550.321V180.868H556.951V188.718H550.321V196.568H556.951V204.418H563.581V212.261H570.211V204.418H576.841V212.261H583.471V220.111H596.731V227.961H609.991V235.811H616.621V243.661H623.251V235.811H629.886V243.661H636.516V251.504H643.146V243.661H649.776V235.811H643.146ZM590.101 180.868H596.731V188.718H590.101V180.868Z" fill="#7CAAC9"/>
<path d="M278.475 141.625H285.105V149.475H278.475V141.625Z" fill="#7CAAC9"/>
<path d="M298.365 149.475H304.995V157.325H298.365V149.475Z" fill="#7CAAC9"/>
<path d="M324.885 149.475H331.521V157.325H324.885V149.475Z" fill="#7CAAC9"/>
<path d="M99.4551 173.018H106.085V180.868H99.4551V173.018Z" fill="#7CAAC9"/>
<path d="M139.24 173.019H132.61V165.175H125.975V149.475H106.085V157.325H112.715V165.175H106.085V173.019H112.715V180.868H106.085V188.718H119.345V196.568H125.975V204.418H119.345V212.261H125.975V220.111H132.61V212.261H139.24V196.568H145.87V188.718H139.24V173.019Z" fill="#7CAAC9"/>
<path d="M139.24 212.261H145.87V220.111H139.24V212.261Z" fill="#7CAAC9"/>
<path d="M285.105 157.325H291.735V165.175H285.105V157.325Z" fill="#7CAAC9"/>
<path d="M304.996 173.018H311.626V180.868H304.996V173.018Z" fill="#7CAAC9"/>
<path d="M311.625 157.325H318.255V165.175H311.625V157.325Z" fill="#7CAAC9"/>
<path d="M278.475 173.018H285.105V180.868H278.475V173.018Z" fill="#7CAAC9"/>
<path d="M344.781 23.897H351.411V31.7468H344.781V23.897Z" fill="#ACE7E8"/>
<path d="M318.256 31.7468H324.886V39.5966H318.256V31.7468Z" fill="#ACE7E8"/>
<mask id="mask4_2_2" style="mask-type:luminance" maskUnits="userSpaceOnUse" x="317" y="0" width="30" height="41">
<path d="M317.889 3.05176e-05H346.021V40.4467H317.889V3.05176e-05Z" fill="white"/>
</mask>
<g mask="url(#mask4_2_2)">
<path d="M331.521 39.5966H338.151V23.897H344.781V16.0472H338.151V8.19736H331.521V0.35376H318.256V16.0472H324.886V31.7468H331.521V39.5966Z" fill="#ACE7E8"/>
</g>
<path d="M358.041 39.5966V47.4402H364.671V63.1398H371.301V55.29H377.931V47.4402H371.301V39.5966H364.671V31.7468H351.411V39.5966H358.041Z" fill="#ACE7E8"/>
<path d="M344.781 70.9896H351.411V78.8394H344.781V70.9896Z" fill="#ACE7E8"/>
<path d="M324.885 39.5966H331.521V47.4402H324.885V39.5966Z" fill="#ACE7E8"/>
<path d="M318.256 47.4402H324.886V55.29H318.256V47.4402Z" fill="#ACE7E8"/>
<path d="M311.625 55.29H318.255V63.1398H311.625V55.29Z" fill="#ACE7E8"/>
<path d="M324.885 70.9896H331.521V78.8394H324.885V70.9896Z" fill="#ACE7E8"/>
<path d="M318.256 78.8395H324.886V86.6893H318.256V78.8395Z" fill="#ACE7E8"/>
<path d="M331.521 78.8395H338.151V86.6893H331.521V78.8395Z" fill="#ACE7E8"/>
<path d="M338.151 86.6892H344.781V94.5328H338.151V86.6892Z" fill="#ACE7E8"/>
<path d="M537.061 102.383H543.691V110.233H537.061V102.383Z" fill="#ACE7E8"/>
<path d="M556.951 125.932V118.082H550.321V110.232H543.691V125.932H550.321V133.776H556.951V125.932Z" fill="#ACE7E8"/>
<path d="M550.321 141.625H556.951V149.475H550.321V141.625Z" fill="#ACE7E8"/>
<path d="M583.471 149.475H576.841V141.626H570.211V133.776H556.951V141.626H563.581V149.475H570.211V157.325H576.841V165.175H583.471V157.325H590.101V149.475H583.471Z" fill="#ACE7E8"/>
<path d="M563.581 157.325H570.211V165.175H563.581V157.325Z" fill="#ACE7E8"/>
<path d="M543.691 149.475H550.321V157.325H543.691V149.475Z" fill="#ACE7E8"/>
<path d="M556.951 149.475H563.581V157.325H556.951V149.475Z" fill="#ACE7E8"/>
<path d="M543.691 133.776H550.321V141.626H543.691V133.776Z" fill="#ACE7E8"/>
<path d="M364.671 70.9896V78.8394H371.301V86.6892H377.931V78.8394H384.561V70.9896H377.931V63.1398H371.301V70.9896H364.671Z" fill="#ACE7E8"/>
<path d="M384.561 78.8395H391.191V86.6893H384.561V78.8395Z" fill="#ACE7E8"/>
<path d="M377.931 86.6892H384.561V94.5328H377.931V86.6892Z" fill="#ACE7E8"/>
<path d="M397.821 94.5328V102.383H404.451V86.6892H391.191V94.5328H397.821Z" fill="#ACE7E8"/>
<path d="M384.561 94.5328H391.191V102.383H384.561V94.5328Z" fill="#ACE7E8"/>
<path d="M351.411 63.1398V55.29H358.041V47.4402H351.411V39.5966H338.151V47.4402H331.521V55.29H324.885V63.1398H331.521V70.9896H344.781V63.1398H351.411Z" fill="#ACE7E8"/>
<path d="M125.975 157.325V149.475H112.715V165.175H119.345V157.325H125.975Z" fill="#ACE7E8"/>
<path d="M125.975 165.175H119.345V173.019H112.715V180.868H125.975V165.175Z" fill="#ACE7E8"/>
<path d="M125.975 180.868H132.61V188.718H125.975V180.868Z" fill="#ACE7E8"/>
<path d="M132.61 173.018H139.24V180.868H132.61V173.018Z" fill="#ACE7E8"/>
<path d="M132.61 188.718H139.24V196.568H132.61V188.718Z" fill="#ACE7E8"/>
<path d="M179.02 110.232H185.65V118.082H179.02V110.232Z" fill="#ACE7E8"/>
<path d="M185.65 118.082H192.28V125.932H185.65V118.082Z" fill="#ACE7E8"/>
<path d="M179.02 125.932H185.65V133.776H179.02V125.932Z" fill="#ACE7E8"/>
<path d="M371.301 125.932H377.931V133.776H371.301V125.932Z" fill="#ACE7E8"/>
<path d="M364.671 133.776H371.301V141.626H364.671V133.776Z" fill="#ACE7E8"/>
<path d="M377.931 141.626V149.475H384.561V141.626H391.191V133.776H377.931V141.626Z" fill="#ACE7E8"/>
<path d="M384.561 149.475H391.191V157.325H384.561V149.475Z" fill="#ACE7E8"/>
<path d="M371.301 110.232H364.671V118.082H358.041V125.932H371.301V110.232Z" fill="#ACE7E8"/>
<path d="M358.041 102.383H364.671V110.233H358.041V102.383Z" fill="#ACE7E8"/>
<path d="M364.671 94.5328H371.301V102.383H364.671V94.5328Z" fill="#ACE7E8"/>
<path d="M351.411 86.6892H358.041V94.5328H351.411V86.6892Z" fill="#ACE7E8"/>
<path d="M391.191 110.232H397.821V118.082H391.191V110.232Z" fill="#ACE7E8"/>
<path d="M397.821 118.082H404.451V125.932H397.821V118.082Z" fill="#ACE7E8"/>
<path d="M404.451 125.932H411.081V133.776H404.451V125.932Z" fill="#ACE7E8"/>
<path d="M411.081 118.082H417.711V125.932H411.081V118.082Z" fill="#ACE7E8"/>
<path d="M417.711 133.776H424.341V141.626H417.711V133.776Z" fill="#ACE7E8"/>
<path d="M417.711 251.504H424.341V259.354H417.711V251.504Z" fill="#2E1B5B"/>
<path d="M404.451 243.661H397.821V251.504H391.191V243.661H397.821V235.811H391.191V227.961H377.931V235.811H384.561V243.661H377.931V235.811H371.301V251.504H377.931V259.354H411.081V251.504H404.451V243.661Z" fill="#2E1B5B"/>
<path d="M411.081 243.661H417.711V251.504H411.081V243.661Z" fill="#2E1B5B"/>
<path d="M371.301 220.111H377.931V227.961H371.301V220.111Z" fill="#2E1B5B"/>
<path d="M377.931 212.261H384.561V220.111H377.931V212.261Z" fill="#2E1B5B"/>
<path d="M490.646 165.175H497.276V173.019H490.646V165.175Z" fill="#2E1B5B"/>
<path d="M497.276 173.018H503.906V180.868H497.276V173.018Z" fill="#2E1B5B"/>
<path d="M503.906 180.868H510.536V188.718H503.906V180.868Z" fill="#2E1B5B"/>
<path d="M470.756 149.475V157.325H477.386V165.175H490.646V149.475H470.756Z" fill="#2E1B5B"/>
<path d="M490.646 141.625H497.276V149.475H490.646V141.625Z" fill="#2E1B5B"/>
<path d="M590.101 251.504H596.731V259.354H590.101V251.504Z" fill="#2E1B5B"/>
<path d="M576.841 243.661H563.581V251.504H570.211V259.354H583.471V251.504H576.841V243.661Z" fill="#2E1B5B"/>
<path d="M556.951 235.811V227.961H550.321V243.661H563.581V235.811H556.951Z" fill="#2E1B5B"/>
<path d="M185.65 188.718V196.568H172.39V204.418H165.76V196.568H159.13V180.868H152.5V188.718H145.87V196.568H152.5V204.418H159.13V212.261H165.76V220.111H172.39V227.961H185.65V243.661H192.28V251.504H198.91V259.354H285.105V251.504H265.216V243.661H258.586V235.811H245.326V243.661H238.696V235.811H232.066V243.661H225.43V251.504H212.17V243.661H225.43V235.811H232.066V227.961H218.8V235.811H212.17V227.961H198.91V235.811H192.28V227.961H198.91V220.111H192.28V212.261H185.65V204.418H198.91V212.261H205.54V196.568H212.17V188.718H205.54V180.868H218.8V173.019H212.17V165.175H198.91V173.019H192.28V180.868H179.02V188.718H185.65Z" fill="#2E1B5B"/>
<path d="M238.696 227.961H245.326V235.811H238.696V227.961Z" fill="#2E1B5B"/>
<path d="M265.216 235.811H271.846V243.661H265.216V235.811Z" fill="#2E1B5B"/>
<path d="M245.325 220.111H258.585V227.961H245.325V220.111Z" fill="#2E1B5B"/>
<path d="M238.696 212.261H245.326V220.111H238.696V212.261Z" fill="#2E1B5B"/>
<path d="M245.325 204.418H251.955V212.261H245.325V204.418Z" fill="#2E1B5B"/>
<path d="M225.43 212.261H232.065V220.111H225.43V212.261Z" fill="#2E1B5B"/>
<path d="M212.17 220.111H218.8V227.961H212.17V220.111Z" fill="#2E1B5B"/>
<path d="M165.76 188.718H172.39V196.568H165.76V188.718Z" fill="#2E1B5B"/>
<path d="M232.065 204.418H238.695V212.261H232.065V204.418Z" fill="#2E1B5B"/>
<path d="M165.76 173.018H179.02V180.868H165.76V173.018Z" fill="#2E1B5B"/>
<path d="M172.39 157.325V165.175H179.02V173.019H185.65V157.325H172.39Z" fill="#2E1B5B"/>
<path d="M145.87 157.325H152.5V165.175H145.87V157.325Z" fill="#2E1B5B"/>
<path d="M145.87 165.175H139.24V188.718H145.87V165.175Z" fill="#2E1B5B"/>
<path d="M212.17 157.325H218.8V165.175H212.17V157.325Z" fill="#2E1B5B"/>
<path d="M225.43 157.325H232.065V165.175H225.43V157.325Z" fill="#2E1B5B"/>
<path d="M218.801 141.625H225.431V149.475H218.801V141.625Z" fill="#2E1B5B"/>
<mask id="mask5_2_2" style="mask-type:luminance" maskUnits="userSpaceOnUse" x="304" y="0" width="9" height="9">
<path d="M304.493 3.05176e-05H312.531V8.67515H304.493V3.05176e-05Z" fill="white"/>
</mask>
<g mask="url(#mask5_2_2)">
<path d="M304.996 0.35376H311.626V8.19736H304.996V0.35376Z" fill="#2E1B5B"/>
</g>
<path d="M298.365 8.19736H304.995V16.0472H298.365V8.19736Z" fill="#2E1B5B"/>
<path d="M291.735 16.0472H298.365V23.897H291.735V16.0472Z" fill="#2E1B5B"/>
<path d="M278.475 23.897V39.5966H285.105V31.7468H291.735V23.897H278.475Z" fill="#2E1B5B"/>
<path d="M271.846 39.5966H278.476V47.4402H271.846V39.5966Z" fill="#2E1B5B"/>
<path d="M258.585 55.29V63.1398H265.215V55.29H271.845V47.4402H258.585V55.29Z" fill="#2E1B5B"/>
<path d="M251.956 63.1398H258.586V78.8394H251.956V63.1398Z" fill="#2E1B5B"/>
<path d="M238.696 78.8395V94.5329H245.326V86.6893H251.956V78.8395H238.696Z" fill="#2E1B5B"/>
<path d="M225.43 94.5328H238.695V102.383H225.43V94.5328Z" fill="#2E1B5B"/>
<path d="M218.801 102.383H225.431V110.233H218.801V102.383Z" fill="#2E1B5B"/>
<path d="M212.17 110.232H218.8V118.082H212.17V110.232Z" fill="#2E1B5B"/>
<path d="M205.541 118.082H212.171V125.932H205.541V118.082Z" fill="#2E1B5B"/>
<path d="M192.28 133.776V141.626H198.91V133.776H205.54V125.932H192.28V133.776Z" fill="#2E1B5B"/>
<path d="M185.65 149.475V157.325H192.28V141.625H185.65V149.475Z" fill="#2E1B5B"/>
<path d="M172.39 110.232H179.02V118.082H172.39V110.232Z" fill="#2E1B5B"/>
<path d="M165.76 118.082H172.39V125.932H165.76V118.082Z" fill="#2E1B5B"/>
<path d="M159.13 125.932H165.76V141.626H159.13V125.932Z" fill="#2E1B5B"/>
<path d="M145.87 141.625H159.13V149.475H145.87V141.625Z" fill="#2E1B5B"/>
<path d="M139.24 149.475H145.87V157.325H139.24V149.475Z" fill="#2E1B5B"/>
<path d="M125.975 157.325H139.24V165.175H125.975V157.325Z" fill="#2E1B5B"/>
<path d="M99.4551 149.475H106.085V157.325H99.4551V149.475Z" fill="#2E1B5B"/>
<path d="M92.8252 157.325H99.4552V165.175H92.8252V157.325Z" fill="#2E1B5B"/>
<path d="M86.1953 165.175H92.8253V173.019H86.1953V165.175Z" fill="#2E1B5B"/>
<path d="M72.9353 180.868V188.718H79.5653V180.868H86.1953V173.018H72.9353V180.868Z" fill="#2E1B5B"/>
<path d="M66.3052 188.718H72.9352V204.418H66.3052V188.718Z" fill="#2E1B5B"/>
<path d="M53.0452 204.418H66.3052V212.261H53.0452V204.418Z" fill="#2E1B5B"/>
<path d="M46.415 212.261H53.045V220.111H46.415V212.261Z" fill="#2E1B5B"/>
<path d="M39.7852 220.111H46.4152V227.961H39.7852V220.111Z" fill="#2E1B5B"/>
<path d="M19.8901 227.961H39.7854V235.811H19.8901V227.961Z" fill="#2E1B5B"/>
<path d="M13.26 235.811H19.89V243.661H13.26V235.811Z" fill="#2E1B5B"/>
<path d="M6.63013 243.661H13.2601V251.504H6.63013V243.661Z" fill="#2E1B5B"/>
<mask id="mask6_2_2" style="mask-type:luminance" maskUnits="userSpaceOnUse" x="0" y="250" width="8" height="10">
<path d="M0 250.139H7.10095V259.671H0V250.139Z" fill="white"/>
</mask>
<g mask="url(#mask6_2_2)">
<path d="M0 251.504H6.63V259.354H0V251.504Z" fill="#2E1B5B"/>
</g>
<path d="M497.276 133.776H503.906V141.626H497.276V133.776Z" fill="#2E1B5B"/>
<path d="M503.906 118.082H510.536V133.776H503.906V118.082Z" fill="#2E1B5B"/>
<path d="M510.536 110.232H517.166V118.082H510.536V110.232Z" fill="#2E1B5B"/>
<path d="M517.166 102.383H523.796V110.233H517.166V102.383Z" fill="#2E1B5B"/>
</svg>
