<svg xmlns="http://www.w3.org/2000/svg" xmlns:xlink="http://www.w3.org/1999/xlink" width="1000" zoomAndPan="magnify" viewBox="0 0 750 757.92" height="1000" preserveAspectRatio="xMidYMid meet" version="1.0"><defs><clipPath id="c6e63ec742"><path d="M 127.699219 242.539062 L 622.648438 242.539062 L 622.648438 406 L 127.699219 406 Z M 127.699219 242.539062 " clip-rule="nonzero"/></clipPath><clipPath id="2590ed69e7"><path d="M 127.699219 351 L 227 351 L 227 406 L 127.699219 406 Z M 127.699219 351 " clip-rule="nonzero"/></clipPath><clipPath id="06a5f24a2a"><path d="M 221 242.539062 L 361 242.539062 L 361 406 L 221 406 Z M 221 242.539062 " clip-rule="nonzero"/></clipPath><clipPath id="4f8a22fc8d"><path d="M 345 242.539062 L 480 242.539062 L 480 367 L 345 367 Z M 345 242.539062 " clip-rule="nonzero"/></clipPath><clipPath id="442e66c5d8"><path d="M 365 242.539062 L 386 242.539062 L 386 268 L 365 268 Z M 365 242.539062 " clip-rule="nonzero"/></clipPath><clipPath id="6c1445f267"><path d="M 355 242.539062 L 361 242.539062 L 361 248 L 355 248 Z M 355 242.539062 " clip-rule="nonzero"/></clipPath><clipPath id="8742fa6e4b"><path d="M 127.699219 400 L 133 400 L 133 406 L 127.699219 406 Z M 127.699219 400 " clip-rule="nonzero"/></clipPath></defs><g clip-path="url(#c6e63ec742)"><path fill="#2e1b5b" d="M 617.699219 400.859375 L 617.699219 395.921875 L 612.75 395.921875 L 612.75 390.980469 L 602.851562 390.980469 L 602.851562 386.039062 L 597.902344 386.039062 L 597.902344 376.15625 L 588 376.15625 L 588 366.277344 L 583.050781 366.277344 L 583.050781 361.335938 L 578.101562 361.335938 L 578.101562 351.453125 L 573.152344 351.453125 L 573.152344 346.515625 L 568.203125 346.515625 L 568.203125 336.632812 L 563.253906 336.632812 L 563.253906 331.691406 L 553.355469 331.691406 L 553.355469 326.75 L 548.40625 326.75 L 548.40625 321.8125 L 543.457031 321.8125 L 543.457031 316.871094 L 538.507812 316.871094 L 538.507812 311.929688 L 533.558594 311.929688 L 533.558594 306.988281 L 513.757812 306.988281 L 513.757812 311.929688 L 508.808594 311.929688 L 508.808594 316.871094 L 503.859375 316.871094 L 503.859375 326.75 L 498.910156 326.75 L 498.910156 331.691406 L 489.011719 331.691406 L 489.011719 336.632812 L 474.164062 336.632812 L 474.164062 326.75 L 464.265625 326.75 L 464.265625 321.8125 L 454.367188 321.8125 L 454.367188 316.871094 L 444.464844 316.871094 L 444.464844 311.929688 L 434.566406 311.929688 L 434.566406 306.988281 L 429.617188 306.988281 L 429.617188 297.109375 L 419.71875 297.109375 L 419.71875 287.226562 L 414.769531 287.226562 L 414.769531 277.34375 L 409.820312 277.34375 L 409.820312 267.464844 L 399.921875 267.464844 L 399.921875 262.523438 L 390.023438 262.523438 L 390.023438 257.582031 L 385.074219 257.582031 L 385.074219 252.640625 L 380.125 252.640625 L 380.125 247.699219 L 375.175781 247.699219 L 375.175781 242.761719 L 355.375 242.761719 L 355.375 247.699219 L 350.425781 247.699219 L 350.425781 252.640625 L 345.476562 252.640625 L 345.476562 257.582031 L 335.578125 257.582031 L 335.578125 267.464844 L 330.628906 267.464844 L 330.628906 272.402344 L 320.730469 272.402344 L 320.730469 282.285156 L 315.78125 282.285156 L 315.78125 292.167969 L 305.882812 292.167969 L 305.882812 302.046875 L 295.980469 302.046875 L 295.980469 306.988281 L 291.03125 306.988281 L 291.03125 311.929688 L 286.082031 311.929688 L 286.082031 316.871094 L 281.132812 316.871094 L 281.132812 321.8125 L 271.234375 321.8125 L 271.234375 316.871094 L 266.285156 316.871094 L 266.285156 311.929688 L 256.386719 311.929688 L 256.386719 316.871094 L 251.4375 316.871094 L 251.4375 321.8125 L 246.488281 321.8125 L 246.488281 331.691406 L 236.589844 331.691406 L 236.589844 336.632812 L 231.640625 336.632812 L 231.640625 341.574219 L 221.738281 341.574219 L 221.738281 336.632812 L 201.941406 336.632812 L 201.941406 341.574219 L 196.992188 341.574219 L 196.992188 346.515625 L 192.042969 346.515625 L 192.042969 351.453125 L 182.144531 351.453125 L 182.144531 361.335938 L 177.195312 361.335938 L 177.195312 371.21875 L 167.296875 371.21875 L 167.296875 376.15625 L 162.347656 376.15625 L 162.347656 381.097656 L 157.398438 381.097656 L 157.398438 386.039062 L 142.546875 386.039062 L 142.546875 390.980469 L 137.597656 390.980469 L 137.597656 395.921875 L 132.648438 395.921875 L 132.648438 400.859375 L 127.699219 400.859375 L 127.699219 405.800781 L 622.648438 405.800781 L 622.648438 400.859375 Z M 617.699219 400.859375 " fill-opacity="1" fill-rule="nonzero"/><path fill="#5881ae" d="M 617.699219 400.859375 L 617.699219 395.921875 L 612.75 395.921875 L 612.75 390.980469 L 602.851562 390.980469 L 602.851562 386.039062 L 597.902344 386.039062 L 597.902344 376.15625 L 588 376.15625 L 588 366.277344 L 583.050781 366.277344 L 583.050781 361.335938 L 578.101562 361.335938 L 578.101562 351.453125 L 573.152344 351.453125 L 573.152344 346.515625 L 568.203125 346.515625 L 568.203125 336.632812 L 563.253906 336.632812 L 563.253906 331.691406 L 553.355469 331.691406 L 553.355469 326.75 L 548.40625 326.75 L 548.40625 321.8125 L 543.457031 321.8125 L 543.457031 316.871094 L 538.507812 316.871094 L 538.507812 311.929688 L 533.558594 311.929688 L 533.558594 306.988281 L 513.757812 306.988281 L 513.757812 311.929688 L 508.808594 311.929688 L 508.808594 316.871094 L 503.859375 316.871094 L 503.859375 326.75 L 498.910156 326.75 L 498.910156 331.691406 L 489.011719 331.691406 L 489.011719 336.632812 L 474.164062 336.632812 L 474.164062 326.75 L 464.265625 326.75 L 464.265625 321.8125 L 454.367188 321.8125 L 454.367188 316.871094 L 444.464844 316.871094 L 444.464844 311.929688 L 434.566406 311.929688 L 434.566406 306.988281 L 429.617188 306.988281 L 429.617188 297.109375 L 419.71875 297.109375 L 419.71875 287.226562 L 414.769531 287.226562 L 414.769531 277.34375 L 409.820312 277.34375 L 409.820312 267.464844 L 399.921875 267.464844 L 399.921875 262.523438 L 390.023438 262.523438 L 390.023438 257.582031 L 385.074219 257.582031 L 385.074219 252.640625 L 380.125 252.640625 L 380.125 247.699219 L 375.175781 247.699219 L 375.175781 242.761719 L 355.375 242.761719 L 355.375 247.699219 L 350.425781 247.699219 L 350.425781 252.640625 L 345.476562 252.640625 L 345.476562 257.582031 L 335.578125 257.582031 L 335.578125 267.464844 L 330.628906 267.464844 L 330.628906 272.402344 L 320.730469 272.402344 L 320.730469 282.285156 L 315.78125 282.285156 L 315.78125 292.167969 L 305.882812 292.167969 L 305.882812 302.046875 L 295.980469 302.046875 L 295.980469 306.988281 L 291.03125 306.988281 L 291.03125 311.929688 L 286.082031 311.929688 L 286.082031 316.871094 L 281.132812 316.871094 L 281.132812 321.8125 L 271.234375 321.8125 L 271.234375 316.871094 L 266.285156 316.871094 L 266.285156 311.929688 L 256.386719 311.929688 L 256.386719 316.871094 L 251.4375 316.871094 L 251.4375 321.8125 L 246.488281 321.8125 L 246.488281 331.691406 L 236.589844 331.691406 L 236.589844 336.632812 L 231.640625 336.632812 L 231.640625 341.574219 L 221.738281 341.574219 L 221.738281 336.632812 L 201.941406 336.632812 L 201.941406 341.574219 L 196.992188 341.574219 L 196.992188 346.515625 L 192.042969 346.515625 L 192.042969 351.453125 L 182.144531 351.453125 L 182.144531 361.335938 L 177.195312 361.335938 L 177.195312 371.21875 L 167.296875 371.21875 L 167.296875 376.15625 L 162.347656 376.15625 L 162.347656 386.039062 L 142.546875 386.039062 L 142.546875 390.980469 L 137.597656 390.980469 L 137.597656 395.921875 L 132.648438 395.921875 L 132.648438 400.859375 L 127.699219 400.859375 L 127.699219 405.800781 L 622.648438 405.800781 L 622.648438 400.859375 Z M 617.699219 400.859375 " fill-opacity="1" fill-rule="nonzero"/></g><g clip-path="url(#2590ed69e7)"><path fill="#2c508c" d="M 221.738281 395.921875 L 211.839844 395.921875 L 211.839844 390.980469 L 206.890625 390.980469 L 206.890625 386.039062 L 201.941406 386.039062 L 201.941406 376.15625 L 196.992188 376.15625 L 196.992188 366.277344 L 192.042969 366.277344 L 192.042969 361.335938 L 187.09375 361.335938 L 187.09375 356.394531 L 192.042969 356.394531 L 192.042969 351.453125 L 182.144531 351.453125 L 182.144531 361.335938 L 177.195312 361.335938 L 177.195312 371.21875 L 167.296875 371.21875 L 167.296875 376.15625 L 162.347656 376.15625 L 162.347656 381.097656 L 157.398438 381.097656 L 157.398438 386.039062 L 142.546875 386.039062 L 142.546875 390.980469 L 137.597656 390.980469 L 137.597656 395.921875 L 132.648438 395.921875 L 132.648438 400.859375 L 127.699219 400.859375 L 127.699219 405.800781 L 147.5 405.800781 L 147.5 400.859375 L 152.449219 400.859375 L 152.449219 395.921875 L 162.347656 395.921875 L 162.347656 390.980469 L 172.246094 390.980469 L 172.246094 386.039062 L 177.195312 386.039062 L 177.195312 390.980469 L 172.246094 390.980469 L 172.246094 400.859375 L 177.195312 400.859375 L 177.195312 395.921875 L 182.144531 395.921875 L 182.144531 386.039062 L 187.09375 386.039062 L 187.09375 381.097656 L 192.042969 381.097656 L 192.042969 386.039062 L 196.992188 386.039062 L 196.992188 390.980469 L 201.941406 390.980469 L 201.941406 395.921875 L 206.890625 395.921875 L 206.890625 405.800781 L 226.691406 405.800781 L 226.691406 400.859375 L 221.738281 400.859375 Z M 221.738281 395.921875 " fill-opacity="1" fill-rule="nonzero"/></g><path fill="#2c508c" d="M 185.113281 405.800781 L 192.042969 405.800781 L 192.042969 400.859375 L 187.09375 400.859375 L 187.09375 395.921875 L 182.144531 395.921875 L 182.144531 405.800781 Z M 185.113281 405.800781 " fill-opacity="1" fill-rule="nonzero"/><path fill="#2c508c" d="M 236.589844 371.21875 L 241.539062 371.21875 L 241.539062 376.15625 L 236.589844 376.15625 Z M 236.589844 371.21875 " fill-opacity="1" fill-rule="nonzero"/><g clip-path="url(#06a5f24a2a)"><path fill="#2c508c" d="M 355.375 247.699219 L 350.425781 247.699219 L 350.425781 252.640625 L 345.476562 252.640625 L 345.476562 257.582031 L 335.578125 257.582031 L 335.578125 267.464844 L 330.628906 267.464844 L 330.628906 272.402344 L 320.730469 272.402344 L 320.730469 282.285156 L 315.78125 282.285156 L 315.78125 292.167969 L 305.882812 292.167969 L 305.882812 302.046875 L 295.980469 302.046875 L 295.980469 306.988281 L 291.03125 306.988281 L 291.03125 311.929688 L 286.082031 311.929688 L 286.082031 316.871094 L 281.132812 316.871094 L 281.132812 321.8125 L 271.234375 321.8125 L 271.234375 326.75 L 266.285156 326.75 L 266.285156 331.691406 L 261.335938 331.691406 L 261.335938 336.632812 L 251.4375 336.632812 L 251.4375 341.574219 L 246.488281 341.574219 L 246.488281 351.453125 L 236.589844 351.453125 L 236.589844 346.515625 L 241.539062 346.515625 L 241.539062 341.574219 L 246.488281 341.574219 L 246.488281 336.632812 L 251.4375 336.632812 L 251.4375 326.75 L 256.386719 326.75 L 256.386719 321.8125 L 261.335938 321.8125 L 261.335938 311.929688 L 256.386719 311.929688 L 256.386719 316.871094 L 251.4375 316.871094 L 251.4375 321.8125 L 246.488281 321.8125 L 246.488281 331.691406 L 236.589844 331.691406 L 236.589844 336.632812 L 231.640625 336.632812 L 231.640625 341.574219 L 221.738281 341.574219 L 221.738281 346.515625 L 226.691406 346.515625 L 226.691406 351.453125 L 231.640625 351.453125 L 231.640625 361.335938 L 236.589844 361.335938 L 236.589844 366.277344 L 241.539062 366.277344 L 241.539062 371.21875 L 246.488281 371.21875 L 246.488281 376.15625 L 251.4375 376.15625 L 251.4375 381.097656 L 256.386719 381.097656 L 256.386719 386.039062 L 266.285156 386.039062 L 266.285156 395.921875 L 271.234375 395.921875 L 271.234375 400.859375 L 276.183594 400.859375 L 276.183594 405.800781 L 356.070312 405.800781 L 356.070312 400.859375 L 350.527344 400.859375 L 350.527344 395.921875 L 355.375 395.921875 L 355.375 390.980469 L 350.425781 390.980469 L 350.425781 395.921875 L 345.476562 395.921875 L 345.476562 386.039062 L 340.328125 386.039062 L 340.328125 381.097656 L 330.628906 381.097656 L 330.628906 376.15625 L 325.679688 376.15625 L 325.679688 366.277344 L 320.136719 366.277344 L 320.136719 361.335938 L 315.78125 361.335938 L 315.78125 356.394531 L 310.832031 356.394531 L 310.832031 351.453125 L 305.882812 351.453125 L 305.882812 361.335938 L 295.980469 361.335938 L 295.980469 366.277344 L 291.03125 366.277344 L 291.03125 356.394531 L 300.933594 356.394531 L 300.933594 351.453125 L 295.980469 351.453125 L 295.980469 346.515625 L 300.933594 346.515625 L 300.933594 341.574219 L 305.882812 341.574219 L 305.882812 336.632812 L 315.78125 336.632812 L 315.78125 331.691406 L 310.832031 331.691406 L 310.832031 326.75 L 320.730469 326.75 L 320.730469 321.8125 L 325.679688 321.8125 L 325.679688 316.871094 L 320.730469 316.871094 L 320.730469 311.929688 L 330.628906 311.929688 L 330.628906 306.988281 L 325.679688 306.988281 L 325.679688 302.046875 L 330.628906 302.046875 L 330.628906 297.109375 L 325.679688 297.109375 L 325.679688 292.167969 L 330.628906 292.167969 L 330.628906 282.285156 L 335.578125 282.285156 L 335.578125 277.34375 L 345.476562 277.34375 L 345.476562 282.285156 L 350.425781 282.285156 L 350.425781 272.402344 L 345.476562 272.402344 L 345.476562 267.464844 L 350.425781 267.464844 L 350.425781 262.523438 L 360.324219 262.523438 L 360.324219 257.582031 L 355.375 257.582031 L 355.375 252.640625 L 360.324219 252.640625 L 360.324219 242.761719 L 355.375 242.761719 Z M 355.375 247.699219 " fill-opacity="1" fill-rule="nonzero"/></g><path fill="#2c508c" d="M 573.152344 395.921875 L 563.253906 395.921875 L 563.253906 390.980469 L 553.355469 390.980469 L 553.355469 386.039062 L 548.40625 386.039062 L 548.40625 381.097656 L 538.507812 381.097656 L 538.507812 376.15625 L 533.558594 376.15625 L 533.558594 371.21875 L 528.609375 371.21875 L 528.609375 366.277344 L 523.660156 366.277344 L 523.660156 361.335938 L 518.707031 361.335938 L 518.707031 356.394531 L 513.757812 356.394531 L 513.757812 351.453125 L 503.859375 351.453125 L 503.859375 346.515625 L 498.910156 346.515625 L 498.910156 341.574219 L 503.859375 341.574219 L 503.859375 336.632812 L 508.808594 336.632812 L 508.808594 331.691406 L 513.757812 331.691406 L 513.757812 321.8125 L 518.707031 321.8125 L 518.707031 311.929688 L 523.660156 311.929688 L 523.660156 306.988281 L 513.757812 306.988281 L 513.757812 311.929688 L 508.808594 311.929688 L 508.808594 316.871094 L 503.859375 316.871094 L 503.859375 326.75 L 498.910156 326.75 L 498.910156 331.691406 L 489.011719 331.691406 L 489.011719 336.632812 L 474.164062 336.632812 L 474.164062 341.574219 L 479.113281 341.574219 L 479.113281 346.515625 L 484.0625 346.515625 L 484.0625 351.453125 L 489.011719 351.453125 L 489.011719 356.394531 L 498.910156 356.394531 L 498.910156 361.335938 L 503.859375 361.335938 L 503.859375 366.277344 L 508.808594 366.277344 L 508.808594 376.15625 L 513.757812 376.15625 L 513.757812 371.21875 L 518.707031 371.21875 L 518.707031 376.15625 L 523.660156 376.15625 L 523.660156 386.039062 L 528.609375 386.039062 L 528.609375 390.980469 L 533.558594 390.980469 L 533.558594 395.921875 L 538.507812 395.921875 L 538.507812 400.859375 L 548.40625 400.859375 L 548.40625 405.800781 L 582.953125 405.800781 L 582.953125 400.859375 L 573.152344 400.859375 Z M 573.152344 395.921875 " fill-opacity="1" fill-rule="nonzero"/><path fill="#2c508c" d="M 454.367188 395.921875 L 454.367188 390.980469 L 449.417969 390.980469 L 449.417969 395.921875 L 444.464844 395.921875 L 444.464844 390.980469 L 439.515625 390.980469 L 439.515625 386.039062 L 434.566406 386.039062 L 434.566406 390.980469 L 429.617188 390.980469 L 429.617188 386.039062 L 434.566406 386.039062 L 434.566406 376.15625 L 429.617188 376.15625 L 429.617188 381.097656 L 424.667969 381.097656 L 424.667969 376.15625 L 419.71875 376.15625 L 419.71875 371.21875 L 414.769531 371.21875 L 414.769531 361.335938 L 409.820312 361.335938 L 409.820312 366.277344 L 404.871094 366.277344 L 404.871094 356.394531 L 399.921875 356.394531 L 399.921875 351.453125 L 394.972656 351.453125 L 394.972656 346.515625 L 390.023438 346.515625 L 390.023438 341.574219 L 385.074219 341.574219 L 385.074219 356.394531 L 390.023438 356.394531 L 390.023438 361.335938 L 385.074219 361.335938 L 385.074219 371.21875 L 390.023438 371.21875 L 390.023438 381.097656 L 394.972656 381.097656 L 394.972656 386.039062 L 399.921875 386.039062 L 399.921875 390.980469 L 394.972656 390.980469 L 394.972656 395.921875 L 399.921875 395.921875 L 399.921875 400.859375 L 394.972656 400.859375 L 394.972656 405.800781 L 459.316406 405.800781 L 459.316406 400.859375 L 454.367188 400.859375 Z M 454.367188 395.921875 " fill-opacity="1" fill-rule="nonzero"/><path fill="#2c508c" d="M 380.125 336.632812 L 385.074219 336.632812 L 385.074219 341.574219 L 380.125 341.574219 Z M 380.125 336.632812 " fill-opacity="1" fill-rule="nonzero"/><path fill="#2c508c" d="M 350.425781 267.464844 L 355.375 267.464844 L 355.375 272.402344 L 350.425781 272.402344 Z M 350.425781 267.464844 " fill-opacity="1" fill-rule="nonzero"/><path fill="#2c508c" d="M 335.578125 282.285156 L 340.527344 282.285156 L 340.527344 287.226562 L 335.578125 287.226562 Z M 335.578125 282.285156 " fill-opacity="1" fill-rule="nonzero"/><path fill="#2c508c" d="M 330.628906 292.167969 L 335.578125 292.167969 L 335.578125 297.109375 L 330.628906 297.109375 Z M 330.628906 292.167969 " fill-opacity="1" fill-rule="nonzero"/><path fill="#2c508c" d="M 340.527344 287.226562 L 345.476562 287.226562 L 345.476562 292.167969 L 340.527344 292.167969 Z M 340.527344 287.226562 " fill-opacity="1" fill-rule="nonzero"/><path fill="#2c508c" d="M 330.628906 302.046875 L 335.578125 302.046875 L 335.578125 306.988281 L 330.628906 306.988281 Z M 330.628906 302.046875 " fill-opacity="1" fill-rule="nonzero"/><path fill="#2c508c" d="M 325.679688 321.8125 L 330.628906 321.8125 L 330.628906 326.75 L 325.679688 326.75 Z M 325.679688 321.8125 " fill-opacity="1" fill-rule="nonzero"/><path fill="#2c508c" d="M 320.730469 326.75 L 325.679688 326.75 L 325.679688 331.691406 L 320.730469 331.691406 Z M 320.730469 326.75 " fill-opacity="1" fill-rule="nonzero"/><path fill="#2c508c" d="M 305.882812 341.574219 L 310.832031 341.574219 L 310.832031 346.515625 L 305.882812 346.515625 Z M 305.882812 341.574219 " fill-opacity="1" fill-rule="nonzero"/><path fill="#2c508c" d="M 315.78125 336.632812 L 320.730469 336.632812 L 320.730469 341.574219 L 315.78125 341.574219 Z M 315.78125 336.632812 " fill-opacity="1" fill-rule="nonzero"/><path fill="#2c508c" d="M 300.933594 346.515625 L 305.882812 346.515625 L 305.882812 351.453125 L 300.933594 351.453125 Z M 300.933594 346.515625 " fill-opacity="1" fill-rule="nonzero"/><path fill="#2c508c" d="M 325.679688 361.335938 L 330.628906 361.335938 L 330.628906 366.277344 L 325.679688 366.277344 Z M 325.679688 361.335938 " fill-opacity="1" fill-rule="nonzero"/><path fill="#2c508c" d="M 320.730469 356.394531 L 325.679688 356.394531 L 325.679688 361.335938 L 320.730469 361.335938 Z M 320.730469 356.394531 " fill-opacity="1" fill-rule="nonzero"/><path fill="#2c508c" d="M 330.628906 371.21875 L 335.578125 371.21875 L 335.578125 376.15625 L 330.628906 376.15625 Z M 330.628906 371.21875 " fill-opacity="1" fill-rule="nonzero"/><path fill="#2c508c" d="M 335.578125 366.277344 L 340.527344 366.277344 L 340.527344 371.21875 L 335.578125 371.21875 Z M 335.578125 366.277344 " fill-opacity="1" fill-rule="nonzero"/><path fill="#2c508c" d="M 340.527344 376.15625 L 345.476562 376.15625 L 345.476562 381.097656 L 340.527344 381.097656 Z M 340.527344 376.15625 " fill-opacity="1" fill-rule="nonzero"/><path fill="#2c508c" d="M 380.125 356.394531 L 385.074219 356.394531 L 385.074219 361.335938 L 380.125 361.335938 Z M 380.125 356.394531 " fill-opacity="1" fill-rule="nonzero"/><path fill="#2c508c" d="M 390.023438 336.632812 L 394.972656 336.632812 L 394.972656 341.574219 L 390.023438 341.574219 Z M 390.023438 336.632812 " fill-opacity="1" fill-rule="nonzero"/><path fill="#2c508c" d="M 404.871094 351.453125 L 409.820312 351.453125 L 409.820312 356.394531 L 404.871094 356.394531 Z M 404.871094 351.453125 " fill-opacity="1" fill-rule="nonzero"/><path fill="#2c508c" d="M 419.71875 366.277344 L 424.667969 366.277344 L 424.667969 371.21875 L 419.71875 371.21875 Z M 419.71875 366.277344 " fill-opacity="1" fill-rule="nonzero"/><path fill="#2c508c" d="M 424.667969 371.21875 L 429.617188 371.21875 L 429.617188 376.15625 L 424.667969 376.15625 Z M 424.667969 371.21875 " fill-opacity="1" fill-rule="nonzero"/><path fill="#2c508c" d="M 444.464844 386.039062 L 449.417969 386.039062 L 449.417969 390.980469 L 444.464844 390.980469 Z M 444.464844 386.039062 " fill-opacity="1" fill-rule="nonzero"/><path fill="#2c508c" d="M 459.316406 395.921875 L 464.265625 395.921875 L 464.265625 400.859375 L 459.316406 400.859375 Z M 459.316406 395.921875 " fill-opacity="1" fill-rule="nonzero"/><path fill="#2c508c" d="M 464.265625 400.859375 L 468.917969 400.859375 L 468.917969 405.800781 L 464.265625 405.800781 Z M 464.265625 400.859375 " fill-opacity="1" fill-rule="nonzero"/><path fill="#2c508c" d="M 380.125 371.21875 L 385.074219 371.21875 L 385.074219 376.15625 L 380.125 376.15625 Z M 380.125 371.21875 " fill-opacity="1" fill-rule="nonzero"/><path fill="#2c508c" d="M 385.074219 381.097656 L 390.023438 381.097656 L 390.023438 386.039062 L 385.074219 386.039062 Z M 385.074219 381.097656 " fill-opacity="1" fill-rule="nonzero"/><path fill="#2c508c" d="M 390.023438 386.039062 L 394.972656 386.039062 L 394.972656 390.980469 L 390.023438 390.980469 Z M 390.023438 386.039062 " fill-opacity="1" fill-rule="nonzero"/><path fill="#2c508c" d="M 385.074219 395.921875 L 390.023438 395.921875 L 390.023438 400.859375 L 385.074219 400.859375 Z M 385.074219 395.921875 " fill-opacity="1" fill-rule="nonzero"/><path fill="#2c508c" d="M 192.042969 356.394531 L 196.992188 356.394531 L 196.992188 361.335938 L 192.042969 361.335938 Z M 192.042969 356.394531 " fill-opacity="1" fill-rule="nonzero"/><path fill="#2c508c" d="M 201.941406 371.21875 L 206.890625 371.21875 L 206.890625 376.15625 L 201.941406 376.15625 Z M 201.941406 371.21875 " fill-opacity="1" fill-rule="nonzero"/><path fill="#2c508c" d="M 196.992188 361.335938 L 201.941406 361.335938 L 201.941406 366.277344 L 196.992188 366.277344 Z M 196.992188 361.335938 " fill-opacity="1" fill-rule="nonzero"/><path fill="#2c508c" d="M 206.890625 381.097656 L 211.839844 381.097656 L 211.839844 386.039062 L 206.890625 386.039062 Z M 206.890625 381.097656 " fill-opacity="1" fill-rule="nonzero"/><path fill="#2c508c" d="M 206.890625 366.277344 L 211.839844 366.277344 L 211.839844 371.21875 L 206.890625 371.21875 Z M 206.890625 366.277344 " fill-opacity="1" fill-rule="nonzero"/><path fill="#2c508c" d="M 211.839844 386.039062 L 216.789062 386.039062 L 216.789062 390.980469 L 211.839844 390.980469 Z M 211.839844 386.039062 " fill-opacity="1" fill-rule="nonzero"/><path fill="#2c508c" d="M 221.738281 390.980469 L 226.691406 390.980469 L 226.691406 395.921875 L 221.738281 395.921875 Z M 221.738281 390.980469 " fill-opacity="1" fill-rule="nonzero"/><path fill="#2c508c" d="M 226.691406 395.921875 L 231.640625 395.921875 L 231.640625 400.859375 L 226.691406 400.859375 Z M 226.691406 395.921875 " fill-opacity="1" fill-rule="nonzero"/><path fill="#2c508c" d="M 162.347656 395.921875 L 167.296875 395.921875 L 167.296875 400.859375 L 162.347656 400.859375 Z M 162.347656 395.921875 " fill-opacity="1" fill-rule="nonzero"/><path fill="#2c508c" d="M 152.449219 400.859375 L 157.398438 400.859375 L 157.398438 405.800781 L 152.449219 405.800781 Z M 152.449219 400.859375 " fill-opacity="1" fill-rule="nonzero"/><path fill="#2c508c" d="M 187.09375 390.980469 L 192.042969 390.980469 L 192.042969 395.921875 L 187.09375 395.921875 Z M 187.09375 390.980469 " fill-opacity="1" fill-rule="nonzero"/><path fill="#2c508c" d="M 196.992188 395.921875 L 201.941406 395.921875 L 201.941406 400.859375 L 196.992188 400.859375 Z M 196.992188 395.921875 " fill-opacity="1" fill-rule="nonzero"/><path fill="#2c508c" d="M 231.640625 366.277344 L 236.589844 366.277344 L 236.589844 371.21875 L 231.640625 371.21875 Z M 231.640625 366.277344 " fill-opacity="1" fill-rule="nonzero"/><path fill="#2c508c" d="M 246.488281 381.097656 L 251.4375 381.097656 L 251.4375 386.039062 L 246.488281 386.039062 Z M 246.488281 381.097656 " fill-opacity="1" fill-rule="nonzero"/><path fill="#2c508c" d="M 241.539062 386.039062 L 246.488281 386.039062 L 246.488281 390.980469 L 241.539062 390.980469 Z M 241.539062 386.039062 " fill-opacity="1" fill-rule="nonzero"/><path fill="#2c508c" d="M 251.4375 386.039062 L 256.386719 386.039062 L 256.386719 390.980469 L 251.4375 390.980469 Z M 251.4375 386.039062 " fill-opacity="1" fill-rule="nonzero"/><path fill="#2c508c" d="M 256.386719 390.980469 L 261.335938 390.980469 L 261.335938 395.921875 L 256.386719 395.921875 Z M 256.386719 390.980469 " fill-opacity="1" fill-rule="nonzero"/><path fill="#2c508c" d="M 266.285156 400.859375 L 271.234375 400.859375 L 271.234375 405.800781 L 266.285156 405.800781 Z M 266.285156 400.859375 " fill-opacity="1" fill-rule="nonzero"/><path fill="#2c508c" d="M 256.386719 326.75 L 261.335938 326.75 L 261.335938 331.691406 L 256.386719 331.691406 Z M 256.386719 326.75 " fill-opacity="1" fill-rule="nonzero"/><path fill="#2c508c" d="M 469.214844 331.691406 L 474.164062 331.691406 L 474.164062 336.632812 L 469.214844 336.632812 Z M 469.214844 331.691406 " fill-opacity="1" fill-rule="nonzero"/><path fill="#2c508c" d="M 474.164062 346.515625 L 479.113281 346.515625 L 479.113281 351.453125 L 474.164062 351.453125 Z M 474.164062 346.515625 " fill-opacity="1" fill-rule="nonzero"/><path fill="#2c508c" d="M 479.113281 351.453125 L 484.0625 351.453125 L 484.0625 356.394531 L 479.113281 356.394531 Z M 479.113281 351.453125 " fill-opacity="1" fill-rule="nonzero"/><path fill="#2c508c" d="M 493.960938 361.335938 L 498.910156 361.335938 L 498.910156 366.277344 L 493.960938 366.277344 Z M 493.960938 361.335938 " fill-opacity="1" fill-rule="nonzero"/><path fill="#2c508c" d="M 498.910156 366.277344 L 503.859375 366.277344 L 503.859375 371.21875 L 498.910156 371.21875 Z M 498.910156 366.277344 " fill-opacity="1" fill-rule="nonzero"/><path fill="#2c508c" d="M 513.757812 376.15625 L 518.707031 376.15625 L 518.707031 381.097656 L 513.757812 381.097656 Z M 513.757812 376.15625 " fill-opacity="1" fill-rule="nonzero"/><path fill="#2c508c" d="M 518.707031 386.039062 L 523.660156 386.039062 L 523.660156 390.980469 L 518.707031 390.980469 Z M 518.707031 386.039062 " fill-opacity="1" fill-rule="nonzero"/><path fill="#2c508c" d="M 523.660156 390.980469 L 528.609375 390.980469 L 528.609375 395.921875 L 523.660156 395.921875 Z M 523.660156 390.980469 " fill-opacity="1" fill-rule="nonzero"/><path fill="#2c508c" d="M 533.558594 400.859375 L 538.507812 400.859375 L 538.507812 405.800781 L 533.558594 405.800781 Z M 533.558594 400.859375 " fill-opacity="1" fill-rule="nonzero"/><path fill="#2c508c" d="M 503.859375 376.15625 L 508.808594 376.15625 L 508.808594 381.097656 L 503.859375 381.097656 Z M 503.859375 376.15625 " fill-opacity="1" fill-rule="nonzero"/><path fill="#2c508c" d="M 508.808594 386.039062 L 513.757812 386.039062 L 513.757812 390.980469 L 508.808594 390.980469 Z M 508.808594 386.039062 " fill-opacity="1" fill-rule="nonzero"/><path fill="#2c508c" d="M 503.859375 341.574219 L 508.808594 341.574219 L 508.808594 346.515625 L 503.859375 346.515625 Z M 503.859375 341.574219 " fill-opacity="1" fill-rule="nonzero"/><path fill="#2c508c" d="M 513.757812 331.691406 L 518.707031 331.691406 L 518.707031 336.632812 L 513.757812 336.632812 Z M 513.757812 331.691406 " fill-opacity="1" fill-rule="nonzero"/><path fill="#2c508c" d="M 513.757812 346.515625 L 518.707031 346.515625 L 518.707031 351.453125 L 513.757812 351.453125 Z M 513.757812 346.515625 " fill-opacity="1" fill-rule="nonzero"/><path fill="#2c508c" d="M 518.707031 321.8125 L 523.660156 321.8125 L 523.660156 326.75 L 518.707031 326.75 Z M 518.707031 321.8125 " fill-opacity="1" fill-rule="nonzero"/><path fill="#2c508c" d="M 508.808594 336.632812 L 513.757812 336.632812 L 513.757812 341.574219 L 508.808594 341.574219 Z M 508.808594 336.632812 " fill-opacity="1" fill-rule="nonzero"/><path fill="#2c508c" d="M 518.707031 351.453125 L 523.660156 351.453125 L 523.660156 356.394531 L 518.707031 356.394531 Z M 518.707031 351.453125 " fill-opacity="1" fill-rule="nonzero"/><path fill="#2c508c" d="M 528.609375 356.394531 L 533.558594 356.394531 L 533.558594 361.335938 L 528.609375 361.335938 Z M 528.609375 356.394531 " fill-opacity="1" fill-rule="nonzero"/><path fill="#2c508c" d="M 533.558594 366.277344 L 538.507812 366.277344 L 538.507812 371.21875 L 533.558594 371.21875 Z M 533.558594 366.277344 " fill-opacity="1" fill-rule="nonzero"/><path fill="#2c508c" d="M 548.40625 376.15625 L 553.355469 376.15625 L 553.355469 381.097656 L 548.40625 381.097656 Z M 548.40625 376.15625 " fill-opacity="1" fill-rule="nonzero"/><path fill="#2c508c" d="M 553.355469 381.097656 L 558.304688 381.097656 L 558.304688 386.039062 L 553.355469 386.039062 Z M 553.355469 381.097656 " fill-opacity="1" fill-rule="nonzero"/><path fill="#2c508c" d="M 563.253906 386.039062 L 568.203125 386.039062 L 568.203125 390.980469 L 563.253906 390.980469 Z M 563.253906 386.039062 " fill-opacity="1" fill-rule="nonzero"/><path fill="#2c508c" d="M 573.152344 390.980469 L 578.101562 390.980469 L 578.101562 395.921875 L 573.152344 395.921875 Z M 573.152344 390.980469 " fill-opacity="1" fill-rule="nonzero"/><path fill="#2c508c" d="M 583.050781 395.921875 L 588 395.921875 L 588 400.859375 L 583.050781 400.859375 Z M 583.050781 395.921875 " fill-opacity="1" fill-rule="nonzero"/><path fill="#7caac9" d="M 439.515625 376.15625 L 444.464844 376.15625 L 444.464844 371.21875 L 449.417969 371.21875 L 449.417969 366.277344 L 439.515625 366.277344 Z M 439.515625 376.15625 " fill-opacity="1" fill-rule="nonzero"/><path fill="#7caac9" d="M 444.464844 376.15625 L 449.417969 376.15625 L 449.417969 381.097656 L 444.464844 381.097656 Z M 444.464844 376.15625 " fill-opacity="1" fill-rule="nonzero"/><path fill="#7caac9" d="M 454.367188 381.097656 L 459.316406 381.097656 L 459.316406 386.039062 L 454.367188 386.039062 Z M 454.367188 381.097656 " fill-opacity="1" fill-rule="nonzero"/><g clip-path="url(#4f8a22fc8d)"><path fill="#7caac9" d="M 479.113281 356.394531 L 474.164062 356.394531 L 474.164062 351.453125 L 469.214844 351.453125 L 469.214844 331.691406 L 464.265625 331.691406 L 464.265625 321.8125 L 454.367188 321.8125 L 454.367188 316.871094 L 444.464844 316.871094 L 444.464844 311.929688 L 434.566406 311.929688 L 434.566406 306.988281 L 429.617188 306.988281 L 429.617188 297.109375 L 419.71875 297.109375 L 419.71875 287.226562 L 414.769531 287.226562 L 414.769531 277.34375 L 409.820312 277.34375 L 409.820312 267.464844 L 399.921875 267.464844 L 399.921875 262.523438 L 390.023438 262.523438 L 390.023438 257.582031 L 385.074219 257.582031 L 385.074219 252.640625 L 380.125 252.640625 L 380.125 247.699219 L 375.175781 247.699219 L 375.175781 242.761719 L 365.273438 242.761719 L 365.273438 247.699219 L 360.324219 247.699219 L 360.324219 252.640625 L 365.273438 252.640625 L 365.273438 262.523438 L 360.324219 262.523438 L 360.324219 267.464844 L 355.375 267.464844 L 355.375 287.226562 L 350.425781 287.226562 L 350.425781 297.109375 L 345.476562 297.109375 L 345.476562 302.046875 L 350.425781 302.046875 L 350.425781 311.929688 L 345.476562 311.929688 L 345.476562 316.871094 L 350.425781 316.871094 L 350.425781 321.8125 L 360.324219 321.8125 L 360.324219 326.75 L 365.273438 326.75 L 365.273438 331.691406 L 370.222656 331.691406 L 370.222656 326.75 L 375.175781 326.75 L 375.175781 331.691406 L 380.125 331.691406 L 380.125 326.75 L 385.074219 326.75 L 385.074219 331.691406 L 399.921875 331.691406 L 399.921875 336.632812 L 404.871094 336.632812 L 404.871094 346.515625 L 414.769531 346.515625 L 414.769531 356.394531 L 424.667969 356.394531 L 424.667969 361.335938 L 429.617188 361.335938 L 429.617188 366.277344 L 439.515625 366.277344 L 439.515625 361.335938 L 444.464844 361.335938 L 444.464844 351.453125 L 434.566406 351.453125 L 434.566406 346.515625 L 429.617188 346.515625 L 429.617188 341.574219 L 424.667969 341.574219 L 424.667969 336.632812 L 434.566406 336.632812 L 434.566406 341.574219 L 439.515625 341.574219 L 439.515625 336.632812 L 444.464844 336.632812 L 444.464844 341.574219 L 454.367188 341.574219 L 454.367188 346.515625 L 464.265625 346.515625 L 464.265625 351.453125 L 459.316406 351.453125 L 459.316406 356.394531 L 469.214844 356.394531 L 469.214844 366.277344 L 474.164062 366.277344 L 474.164062 361.335938 L 479.113281 361.335938 Z M 355.375 306.988281 L 360.324219 306.988281 L 360.324219 311.929688 L 355.375 311.929688 Z M 355.375 306.988281 " fill-opacity="1" fill-rule="nonzero"/></g><path fill="#7caac9" d="M 484.0625 366.277344 L 489.011719 366.277344 L 489.011719 371.21875 L 484.0625 371.21875 Z M 484.0625 366.277344 " fill-opacity="1" fill-rule="nonzero"/><path fill="#7caac9" d="M 479.113281 376.15625 L 489.011719 376.15625 L 489.011719 381.097656 L 479.113281 381.097656 Z M 479.113281 376.15625 " fill-opacity="1" fill-rule="nonzero"/><path fill="#7caac9" d="M 489.011719 381.097656 L 493.960938 381.097656 L 493.960938 386.039062 L 489.011719 386.039062 Z M 489.011719 381.097656 " fill-opacity="1" fill-rule="nonzero"/><path fill="#7caac9" d="M 355.375 326.75 L 360.324219 326.75 L 360.324219 331.691406 L 355.375 331.691406 Z M 355.375 326.75 " fill-opacity="1" fill-rule="nonzero"/><path fill="#7caac9" d="M 360.324219 331.691406 L 365.273438 331.691406 L 365.273438 336.632812 L 360.324219 336.632812 Z M 360.324219 331.691406 " fill-opacity="1" fill-rule="nonzero"/><path fill="#7caac9" d="M 345.476562 326.75 L 340.527344 326.75 L 340.527344 331.691406 L 345.476562 331.691406 L 345.476562 336.632812 L 350.425781 336.632812 L 350.425781 321.8125 L 345.476562 321.8125 Z M 345.476562 326.75 " fill-opacity="1" fill-rule="nonzero"/><path fill="#7caac9" d="M 380.125 331.691406 L 385.074219 331.691406 L 385.074219 336.632812 L 380.125 336.632812 Z M 380.125 331.691406 " fill-opacity="1" fill-rule="nonzero"/><path fill="#7caac9" d="M 394.972656 336.632812 L 399.921875 336.632812 L 399.921875 341.574219 L 394.972656 341.574219 Z M 394.972656 336.632812 " fill-opacity="1" fill-rule="nonzero"/><path fill="#7caac9" d="M 523.660156 316.871094 L 528.609375 316.871094 L 528.609375 321.8125 L 523.660156 321.8125 Z M 523.660156 316.871094 " fill-opacity="1" fill-rule="nonzero"/><path fill="#7caac9" d="M 523.660156 326.75 L 528.609375 326.75 L 528.609375 331.691406 L 523.660156 331.691406 Z M 523.660156 326.75 " fill-opacity="1" fill-rule="nonzero"/><path fill="#7caac9" d="M 538.507812 371.21875 L 543.457031 371.21875 L 543.457031 376.15625 L 538.507812 376.15625 Z M 538.507812 371.21875 " fill-opacity="1" fill-rule="nonzero"/><path fill="#7caac9" d="M 607.800781 390.980469 L 602.851562 390.980469 L 602.851562 386.039062 L 597.902344 386.039062 L 597.902344 376.15625 L 588 376.15625 L 588 366.277344 L 583.050781 366.277344 L 583.050781 361.335938 L 578.101562 361.335938 L 578.101562 351.453125 L 573.152344 351.453125 L 573.152344 346.515625 L 568.203125 346.515625 L 568.203125 336.632812 L 563.253906 336.632812 L 563.253906 331.691406 L 553.355469 331.691406 L 553.355469 326.75 L 548.40625 326.75 L 548.40625 321.8125 L 543.457031 321.8125 L 543.457031 316.871094 L 538.507812 316.871094 L 538.507812 311.929688 L 533.558594 311.929688 L 533.558594 306.988281 L 523.660156 306.988281 L 523.660156 311.929688 L 528.609375 311.929688 L 528.609375 316.871094 L 533.558594 316.871094 L 533.558594 321.8125 L 528.609375 321.8125 L 528.609375 326.75 L 533.558594 326.75 L 533.558594 331.691406 L 528.609375 331.691406 L 528.609375 336.632812 L 523.660156 336.632812 L 523.660156 341.574219 L 518.707031 341.574219 L 518.707031 346.515625 L 528.609375 346.515625 L 528.609375 351.453125 L 538.507812 351.453125 L 538.507812 356.394531 L 543.457031 356.394531 L 543.457031 361.335938 L 538.507812 361.335938 L 538.507812 366.277344 L 543.457031 366.277344 L 543.457031 371.21875 L 548.40625 371.21875 L 548.40625 376.15625 L 553.355469 376.15625 L 553.355469 371.21875 L 558.304688 371.21875 L 558.304688 376.15625 L 563.253906 376.15625 L 563.253906 381.097656 L 573.152344 381.097656 L 573.152344 386.039062 L 583.050781 386.039062 L 583.050781 390.980469 L 588 390.980469 L 588 395.921875 L 592.949219 395.921875 L 592.949219 390.980469 L 597.902344 390.980469 L 597.902344 395.921875 L 602.851562 395.921875 L 602.851562 400.859375 L 607.800781 400.859375 L 607.800781 395.921875 L 612.75 395.921875 L 612.75 390.980469 Z M 568.203125 356.394531 L 573.152344 356.394531 L 573.152344 361.335938 L 568.203125 361.335938 Z M 568.203125 356.394531 " fill-opacity="1" fill-rule="nonzero"/><path fill="#7caac9" d="M 335.578125 331.691406 L 340.527344 331.691406 L 340.527344 336.632812 L 335.578125 336.632812 Z M 335.578125 331.691406 " fill-opacity="1" fill-rule="nonzero"/><path fill="#7caac9" d="M 350.425781 336.632812 L 355.375 336.632812 L 355.375 341.574219 L 350.425781 341.574219 Z M 350.425781 336.632812 " fill-opacity="1" fill-rule="nonzero"/><path fill="#7caac9" d="M 370.222656 336.632812 L 375.175781 336.632812 L 375.175781 341.574219 L 370.222656 341.574219 Z M 370.222656 336.632812 " fill-opacity="1" fill-rule="nonzero"/><path fill="#7caac9" d="M 201.941406 351.453125 L 206.890625 351.453125 L 206.890625 356.394531 L 201.941406 356.394531 Z M 201.941406 351.453125 " fill-opacity="1" fill-rule="nonzero"/><path fill="#7caac9" d="M 231.640625 351.453125 L 226.691406 351.453125 L 226.691406 346.515625 L 221.738281 346.515625 L 221.738281 336.632812 L 206.890625 336.632812 L 206.890625 341.574219 L 211.839844 341.574219 L 211.839844 346.515625 L 206.890625 346.515625 L 206.890625 351.453125 L 211.839844 351.453125 L 211.839844 356.394531 L 206.890625 356.394531 L 206.890625 361.335938 L 216.789062 361.335938 L 216.789062 366.277344 L 221.738281 366.277344 L 221.738281 371.21875 L 216.789062 371.21875 L 216.789062 376.15625 L 221.738281 376.15625 L 221.738281 381.097656 L 226.691406 381.097656 L 226.691406 376.15625 L 231.640625 376.15625 L 231.640625 366.277344 L 236.589844 366.277344 L 236.589844 361.335938 L 231.640625 361.335938 Z M 231.640625 351.453125 " fill-opacity="1" fill-rule="nonzero"/><path fill="#7caac9" d="M 231.640625 376.15625 L 236.589844 376.15625 L 236.589844 381.097656 L 231.640625 381.097656 Z M 231.640625 376.15625 " fill-opacity="1" fill-rule="nonzero"/><path fill="#7caac9" d="M 340.527344 341.574219 L 345.476562 341.574219 L 345.476562 346.515625 L 340.527344 346.515625 Z M 340.527344 341.574219 " fill-opacity="1" fill-rule="nonzero"/><path fill="#7caac9" d="M 355.375 351.453125 L 360.324219 351.453125 L 360.324219 356.394531 L 355.375 356.394531 Z M 355.375 351.453125 " fill-opacity="1" fill-rule="nonzero"/><path fill="#7caac9" d="M 360.324219 341.574219 L 365.273438 341.574219 L 365.273438 346.515625 L 360.324219 346.515625 Z M 360.324219 341.574219 " fill-opacity="1" fill-rule="nonzero"/><path fill="#7caac9" d="M 335.578125 351.453125 L 340.527344 351.453125 L 340.527344 356.394531 L 335.578125 356.394531 Z M 335.578125 351.453125 " fill-opacity="1" fill-rule="nonzero"/><path fill="#ace7e8" d="M 385.074219 257.582031 L 390.023438 257.582031 L 390.023438 262.523438 L 385.074219 262.523438 Z M 385.074219 257.582031 " fill-opacity="1" fill-rule="nonzero"/><path fill="#ace7e8" d="M 365.273438 262.523438 L 370.222656 262.523438 L 370.222656 267.464844 L 365.273438 267.464844 Z M 365.273438 262.523438 " fill-opacity="1" fill-rule="nonzero"/><g clip-path="url(#442e66c5d8)"><path fill="#ace7e8" d="M 375.175781 267.464844 L 380.125 267.464844 L 380.125 257.582031 L 385.074219 257.582031 L 385.074219 252.640625 L 380.125 252.640625 L 380.125 247.699219 L 375.175781 247.699219 L 375.175781 242.761719 L 365.273438 242.761719 L 365.273438 252.640625 L 370.222656 252.640625 L 370.222656 262.523438 L 375.175781 262.523438 Z M 375.175781 267.464844 " fill-opacity="1" fill-rule="nonzero"/></g><path fill="#ace7e8" d="M 394.972656 267.464844 L 394.972656 272.402344 L 399.921875 272.402344 L 399.921875 282.285156 L 404.871094 282.285156 L 404.871094 277.34375 L 409.820312 277.34375 L 409.820312 272.402344 L 404.871094 272.402344 L 404.871094 267.464844 L 399.921875 267.464844 L 399.921875 262.523438 L 390.023438 262.523438 L 390.023438 267.464844 Z M 394.972656 267.464844 " fill-opacity="1" fill-rule="nonzero"/><path fill="#ace7e8" d="M 385.074219 287.226562 L 390.023438 287.226562 L 390.023438 292.167969 L 385.074219 292.167969 Z M 385.074219 287.226562 " fill-opacity="1" fill-rule="nonzero"/><path fill="#ace7e8" d="M 370.222656 267.464844 L 375.175781 267.464844 L 375.175781 272.402344 L 370.222656 272.402344 Z M 370.222656 267.464844 " fill-opacity="1" fill-rule="nonzero"/><path fill="#ace7e8" d="M 365.273438 272.402344 L 370.222656 272.402344 L 370.222656 277.34375 L 365.273438 277.34375 Z M 365.273438 272.402344 " fill-opacity="1" fill-rule="nonzero"/><path fill="#ace7e8" d="M 360.324219 277.34375 L 365.273438 277.34375 L 365.273438 282.285156 L 360.324219 282.285156 Z M 360.324219 277.34375 " fill-opacity="1" fill-rule="nonzero"/><path fill="#ace7e8" d="M 370.222656 287.226562 L 375.175781 287.226562 L 375.175781 292.167969 L 370.222656 292.167969 Z M 370.222656 287.226562 " fill-opacity="1" fill-rule="nonzero"/><path fill="#ace7e8" d="M 365.273438 292.167969 L 370.222656 292.167969 L 370.222656 297.109375 L 365.273438 297.109375 Z M 365.273438 292.167969 " fill-opacity="1" fill-rule="nonzero"/><path fill="#ace7e8" d="M 375.175781 292.167969 L 380.125 292.167969 L 380.125 297.109375 L 375.175781 297.109375 Z M 375.175781 292.167969 " fill-opacity="1" fill-rule="nonzero"/><path fill="#ace7e8" d="M 380.125 297.109375 L 385.074219 297.109375 L 385.074219 302.046875 L 380.125 302.046875 Z M 380.125 297.109375 " fill-opacity="1" fill-rule="nonzero"/><path fill="#ace7e8" d="M 528.609375 306.988281 L 533.558594 306.988281 L 533.558594 311.929688 L 528.609375 311.929688 Z M 528.609375 306.988281 " fill-opacity="1" fill-rule="nonzero"/><path fill="#ace7e8" d="M 543.457031 321.8125 L 543.457031 316.871094 L 538.507812 316.871094 L 538.507812 311.929688 L 533.558594 311.929688 L 533.558594 321.8125 L 538.507812 321.8125 L 538.507812 326.75 L 543.457031 326.75 Z M 543.457031 321.8125 " fill-opacity="1" fill-rule="nonzero"/><path fill="#ace7e8" d="M 538.507812 331.691406 L 543.457031 331.691406 L 543.457031 336.632812 L 538.507812 336.632812 Z M 538.507812 331.691406 " fill-opacity="1" fill-rule="nonzero"/><path fill="#ace7e8" d="M 563.253906 336.632812 L 558.304688 336.632812 L 558.304688 331.691406 L 553.355469 331.691406 L 553.355469 326.75 L 543.457031 326.75 L 543.457031 331.691406 L 548.40625 331.691406 L 548.40625 336.632812 L 553.355469 336.632812 L 553.355469 341.574219 L 558.304688 341.574219 L 558.304688 346.515625 L 563.253906 346.515625 L 563.253906 341.574219 L 568.203125 341.574219 L 568.203125 336.632812 Z M 563.253906 336.632812 " fill-opacity="1" fill-rule="nonzero"/><path fill="#ace7e8" d="M 548.40625 341.574219 L 553.355469 341.574219 L 553.355469 346.515625 L 548.40625 346.515625 Z M 548.40625 341.574219 " fill-opacity="1" fill-rule="nonzero"/><path fill="#ace7e8" d="M 533.558594 336.632812 L 538.507812 336.632812 L 538.507812 341.574219 L 533.558594 341.574219 Z M 533.558594 336.632812 " fill-opacity="1" fill-rule="nonzero"/><path fill="#ace7e8" d="M 543.457031 336.632812 L 548.40625 336.632812 L 548.40625 341.574219 L 543.457031 341.574219 Z M 543.457031 336.632812 " fill-opacity="1" fill-rule="nonzero"/><path fill="#ace7e8" d="M 533.558594 326.75 L 538.507812 326.75 L 538.507812 331.691406 L 533.558594 331.691406 Z M 533.558594 326.75 " fill-opacity="1" fill-rule="nonzero"/><path fill="#ace7e8" d="M 399.921875 287.226562 L 399.921875 292.167969 L 404.871094 292.167969 L 404.871094 297.109375 L 409.820312 297.109375 L 409.820312 292.167969 L 414.769531 292.167969 L 414.769531 287.226562 L 409.820312 287.226562 L 409.820312 282.285156 L 404.871094 282.285156 L 404.871094 287.226562 Z M 399.921875 287.226562 " fill-opacity="1" fill-rule="nonzero"/><path fill="#ace7e8" d="M 414.769531 292.167969 L 419.71875 292.167969 L 419.71875 297.109375 L 414.769531 297.109375 Z M 414.769531 292.167969 " fill-opacity="1" fill-rule="nonzero"/><path fill="#ace7e8" d="M 409.820312 297.109375 L 414.769531 297.109375 L 414.769531 302.046875 L 409.820312 302.046875 Z M 409.820312 297.109375 " fill-opacity="1" fill-rule="nonzero"/><path fill="#ace7e8" d="M 424.667969 302.046875 L 424.667969 306.988281 L 429.617188 306.988281 L 429.617188 297.109375 L 419.71875 297.109375 L 419.71875 302.046875 Z M 424.667969 302.046875 " fill-opacity="1" fill-rule="nonzero"/><path fill="#ace7e8" d="M 414.769531 302.046875 L 419.71875 302.046875 L 419.71875 306.988281 L 414.769531 306.988281 Z M 414.769531 302.046875 " fill-opacity="1" fill-rule="nonzero"/><path fill="#ace7e8" d="M 390.023438 282.285156 L 390.023438 277.34375 L 394.972656 277.34375 L 394.972656 272.402344 L 390.023438 272.402344 L 390.023438 267.464844 L 380.125 267.464844 L 380.125 272.402344 L 375.175781 272.402344 L 375.175781 277.34375 L 370.222656 277.34375 L 370.222656 282.285156 L 375.175781 282.285156 L 375.175781 287.226562 L 385.074219 287.226562 L 385.074219 282.285156 Z M 390.023438 282.285156 " fill-opacity="1" fill-rule="nonzero"/><path fill="#ace7e8" d="M 221.738281 341.574219 L 221.738281 336.632812 L 211.839844 336.632812 L 211.839844 346.515625 L 216.789062 346.515625 L 216.789062 341.574219 Z M 221.738281 341.574219 " fill-opacity="1" fill-rule="nonzero"/><path fill="#ace7e8" d="M 221.738281 346.515625 L 216.789062 346.515625 L 216.789062 351.453125 L 211.839844 351.453125 L 211.839844 356.394531 L 221.738281 356.394531 Z M 221.738281 346.515625 " fill-opacity="1" fill-rule="nonzero"/><path fill="#ace7e8" d="M 221.738281 356.394531 L 226.691406 356.394531 L 226.691406 361.335938 L 221.738281 361.335938 Z M 221.738281 356.394531 " fill-opacity="1" fill-rule="nonzero"/><path fill="#ace7e8" d="M 226.691406 351.453125 L 231.640625 351.453125 L 231.640625 356.394531 L 226.691406 356.394531 Z M 226.691406 351.453125 " fill-opacity="1" fill-rule="nonzero"/><path fill="#ace7e8" d="M 226.691406 361.335938 L 231.640625 361.335938 L 231.640625 366.277344 L 226.691406 366.277344 Z M 226.691406 361.335938 " fill-opacity="1" fill-rule="nonzero"/><path fill="#ace7e8" d="M 261.335938 311.929688 L 266.285156 311.929688 L 266.285156 316.871094 L 261.335938 316.871094 Z M 261.335938 311.929688 " fill-opacity="1" fill-rule="nonzero"/><path fill="#ace7e8" d="M 266.285156 316.871094 L 271.234375 316.871094 L 271.234375 321.8125 L 266.285156 321.8125 Z M 266.285156 316.871094 " fill-opacity="1" fill-rule="nonzero"/><path fill="#ace7e8" d="M 261.335938 321.8125 L 266.285156 321.8125 L 266.285156 326.75 L 261.335938 326.75 Z M 261.335938 321.8125 " fill-opacity="1" fill-rule="nonzero"/><path fill="#ace7e8" d="M 404.871094 321.8125 L 409.820312 321.8125 L 409.820312 326.75 L 404.871094 326.75 Z M 404.871094 321.8125 " fill-opacity="1" fill-rule="nonzero"/><path fill="#ace7e8" d="M 399.921875 326.75 L 404.871094 326.75 L 404.871094 331.691406 L 399.921875 331.691406 Z M 399.921875 326.75 " fill-opacity="1" fill-rule="nonzero"/><path fill="#ace7e8" d="M 409.820312 331.691406 L 409.820312 336.632812 L 414.769531 336.632812 L 414.769531 331.691406 L 419.71875 331.691406 L 419.71875 326.75 L 409.820312 326.75 Z M 409.820312 331.691406 " fill-opacity="1" fill-rule="nonzero"/><path fill="#ace7e8" d="M 414.769531 336.632812 L 419.71875 336.632812 L 419.71875 341.574219 L 414.769531 341.574219 Z M 414.769531 336.632812 " fill-opacity="1" fill-rule="nonzero"/><path fill="#ace7e8" d="M 404.871094 311.929688 L 399.921875 311.929688 L 399.921875 316.871094 L 394.972656 316.871094 L 394.972656 321.8125 L 404.871094 321.8125 Z M 404.871094 311.929688 " fill-opacity="1" fill-rule="nonzero"/><path fill="#ace7e8" d="M 394.972656 306.988281 L 399.921875 306.988281 L 399.921875 311.929688 L 394.972656 311.929688 Z M 394.972656 306.988281 " fill-opacity="1" fill-rule="nonzero"/><path fill="#ace7e8" d="M 399.921875 302.046875 L 404.871094 302.046875 L 404.871094 306.988281 L 399.921875 306.988281 Z M 399.921875 302.046875 " fill-opacity="1" fill-rule="nonzero"/><path fill="#ace7e8" d="M 390.023438 297.109375 L 394.972656 297.109375 L 394.972656 302.046875 L 390.023438 302.046875 Z M 390.023438 297.109375 " fill-opacity="1" fill-rule="nonzero"/><path fill="#ace7e8" d="M 419.71875 311.929688 L 424.667969 311.929688 L 424.667969 316.871094 L 419.71875 316.871094 Z M 419.71875 311.929688 " fill-opacity="1" fill-rule="nonzero"/><path fill="#ace7e8" d="M 424.667969 316.871094 L 429.617188 316.871094 L 429.617188 321.8125 L 424.667969 321.8125 Z M 424.667969 316.871094 " fill-opacity="1" fill-rule="nonzero"/><path fill="#ace7e8" d="M 429.617188 321.8125 L 434.566406 321.8125 L 434.566406 326.75 L 429.617188 326.75 Z M 429.617188 321.8125 " fill-opacity="1" fill-rule="nonzero"/><path fill="#ace7e8" d="M 434.566406 316.871094 L 439.515625 316.871094 L 439.515625 321.8125 L 434.566406 321.8125 Z M 434.566406 316.871094 " fill-opacity="1" fill-rule="nonzero"/><path fill="#ace7e8" d="M 439.515625 326.75 L 444.464844 326.75 L 444.464844 331.691406 L 439.515625 331.691406 Z M 439.515625 326.75 " fill-opacity="1" fill-rule="nonzero"/><path fill="#2e1b5b" d="M 439.515625 400.859375 L 444.464844 400.859375 L 444.464844 405.800781 L 439.515625 405.800781 Z M 439.515625 400.859375 " fill-opacity="1" fill-rule="nonzero"/><path fill="#2e1b5b" d="M 429.617188 395.921875 L 424.667969 395.921875 L 424.667969 400.859375 L 419.71875 400.859375 L 419.71875 395.921875 L 424.667969 395.921875 L 424.667969 390.980469 L 419.71875 390.980469 L 419.71875 386.039062 L 409.820312 386.039062 L 409.820312 390.980469 L 414.769531 390.980469 L 414.769531 395.921875 L 409.820312 395.921875 L 409.820312 390.980469 L 404.871094 390.980469 L 404.871094 400.859375 L 409.820312 400.859375 L 409.820312 405.800781 L 434.566406 405.800781 L 434.566406 400.859375 L 429.617188 400.859375 Z M 429.617188 395.921875 " fill-opacity="1" fill-rule="nonzero"/><path fill="#2e1b5b" d="M 434.566406 395.921875 L 439.515625 395.921875 L 439.515625 400.859375 L 434.566406 400.859375 Z M 434.566406 395.921875 " fill-opacity="1" fill-rule="nonzero"/><path fill="#2e1b5b" d="M 404.871094 381.097656 L 409.820312 381.097656 L 409.820312 386.039062 L 404.871094 386.039062 Z M 404.871094 381.097656 " fill-opacity="1" fill-rule="nonzero"/><path fill="#2e1b5b" d="M 409.820312 376.15625 L 414.769531 376.15625 L 414.769531 381.097656 L 409.820312 381.097656 Z M 409.820312 376.15625 " fill-opacity="1" fill-rule="nonzero"/><path fill="#2e1b5b" d="M 493.960938 346.515625 L 498.910156 346.515625 L 498.910156 351.453125 L 493.960938 351.453125 Z M 493.960938 346.515625 " fill-opacity="1" fill-rule="nonzero"/><path fill="#2e1b5b" d="M 498.910156 351.453125 L 503.859375 351.453125 L 503.859375 356.394531 L 498.910156 356.394531 Z M 498.910156 351.453125 " fill-opacity="1" fill-rule="nonzero"/><path fill="#2e1b5b" d="M 503.859375 356.394531 L 508.808594 356.394531 L 508.808594 361.335938 L 503.859375 361.335938 Z M 503.859375 356.394531 " fill-opacity="1" fill-rule="nonzero"/><path fill="#2e1b5b" d="M 479.113281 336.632812 L 479.113281 341.574219 L 484.0625 341.574219 L 484.0625 346.515625 L 493.960938 346.515625 L 493.960938 336.632812 Z M 479.113281 336.632812 " fill-opacity="1" fill-rule="nonzero"/><path fill="#2e1b5b" d="M 493.960938 331.691406 L 498.910156 331.691406 L 498.910156 336.632812 L 493.960938 336.632812 Z M 493.960938 331.691406 " fill-opacity="1" fill-rule="nonzero"/><path fill="#2e1b5b" d="M 568.203125 400.859375 L 573.152344 400.859375 L 573.152344 405.800781 L 568.203125 405.800781 Z M 568.203125 400.859375 " fill-opacity="1" fill-rule="nonzero"/><path fill="#2e1b5b" d="M 558.304688 395.921875 L 548.40625 395.921875 L 548.40625 400.859375 L 553.355469 400.859375 L 553.355469 405.800781 L 563.253906 405.800781 L 563.253906 400.859375 L 558.304688 400.859375 Z M 558.304688 395.921875 " fill-opacity="1" fill-rule="nonzero"/><path fill="#2e1b5b" d="M 543.457031 390.980469 L 543.457031 386.039062 L 538.507812 386.039062 L 538.507812 395.921875 L 548.40625 395.921875 L 548.40625 390.980469 Z M 543.457031 390.980469 " fill-opacity="1" fill-rule="nonzero"/><path fill="#2e1b5b" d="M 266.285156 361.335938 L 266.285156 366.277344 L 256.386719 366.277344 L 256.386719 371.21875 L 251.4375 371.21875 L 251.4375 366.277344 L 246.488281 366.277344 L 246.488281 356.394531 L 241.539062 356.394531 L 241.539062 361.335938 L 236.589844 361.335938 L 236.589844 366.277344 L 241.539062 366.277344 L 241.539062 371.21875 L 246.488281 371.21875 L 246.488281 376.15625 L 251.4375 376.15625 L 251.4375 381.097656 L 256.386719 381.097656 L 256.386719 386.039062 L 266.285156 386.039062 L 266.285156 395.921875 L 271.234375 395.921875 L 271.234375 400.859375 L 276.183594 400.859375 L 276.183594 405.800781 L 340.527344 405.800781 L 340.527344 400.859375 L 325.679688 400.859375 L 325.679688 395.921875 L 320.730469 395.921875 L 320.730469 390.980469 L 310.832031 390.980469 L 310.832031 395.921875 L 305.882812 395.921875 L 305.882812 390.980469 L 300.933594 390.980469 L 300.933594 395.921875 L 295.980469 395.921875 L 295.980469 400.859375 L 286.082031 400.859375 L 286.082031 395.921875 L 295.980469 395.921875 L 295.980469 390.980469 L 300.933594 390.980469 L 300.933594 386.039062 L 291.03125 386.039062 L 291.03125 390.980469 L 286.082031 390.980469 L 286.082031 386.039062 L 276.183594 386.039062 L 276.183594 390.980469 L 271.234375 390.980469 L 271.234375 386.039062 L 276.183594 386.039062 L 276.183594 381.097656 L 271.234375 381.097656 L 271.234375 376.15625 L 266.285156 376.15625 L 266.285156 371.21875 L 276.183594 371.21875 L 276.183594 376.15625 L 281.132812 376.15625 L 281.132812 366.277344 L 286.082031 366.277344 L 286.082031 361.335938 L 281.132812 361.335938 L 281.132812 356.394531 L 291.03125 356.394531 L 291.03125 351.453125 L 286.082031 351.453125 L 286.082031 346.515625 L 276.183594 346.515625 L 276.183594 351.453125 L 271.234375 351.453125 L 271.234375 356.394531 L 261.335938 356.394531 L 261.335938 361.335938 Z M 266.285156 361.335938 " fill-opacity="1" fill-rule="nonzero"/><path fill="#2e1b5b" d="M 305.882812 386.039062 L 310.832031 386.039062 L 310.832031 390.980469 L 305.882812 390.980469 Z M 305.882812 386.039062 " fill-opacity="1" fill-rule="nonzero"/><path fill="#2e1b5b" d="M 325.679688 390.980469 L 330.628906 390.980469 L 330.628906 395.921875 L 325.679688 395.921875 Z M 325.679688 390.980469 " fill-opacity="1" fill-rule="nonzero"/><path fill="#2e1b5b" d="M 310.832031 381.097656 L 320.730469 381.097656 L 320.730469 386.039062 L 310.832031 386.039062 Z M 310.832031 381.097656 " fill-opacity="1" fill-rule="nonzero"/><path fill="#2e1b5b" d="M 305.882812 376.15625 L 310.832031 376.15625 L 310.832031 381.097656 L 305.882812 381.097656 Z M 305.882812 376.15625 " fill-opacity="1" fill-rule="nonzero"/><path fill="#2e1b5b" d="M 310.832031 371.21875 L 315.78125 371.21875 L 315.78125 376.15625 L 310.832031 376.15625 Z M 310.832031 371.21875 " fill-opacity="1" fill-rule="nonzero"/><path fill="#2e1b5b" d="M 295.980469 376.15625 L 300.933594 376.15625 L 300.933594 381.097656 L 295.980469 381.097656 Z M 295.980469 376.15625 " fill-opacity="1" fill-rule="nonzero"/><path fill="#2e1b5b" d="M 286.082031 381.097656 L 291.03125 381.097656 L 291.03125 386.039062 L 286.082031 386.039062 Z M 286.082031 381.097656 " fill-opacity="1" fill-rule="nonzero"/><path fill="#2e1b5b" d="M 251.4375 361.335938 L 256.386719 361.335938 L 256.386719 366.277344 L 251.4375 366.277344 Z M 251.4375 361.335938 " fill-opacity="1" fill-rule="nonzero"/><path fill="#2e1b5b" d="M 300.933594 371.21875 L 305.882812 371.21875 L 305.882812 376.15625 L 300.933594 376.15625 Z M 300.933594 371.21875 " fill-opacity="1" fill-rule="nonzero"/><path fill="#2e1b5b" d="M 251.4375 351.453125 L 261.335938 351.453125 L 261.335938 356.394531 L 251.4375 356.394531 Z M 251.4375 351.453125 " fill-opacity="1" fill-rule="nonzero"/><path fill="#2e1b5b" d="M 256.386719 341.574219 L 256.386719 346.515625 L 261.335938 346.515625 L 261.335938 351.453125 L 266.285156 351.453125 L 266.285156 341.574219 Z M 256.386719 341.574219 " fill-opacity="1" fill-rule="nonzero"/><path fill="#2e1b5b" d="M 236.589844 341.574219 L 241.539062 341.574219 L 241.539062 346.515625 L 236.589844 346.515625 Z M 236.589844 341.574219 " fill-opacity="1" fill-rule="nonzero"/><path fill="#2e1b5b" d="M 236.589844 346.515625 L 231.640625 346.515625 L 231.640625 361.335938 L 236.589844 361.335938 Z M 236.589844 346.515625 " fill-opacity="1" fill-rule="nonzero"/><path fill="#2e1b5b" d="M 286.082031 341.574219 L 291.03125 341.574219 L 291.03125 346.515625 L 286.082031 346.515625 Z M 286.082031 341.574219 " fill-opacity="1" fill-rule="nonzero"/><path fill="#2e1b5b" d="M 295.980469 341.574219 L 300.933594 341.574219 L 300.933594 346.515625 L 295.980469 346.515625 Z M 295.980469 341.574219 " fill-opacity="1" fill-rule="nonzero"/><path fill="#2e1b5b" d="M 291.03125 331.691406 L 295.980469 331.691406 L 295.980469 336.632812 L 291.03125 336.632812 Z M 291.03125 331.691406 " fill-opacity="1" fill-rule="nonzero"/><g clip-path="url(#6c1445f267)"><path fill="#2e1b5b" d="M 355.375 242.761719 L 360.324219 242.761719 L 360.324219 247.699219 L 355.375 247.699219 Z M 355.375 242.761719 " fill-opacity="1" fill-rule="nonzero"/></g><path fill="#2e1b5b" d="M 350.425781 247.699219 L 355.375 247.699219 L 355.375 252.640625 L 350.425781 252.640625 Z M 350.425781 247.699219 " fill-opacity="1" fill-rule="nonzero"/><path fill="#2e1b5b" d="M 345.476562 252.640625 L 350.425781 252.640625 L 350.425781 257.582031 L 345.476562 257.582031 Z M 345.476562 252.640625 " fill-opacity="1" fill-rule="nonzero"/><path fill="#2e1b5b" d="M 335.578125 257.582031 L 335.578125 267.464844 L 340.527344 267.464844 L 340.527344 262.523438 L 345.476562 262.523438 L 345.476562 257.582031 Z M 335.578125 257.582031 " fill-opacity="1" fill-rule="nonzero"/><path fill="#2e1b5b" d="M 330.628906 267.464844 L 335.578125 267.464844 L 335.578125 272.402344 L 330.628906 272.402344 Z M 330.628906 267.464844 " fill-opacity="1" fill-rule="nonzero"/><path fill="#2e1b5b" d="M 320.730469 277.34375 L 320.730469 282.285156 L 325.679688 282.285156 L 325.679688 277.34375 L 330.628906 277.34375 L 330.628906 272.402344 L 320.730469 272.402344 Z M 320.730469 277.34375 " fill-opacity="1" fill-rule="nonzero"/><path fill="#2e1b5b" d="M 315.78125 282.285156 L 320.730469 282.285156 L 320.730469 292.167969 L 315.78125 292.167969 Z M 315.78125 282.285156 " fill-opacity="1" fill-rule="nonzero"/><path fill="#2e1b5b" d="M 305.882812 292.167969 L 305.882812 302.046875 L 310.832031 302.046875 L 310.832031 297.109375 L 315.78125 297.109375 L 315.78125 292.167969 Z M 305.882812 292.167969 " fill-opacity="1" fill-rule="nonzero"/><path fill="#2e1b5b" d="M 295.980469 302.046875 L 305.882812 302.046875 L 305.882812 306.988281 L 295.980469 306.988281 Z M 295.980469 302.046875 " fill-opacity="1" fill-rule="nonzero"/><path fill="#2e1b5b" d="M 291.03125 306.988281 L 295.980469 306.988281 L 295.980469 311.929688 L 291.03125 311.929688 Z M 291.03125 306.988281 " fill-opacity="1" fill-rule="nonzero"/><path fill="#2e1b5b" d="M 286.082031 311.929688 L 291.03125 311.929688 L 291.03125 316.871094 L 286.082031 316.871094 Z M 286.082031 311.929688 " fill-opacity="1" fill-rule="nonzero"/><path fill="#2e1b5b" d="M 281.132812 316.871094 L 286.082031 316.871094 L 286.082031 321.8125 L 281.132812 321.8125 Z M 281.132812 316.871094 " fill-opacity="1" fill-rule="nonzero"/><path fill="#2e1b5b" d="M 271.234375 326.75 L 271.234375 331.691406 L 276.183594 331.691406 L 276.183594 326.75 L 281.132812 326.75 L 281.132812 321.8125 L 271.234375 321.8125 Z M 271.234375 326.75 " fill-opacity="1" fill-rule="nonzero"/><path fill="#2e1b5b" d="M 266.285156 336.632812 L 266.285156 341.574219 L 271.234375 341.574219 L 271.234375 331.691406 L 266.285156 331.691406 Z M 266.285156 336.632812 " fill-opacity="1" fill-rule="nonzero"/><path fill="#2e1b5b" d="M 256.386719 311.929688 L 261.335938 311.929688 L 261.335938 316.871094 L 256.386719 316.871094 Z M 256.386719 311.929688 " fill-opacity="1" fill-rule="nonzero"/><path fill="#2e1b5b" d="M 251.4375 316.871094 L 256.386719 316.871094 L 256.386719 321.8125 L 251.4375 321.8125 Z M 251.4375 316.871094 " fill-opacity="1" fill-rule="nonzero"/><path fill="#2e1b5b" d="M 246.488281 321.8125 L 251.4375 321.8125 L 251.4375 331.691406 L 246.488281 331.691406 Z M 246.488281 321.8125 " fill-opacity="1" fill-rule="nonzero"/><path fill="#2e1b5b" d="M 236.589844 331.691406 L 246.488281 331.691406 L 246.488281 336.632812 L 236.589844 336.632812 Z M 236.589844 331.691406 " fill-opacity="1" fill-rule="nonzero"/><path fill="#2e1b5b" d="M 231.640625 336.632812 L 236.589844 336.632812 L 236.589844 341.574219 L 231.640625 341.574219 Z M 231.640625 336.632812 " fill-opacity="1" fill-rule="nonzero"/><path fill="#2e1b5b" d="M 221.738281 341.574219 L 231.640625 341.574219 L 231.640625 346.515625 L 221.738281 346.515625 Z M 221.738281 341.574219 " fill-opacity="1" fill-rule="nonzero"/><path fill="#2e1b5b" d="M 201.941406 336.632812 L 206.890625 336.632812 L 206.890625 341.574219 L 201.941406 341.574219 Z M 201.941406 336.632812 " fill-opacity="1" fill-rule="nonzero"/><path fill="#2e1b5b" d="M 196.992188 341.574219 L 201.941406 341.574219 L 201.941406 346.515625 L 196.992188 346.515625 Z M 196.992188 341.574219 " fill-opacity="1" fill-rule="nonzero"/><path fill="#2e1b5b" d="M 192.042969 346.515625 L 196.992188 346.515625 L 196.992188 351.453125 L 192.042969 351.453125 Z M 192.042969 346.515625 " fill-opacity="1" fill-rule="nonzero"/><path fill="#2e1b5b" d="M 182.144531 356.394531 L 182.144531 361.335938 L 187.09375 361.335938 L 187.09375 356.394531 L 192.042969 356.394531 L 192.042969 351.453125 L 182.144531 351.453125 Z M 182.144531 356.394531 " fill-opacity="1" fill-rule="nonzero"/><path fill="#2e1b5b" d="M 177.195312 361.335938 L 182.144531 361.335938 L 182.144531 371.21875 L 177.195312 371.21875 Z M 177.195312 361.335938 " fill-opacity="1" fill-rule="nonzero"/><path fill="#2e1b5b" d="M 167.296875 371.21875 L 177.195312 371.21875 L 177.195312 376.15625 L 167.296875 376.15625 Z M 167.296875 371.21875 " fill-opacity="1" fill-rule="nonzero"/><path fill="#2e1b5b" d="M 162.347656 376.15625 L 167.296875 376.15625 L 167.296875 381.097656 L 162.347656 381.097656 Z M 162.347656 376.15625 " fill-opacity="1" fill-rule="nonzero"/><path fill="#2e1b5b" d="M 157.398438 381.097656 L 162.347656 381.097656 L 162.347656 386.039062 L 157.398438 386.039062 Z M 157.398438 381.097656 " fill-opacity="1" fill-rule="nonzero"/><path fill="#2e1b5b" d="M 142.546875 386.039062 L 157.398438 386.039062 L 157.398438 390.980469 L 142.546875 390.980469 Z M 142.546875 386.039062 " fill-opacity="1" fill-rule="nonzero"/><path fill="#2e1b5b" d="M 137.597656 390.980469 L 142.546875 390.980469 L 142.546875 395.921875 L 137.597656 395.921875 Z M 137.597656 390.980469 " fill-opacity="1" fill-rule="nonzero"/><path fill="#2e1b5b" d="M 132.648438 395.921875 L 137.597656 395.921875 L 137.597656 400.859375 L 132.648438 400.859375 Z M 132.648438 395.921875 " fill-opacity="1" fill-rule="nonzero"/><g clip-path="url(#8742fa6e4b)"><path fill="#2e1b5b" d="M 127.699219 400.859375 L 132.648438 400.859375 L 132.648438 405.800781 L 127.699219 405.800781 Z M 127.699219 400.859375 " fill-opacity="1" fill-rule="nonzero"/></g><path fill="#2e1b5b" d="M 498.910156 326.75 L 503.859375 326.75 L 503.859375 331.691406 L 498.910156 331.691406 Z M 498.910156 326.75 " fill-opacity="1" fill-rule="nonzero"/><path fill="#2e1b5b" d="M 503.859375 316.871094 L 508.808594 316.871094 L 508.808594 326.75 L 503.859375 326.75 Z M 503.859375 316.871094 " fill-opacity="1" fill-rule="nonzero"/><path fill="#2e1b5b" d="M 508.808594 311.929688 L 513.757812 311.929688 L 513.757812 316.871094 L 508.808594 316.871094 Z M 508.808594 311.929688 " fill-opacity="1" fill-rule="nonzero"/><path fill="#2e1b5b" d="M 513.757812 306.988281 L 518.707031 306.988281 L 518.707031 311.929688 L 513.757812 311.929688 Z M 513.757812 306.988281 " fill-opacity="1" fill-rule="nonzero"/></svg>