<svg xmlns="http://www.w3.org/2000/svg" xmlns:xlink="http://www.w3.org/1999/xlink" width="1000" zoomAndPan="magnify" viewBox="0 0 750 757.92" height="1000" preserveAspectRatio="xMidYMid meet" version="1.0"><defs><clipPath id="2e1abba867"><path d="M 172.164062 264.589844 L 577.871094 264.589844 L 577.871094 406.324219 L 172.164062 406.324219 Z M 172.164062 264.589844 " clip-rule="nonzero"/></clipPath><clipPath id="39c2e8405a"><path d="M 172.164062 322 L 572 322 L 572 406.324219 L 172.164062 406.324219 Z M 172.164062 322 " clip-rule="nonzero"/></clipPath><clipPath id="3d3978e6ba"><path d="M 558 380 L 577.871094 380 L 577.871094 387 L 558 387 Z M 558 380 " clip-rule="nonzero"/></clipPath><clipPath id="99a7043737"><path d="M 365 264.589844 L 379 264.589844 L 379 278 L 365 278 Z M 365 264.589844 " clip-rule="nonzero"/></clipPath><clipPath id="9442fe9d84"><path d="M 558 367 L 577.871094 367 L 577.871094 381 L 558 381 Z M 558 367 " clip-rule="nonzero"/></clipPath><clipPath id="b4b7ab59d6"><path d="M 378 264.589844 L 392 264.589844 L 392 272 L 378 272 Z M 378 264.589844 " clip-rule="nonzero"/></clipPath></defs><g clip-path="url(#2e1abba867)"><path fill="#ff999a" d="M 571.351562 374.113281 L 571.351562 367.671875 L 564.914062 367.671875 L 564.914062 361.226562 L 552.039062 361.226562 L 552.039062 354.785156 L 519.855469 354.785156 L 519.855469 361.226562 L 506.980469 361.226562 L 506.980469 348.34375 L 500.542969 348.34375 L 500.542969 341.898438 L 494.105469 341.898438 L 494.105469 335.457031 L 487.667969 335.457031 L 487.667969 329.015625 L 455.480469 329.015625 L 455.480469 316.128906 L 449.042969 316.128906 L 449.042969 303.246094 L 442.605469 303.246094 L 442.605469 296.800781 L 436.171875 296.800781 L 436.171875 290.359375 L 429.734375 290.359375 L 429.734375 283.917969 L 403.984375 283.917969 L 403.984375 277.476562 L 397.546875 277.476562 L 397.546875 271.03125 L 391.109375 271.03125 L 391.109375 264.589844 L 365.359375 264.589844 L 365.359375 271.03125 L 352.488281 271.03125 L 352.488281 277.476562 L 320.300781 277.476562 L 320.300781 283.917969 L 313.863281 283.917969 L 313.863281 290.359375 L 307.425781 290.359375 L 307.425781 296.800781 L 300.988281 296.800781 L 300.988281 322.574219 L 294.550781 322.574219 L 294.550781 329.015625 L 288.113281 329.015625 L 288.113281 341.898438 L 281.675781 341.898438 L 281.675781 335.457031 L 262.367188 335.457031 L 262.367188 341.898438 L 255.929688 341.898438 L 255.929688 348.34375 L 249.492188 348.34375 L 249.492188 354.785156 L 243.054688 354.785156 L 243.054688 367.671875 L 230.179688 367.671875 L 230.179688 374.113281 L 217.304688 374.113281 L 217.304688 380.554688 L 210.867188 380.554688 L 210.867188 374.113281 L 191.554688 374.113281 L 191.554688 380.554688 L 178.683594 380.554688 L 178.683594 386.996094 L 172.246094 386.996094 L 172.246094 399.882812 L 178.683594 399.882812 L 178.683594 406.324219 L 564.914062 406.324219 L 564.914062 399.882812 L 571.351562 399.882812 L 571.351562 386.996094 L 577.789062 386.996094 L 577.789062 374.113281 Z M 571.351562 374.113281 " fill-opacity="1" fill-rule="nonzero"/></g><path fill="#5561d3" d="M 352.488281 296.800781 L 352.488281 277.476562 L 346.050781 277.476562 L 346.050781 290.359375 L 339.613281 290.359375 L 339.613281 309.6875 L 346.050781 309.6875 L 346.050781 296.800781 Z M 352.488281 296.800781 " fill-opacity="1" fill-rule="nonzero"/><path fill="#5561d3" d="M 352.488281 271.03125 L 365.359375 271.03125 L 365.359375 277.476562 L 352.488281 277.476562 Z M 352.488281 271.03125 " fill-opacity="1" fill-rule="nonzero"/><path fill="#5561d3" d="M 346.050781 309.6875 L 352.488281 309.6875 L 352.488281 322.574219 L 346.050781 322.574219 Z M 346.050781 309.6875 " fill-opacity="1" fill-rule="nonzero"/><path fill="#5561d3" d="M 371.796875 335.457031 L 371.796875 329.015625 L 365.359375 329.015625 L 365.359375 322.574219 L 352.488281 322.574219 L 352.488281 329.015625 L 358.921875 329.015625 L 358.921875 335.457031 L 365.359375 335.457031 L 365.359375 341.898438 L 378.234375 341.898438 L 378.234375 335.457031 Z M 371.796875 335.457031 " fill-opacity="1" fill-rule="nonzero"/><path fill="#5561d3" d="M 397.546875 283.917969 L 410.421875 283.917969 L 410.421875 290.359375 L 397.546875 290.359375 Z M 397.546875 283.917969 " fill-opacity="1" fill-rule="nonzero"/><path fill="#5561d3" d="M 391.109375 290.359375 L 397.546875 290.359375 L 397.546875 296.800781 L 391.109375 296.800781 Z M 391.109375 290.359375 " fill-opacity="1" fill-rule="nonzero"/><path fill="#5561d3" d="M 384.671875 296.800781 L 391.109375 296.800781 L 391.109375 316.128906 L 384.671875 316.128906 Z M 384.671875 296.800781 " fill-opacity="1" fill-rule="nonzero"/><path fill="#5561d3" d="M 391.109375 316.128906 L 397.546875 316.128906 L 397.546875 329.015625 L 391.109375 329.015625 Z M 391.109375 316.128906 " fill-opacity="1" fill-rule="nonzero"/><path fill="#5561d3" d="M 397.546875 329.015625 L 403.984375 329.015625 L 403.984375 335.457031 L 397.546875 335.457031 Z M 397.546875 329.015625 " fill-opacity="1" fill-rule="nonzero"/><path fill="#5561d3" d="M 403.984375 335.457031 L 416.859375 335.457031 L 416.859375 341.898438 L 403.984375 341.898438 Z M 403.984375 335.457031 " fill-opacity="1" fill-rule="nonzero"/><path fill="#5561d3" d="M 416.859375 341.898438 L 429.734375 341.898438 L 429.734375 348.34375 L 416.859375 348.34375 Z M 416.859375 341.898438 " fill-opacity="1" fill-rule="nonzero"/><path fill="#5561d3" d="M 429.734375 335.457031 L 442.605469 335.457031 L 442.605469 341.898438 L 429.734375 341.898438 Z M 429.734375 335.457031 " fill-opacity="1" fill-rule="nonzero"/><g clip-path="url(#39c2e8405a)"><path fill="#5561d3" d="M 558.476562 386.996094 L 558.476562 393.441406 L 545.601562 393.441406 L 545.601562 386.996094 L 532.726562 386.996094 L 532.726562 380.554688 L 519.855469 380.554688 L 519.855469 374.113281 L 513.417969 374.113281 L 513.417969 361.226562 L 500.542969 361.226562 L 500.542969 367.671875 L 474.792969 367.671875 L 474.792969 374.113281 L 442.605469 374.113281 L 442.605469 367.671875 L 423.296875 367.671875 L 423.296875 361.226562 L 403.984375 361.226562 L 403.984375 354.785156 L 397.546875 354.785156 L 397.546875 348.34375 L 403.984375 348.34375 L 403.984375 341.898438 L 378.234375 341.898438 L 378.234375 348.34375 L 384.671875 348.34375 L 384.671875 354.785156 L 391.109375 354.785156 L 391.109375 361.226562 L 378.234375 361.226562 L 378.234375 367.671875 L 333.175781 367.671875 L 333.175781 361.226562 L 320.300781 361.226562 L 320.300781 354.785156 L 307.425781 354.785156 L 307.425781 348.34375 L 294.550781 348.34375 L 294.550781 335.457031 L 300.988281 335.457031 L 300.988281 322.574219 L 294.550781 322.574219 L 294.550781 329.015625 L 288.113281 329.015625 L 288.113281 354.785156 L 294.550781 354.785156 L 294.550781 361.226562 L 300.988281 361.226562 L 300.988281 367.671875 L 288.113281 367.671875 L 288.113281 374.113281 L 281.675781 374.113281 L 281.675781 386.996094 L 268.804688 386.996094 L 268.804688 380.554688 L 262.367188 380.554688 L 262.367188 374.113281 L 255.929688 374.113281 L 255.929688 367.671875 L 249.492188 367.671875 L 249.492188 354.785156 L 243.054688 354.785156 L 243.054688 367.671875 L 236.617188 367.671875 L 236.617188 380.554688 L 230.179688 380.554688 L 230.179688 386.996094 L 223.742188 386.996094 L 223.742188 393.441406 L 185.121094 393.441406 L 185.121094 380.554688 L 178.683594 380.554688 L 178.683594 386.996094 L 172.246094 386.996094 L 172.246094 399.882812 L 178.683594 399.882812 L 178.683594 406.324219 L 564.914062 406.324219 L 564.914062 399.882812 L 571.351562 399.882812 L 571.351562 386.996094 Z M 558.476562 386.996094 " fill-opacity="1" fill-rule="nonzero"/></g><path fill="#8e68e6" d="M 191.554688 380.554688 L 185.121094 380.554688 L 185.121094 393.441406 L 223.742188 393.441406 L 223.742188 386.996094 L 191.554688 386.996094 Z M 191.554688 380.554688 " fill-opacity="1" fill-rule="nonzero"/><path fill="#8e68e6" d="M 230.179688 367.671875 L 236.617188 367.671875 L 236.617188 380.554688 L 230.179688 380.554688 Z M 230.179688 367.671875 " fill-opacity="1" fill-rule="nonzero"/><path fill="#8e68e6" d="M 255.929688 361.226562 L 255.929688 348.34375 L 249.492188 348.34375 L 249.492188 367.671875 L 255.929688 367.671875 L 255.929688 374.113281 L 262.367188 374.113281 L 262.367188 361.226562 Z M 255.929688 361.226562 " fill-opacity="1" fill-rule="nonzero"/><path fill="#8e68e6" d="M 262.367188 374.113281 L 262.367188 380.554688 L 268.804688 380.554688 L 268.804688 386.996094 L 281.675781 386.996094 L 281.675781 374.113281 Z M 262.367188 374.113281 " fill-opacity="1" fill-rule="nonzero"/><path fill="#8e68e6" d="M 313.863281 348.34375 L 313.863281 341.898438 L 307.425781 341.898438 L 307.425781 316.128906 L 300.988281 316.128906 L 300.988281 335.457031 L 294.550781 335.457031 L 294.550781 348.34375 L 307.425781 348.34375 L 307.425781 354.785156 L 320.300781 354.785156 L 320.300781 348.34375 Z M 313.863281 348.34375 " fill-opacity="1" fill-rule="nonzero"/><path fill="#8e68e6" d="M 333.175781 354.785156 L 320.300781 354.785156 L 320.300781 367.671875 L 333.175781 367.671875 L 333.175781 374.113281 L 378.234375 374.113281 L 378.234375 361.226562 L 333.175781 361.226562 Z M 333.175781 354.785156 " fill-opacity="1" fill-rule="nonzero"/><path fill="#8e68e6" d="M 378.234375 354.785156 L 391.109375 354.785156 L 391.109375 361.226562 L 378.234375 361.226562 Z M 378.234375 354.785156 " fill-opacity="1" fill-rule="nonzero"/><path fill="#8e68e6" d="M 358.921875 380.554688 L 365.359375 380.554688 L 365.359375 386.996094 L 358.921875 386.996094 Z M 358.921875 380.554688 " fill-opacity="1" fill-rule="nonzero"/><path fill="#8e68e6" d="M 384.671875 367.671875 L 397.546875 367.671875 L 397.546875 380.554688 L 384.671875 380.554688 Z M 384.671875 367.671875 " fill-opacity="1" fill-rule="nonzero"/><path fill="#8e68e6" d="M 294.550781 374.113281 L 307.425781 374.113281 L 307.425781 386.996094 L 294.550781 386.996094 Z M 294.550781 374.113281 " fill-opacity="1" fill-rule="nonzero"/><path fill="#8e68e6" d="M 243.054688 374.113281 L 249.492188 374.113281 L 249.492188 380.554688 L 243.054688 380.554688 Z M 243.054688 374.113281 " fill-opacity="1" fill-rule="nonzero"/><path fill="#8e68e6" d="M 230.179688 386.996094 L 236.617188 386.996094 L 236.617188 393.441406 L 230.179688 393.441406 Z M 230.179688 386.996094 " fill-opacity="1" fill-rule="nonzero"/><path fill="#8e68e6" d="M 243.054688 386.996094 L 255.929688 386.996094 L 255.929688 399.882812 L 243.054688 399.882812 Z M 243.054688 386.996094 " fill-opacity="1" fill-rule="nonzero"/><path fill="#8e68e6" d="M 326.738281 374.113281 L 320.300781 374.113281 L 320.300781 386.996094 L 352.488281 386.996094 L 352.488281 380.554688 L 326.738281 380.554688 Z M 326.738281 374.113281 " fill-opacity="1" fill-rule="nonzero"/><path fill="#8e68e6" d="M 423.296875 374.113281 L 436.171875 374.113281 L 436.171875 380.554688 L 423.296875 380.554688 Z M 423.296875 374.113281 " fill-opacity="1" fill-rule="nonzero"/><path fill="#8e68e6" d="M 410.421875 354.785156 L 410.421875 341.898438 L 403.984375 341.898438 L 403.984375 348.34375 L 397.546875 348.34375 L 397.546875 354.785156 L 403.984375 354.785156 L 403.984375 361.226562 L 423.296875 361.226562 L 423.296875 354.785156 Z M 410.421875 354.785156 " fill-opacity="1" fill-rule="nonzero"/><path fill="#8e68e6" d="M 346.050781 296.800781 L 352.488281 296.800781 L 352.488281 309.6875 L 346.050781 309.6875 Z M 346.050781 296.800781 " fill-opacity="1" fill-rule="nonzero"/><path fill="#8e68e6" d="M 358.921875 316.128906 L 358.921875 309.6875 L 352.488281 309.6875 L 352.488281 322.574219 L 365.359375 322.574219 L 365.359375 316.128906 Z M 358.921875 316.128906 " fill-opacity="1" fill-rule="nonzero"/><path fill="#8e68e6" d="M 365.359375 322.574219 L 371.796875 322.574219 L 371.796875 329.015625 L 365.359375 329.015625 Z M 365.359375 322.574219 " fill-opacity="1" fill-rule="nonzero"/><path fill="#8e68e6" d="M 397.546875 335.457031 L 397.546875 329.015625 L 371.796875 329.015625 L 371.796875 335.457031 L 378.234375 335.457031 L 378.234375 341.898438 L 403.984375 341.898438 L 403.984375 335.457031 Z M 397.546875 335.457031 " fill-opacity="1" fill-rule="nonzero"/><path fill="#8e68e6" d="M 500.542969 361.226562 L 506.980469 361.226562 L 506.980469 348.34375 L 500.542969 348.34375 L 500.542969 354.785156 L 474.792969 354.785156 L 474.792969 361.226562 L 423.296875 361.226562 L 423.296875 367.671875 L 442.605469 367.671875 L 442.605469 374.113281 L 474.792969 374.113281 L 474.792969 367.671875 L 500.542969 367.671875 Z M 500.542969 361.226562 " fill-opacity="1" fill-rule="nonzero"/><path fill="#8e68e6" d="M 519.855469 367.671875 L 519.855469 361.226562 L 513.417969 361.226562 L 513.417969 374.113281 L 519.855469 374.113281 L 519.855469 380.554688 L 532.726562 380.554688 L 532.726562 367.671875 Z M 519.855469 367.671875 " fill-opacity="1" fill-rule="nonzero"/><path fill="#8e68e6" d="M 532.726562 380.554688 L 545.601562 380.554688 L 545.601562 386.996094 L 532.726562 386.996094 Z M 532.726562 380.554688 " fill-opacity="1" fill-rule="nonzero"/><path fill="#8e68e6" d="M 545.601562 386.996094 L 558.476562 386.996094 L 558.476562 393.441406 L 545.601562 393.441406 Z M 545.601562 386.996094 " fill-opacity="1" fill-rule="nonzero"/><g clip-path="url(#3d3978e6ba)"><path fill="#8e68e6" d="M 558.476562 380.554688 L 577.789062 380.554688 L 577.789062 386.996094 L 558.476562 386.996094 Z M 558.476562 380.554688 " fill-opacity="1" fill-rule="nonzero"/></g><path fill="#8e68e6" d="M 513.417969 380.554688 L 500.542969 380.554688 L 500.542969 386.996094 L 506.980469 386.996094 L 506.980469 393.441406 L 526.289062 393.441406 L 526.289062 386.996094 L 513.417969 386.996094 Z M 513.417969 380.554688 " fill-opacity="1" fill-rule="nonzero"/><path fill="#8e68e6" d="M 481.230469 374.113281 L 500.542969 374.113281 L 500.542969 380.554688 L 481.230469 380.554688 Z M 481.230469 374.113281 " fill-opacity="1" fill-rule="nonzero"/><path fill="#fb6ba2" d="M 326.738281 348.34375 L 326.738281 335.457031 L 320.300781 335.457031 L 320.300781 309.6875 L 307.425781 309.6875 L 307.425781 303.246094 L 313.863281 303.246094 L 313.863281 290.359375 L 307.425781 290.359375 L 307.425781 296.800781 L 300.988281 296.800781 L 300.988281 316.128906 L 307.425781 316.128906 L 307.425781 341.898438 L 313.863281 341.898438 L 313.863281 348.34375 L 320.300781 348.34375 L 320.300781 354.785156 L 333.175781 354.785156 L 333.175781 348.34375 Z M 326.738281 348.34375 " fill-opacity="1" fill-rule="nonzero"/><path fill="#fb6ba2" d="M 333.175781 354.785156 L 378.234375 354.785156 L 378.234375 361.226562 L 333.175781 361.226562 Z M 333.175781 354.785156 " fill-opacity="1" fill-rule="nonzero"/><path fill="#fb6ba2" d="M 326.738281 303.246094 L 326.738281 296.800781 L 320.300781 296.800781 L 320.300781 309.6875 L 326.738281 309.6875 Z M 326.738281 303.246094 " fill-opacity="1" fill-rule="nonzero"/><path fill="#fb6ba2" d="M 326.738281 290.359375 L 333.175781 290.359375 L 333.175781 296.800781 L 326.738281 296.800781 Z M 326.738281 290.359375 " fill-opacity="1" fill-rule="nonzero"/><path fill="#fb6ba2" d="M 378.234375 348.34375 L 384.671875 348.34375 L 384.671875 354.785156 L 378.234375 354.785156 Z M 378.234375 348.34375 " fill-opacity="1" fill-rule="nonzero"/><path fill="#fb6ba2" d="M 268.804688 361.226562 L 262.367188 361.226562 L 262.367188 374.113281 L 288.113281 374.113281 L 288.113281 367.671875 L 268.804688 367.671875 Z M 268.804688 361.226562 " fill-opacity="1" fill-rule="nonzero"/><path fill="#fb6ba2" d="M 197.992188 374.113281 L 191.554688 374.113281 L 191.554688 386.996094 L 210.867188 386.996094 L 210.867188 380.554688 L 197.992188 380.554688 Z M 197.992188 374.113281 " fill-opacity="1" fill-rule="nonzero"/><path fill="#fb6ba2" d="M 217.304688 380.554688 L 230.179688 380.554688 L 230.179688 386.996094 L 217.304688 386.996094 Z M 217.304688 380.554688 " fill-opacity="1" fill-rule="nonzero"/><g clip-path="url(#99a7043737)"><path fill="#fb6ba2" d="M 371.796875 271.03125 L 378.234375 271.03125 L 378.234375 264.589844 L 365.359375 264.589844 L 365.359375 277.476562 L 371.796875 277.476562 Z M 371.796875 271.03125 " fill-opacity="1" fill-rule="nonzero"/></g><path fill="#fb6ba2" d="M 358.921875 303.246094 L 358.921875 283.917969 L 365.359375 283.917969 L 365.359375 277.476562 L 352.488281 277.476562 L 352.488281 309.6875 L 358.921875 309.6875 L 358.921875 316.128906 L 365.359375 316.128906 L 365.359375 303.246094 Z M 358.921875 303.246094 " fill-opacity="1" fill-rule="nonzero"/><path fill="#fb6ba2" d="M 365.359375 316.128906 L 371.796875 316.128906 L 371.796875 322.574219 L 365.359375 322.574219 Z M 365.359375 316.128906 " fill-opacity="1" fill-rule="nonzero"/><path fill="#fb6ba2" d="M 371.796875 322.574219 L 391.109375 322.574219 L 391.109375 329.015625 L 371.796875 329.015625 Z M 371.796875 322.574219 " fill-opacity="1" fill-rule="nonzero"/><path fill="#fb6ba2" d="M 365.359375 290.359375 L 371.796875 290.359375 L 371.796875 296.800781 L 365.359375 296.800781 Z M 365.359375 290.359375 " fill-opacity="1" fill-rule="nonzero"/><path fill="#fb6ba2" d="M 268.804688 348.34375 L 268.804688 341.898438 L 275.238281 341.898438 L 275.238281 335.457031 L 262.367188 335.457031 L 262.367188 341.898438 L 255.929688 341.898438 L 255.929688 361.226562 L 262.367188 361.226562 L 262.367188 348.34375 Z M 268.804688 348.34375 " fill-opacity="1" fill-rule="nonzero"/><path fill="#fb6ba2" d="M 294.550781 354.785156 L 288.113281 354.785156 L 288.113281 367.671875 L 300.988281 367.671875 L 300.988281 361.226562 L 294.550781 361.226562 Z M 294.550781 354.785156 " fill-opacity="1" fill-rule="nonzero"/><path fill="#fb6ba2" d="M 281.675781 341.898438 L 288.113281 341.898438 L 288.113281 354.785156 L 281.675781 354.785156 Z M 281.675781 341.898438 " fill-opacity="1" fill-rule="nonzero"/><path fill="#fb6ba2" d="M 391.109375 296.800781 L 397.546875 296.800781 L 397.546875 316.128906 L 391.109375 316.128906 Z M 391.109375 296.800781 " fill-opacity="1" fill-rule="nonzero"/><path fill="#fb6ba2" d="M 397.546875 316.128906 L 403.984375 316.128906 L 403.984375 329.015625 L 397.546875 329.015625 Z M 397.546875 316.128906 " fill-opacity="1" fill-rule="nonzero"/><path fill="#fb6ba2" d="M 403.984375 329.015625 L 416.859375 329.015625 L 416.859375 335.457031 L 403.984375 335.457031 Z M 403.984375 329.015625 " fill-opacity="1" fill-rule="nonzero"/><path fill="#fb6ba2" d="M 416.859375 335.457031 L 429.734375 335.457031 L 429.734375 341.898438 L 416.859375 341.898438 Z M 416.859375 335.457031 " fill-opacity="1" fill-rule="nonzero"/><path fill="#fb6ba2" d="M 487.667969 348.34375 L 461.917969 348.34375 L 461.917969 354.785156 L 429.734375 354.785156 L 429.734375 348.34375 L 416.859375 348.34375 L 416.859375 341.898438 L 410.421875 341.898438 L 410.421875 354.785156 L 423.296875 354.785156 L 423.296875 361.226562 L 474.792969 361.226562 L 474.792969 354.785156 L 500.542969 354.785156 L 500.542969 341.898438 L 487.667969 341.898438 Z M 487.667969 348.34375 " fill-opacity="1" fill-rule="nonzero"/><path fill="#fb6ba2" d="M 429.734375 329.015625 L 442.605469 329.015625 L 442.605469 335.457031 L 429.734375 335.457031 Z M 429.734375 329.015625 " fill-opacity="1" fill-rule="nonzero"/><path fill="#fb6ba2" d="M 442.605469 322.574219 L 449.042969 322.574219 L 449.042969 329.015625 L 442.605469 329.015625 Z M 442.605469 322.574219 " fill-opacity="1" fill-rule="nonzero"/><path fill="#fb6ba2" d="M 526.289062 361.226562 L 526.289062 354.785156 L 519.855469 354.785156 L 519.855469 367.671875 L 532.726562 367.671875 L 532.726562 361.226562 Z M 526.289062 361.226562 " fill-opacity="1" fill-rule="nonzero"/><path fill="#fb6ba2" d="M 539.164062 374.113281 L 539.164062 367.671875 L 532.726562 367.671875 L 532.726562 380.554688 L 545.601562 380.554688 L 545.601562 374.113281 Z M 539.164062 374.113281 " fill-opacity="1" fill-rule="nonzero"/><path fill="#fb6ba2" d="M 545.601562 380.554688 L 558.476562 380.554688 L 558.476562 386.996094 L 545.601562 386.996094 Z M 545.601562 380.554688 " fill-opacity="1" fill-rule="nonzero"/><g clip-path="url(#9442fe9d84)"><path fill="#fb6ba2" d="M 571.351562 374.113281 L 571.351562 367.671875 L 564.914062 367.671875 L 564.914062 374.113281 L 558.476562 374.113281 L 558.476562 380.554688 L 577.789062 380.554688 L 577.789062 374.113281 Z M 571.351562 374.113281 " fill-opacity="1" fill-rule="nonzero"/></g><path fill="#fb6ba2" d="M 352.488281 329.015625 L 358.921875 329.015625 L 358.921875 335.457031 L 352.488281 335.457031 Z M 352.488281 329.015625 " fill-opacity="1" fill-rule="nonzero"/><path fill="#fb6ba2" d="M 358.921875 335.457031 L 365.359375 335.457031 L 365.359375 341.898438 L 358.921875 341.898438 Z M 358.921875 335.457031 " fill-opacity="1" fill-rule="nonzero"/><path fill="#fb6ba2" d="M 365.359375 341.898438 L 378.234375 341.898438 L 378.234375 348.34375 L 365.359375 348.34375 Z M 365.359375 341.898438 " fill-opacity="1" fill-rule="nonzero"/><path fill="#ffe14d" d="M 378.234375 277.476562 L 391.109375 277.476562 L 391.109375 283.917969 L 378.234375 283.917969 Z M 378.234375 277.476562 " fill-opacity="1" fill-rule="nonzero"/><path fill="#ffe14d" d="M 391.109375 271.03125 L 397.546875 271.03125 L 397.546875 277.476562 L 391.109375 277.476562 Z M 391.109375 271.03125 " fill-opacity="1" fill-rule="nonzero"/><path fill="#ffe14d" d="M 397.546875 277.476562 L 403.984375 277.476562 L 403.984375 283.917969 L 397.546875 283.917969 Z M 397.546875 277.476562 " fill-opacity="1" fill-rule="nonzero"/><path fill="#ffe14d" d="M 416.859375 283.917969 L 429.734375 283.917969 L 429.734375 290.359375 L 416.859375 290.359375 Z M 416.859375 283.917969 " fill-opacity="1" fill-rule="nonzero"/><path fill="#ffe14d" d="M 410.421875 296.800781 L 423.296875 296.800781 L 423.296875 303.246094 L 410.421875 303.246094 Z M 410.421875 296.800781 " fill-opacity="1" fill-rule="nonzero"/><path fill="#ffe14d" d="M 423.296875 309.6875 L 429.734375 309.6875 L 429.734375 316.128906 L 423.296875 316.128906 Z M 423.296875 309.6875 " fill-opacity="1" fill-rule="nonzero"/><path fill="#ffe14d" d="M 326.738281 277.476562 L 346.050781 277.476562 L 346.050781 283.917969 L 326.738281 283.917969 Z M 326.738281 277.476562 " fill-opacity="1" fill-rule="nonzero"/><g clip-path="url(#b4b7ab59d6)"><path fill="#ffe14d" d="M 378.234375 264.589844 L 391.109375 264.589844 L 391.109375 271.03125 L 378.234375 271.03125 Z M 378.234375 264.589844 " fill-opacity="1" fill-rule="nonzero"/></g><path fill="#ffe14d" d="M 429.734375 290.359375 L 436.171875 290.359375 L 436.171875 296.800781 L 429.734375 296.800781 Z M 429.734375 290.359375 " fill-opacity="1" fill-rule="nonzero"/><path fill="#ffe14d" d="M 442.605469 303.246094 L 449.042969 303.246094 L 449.042969 309.6875 L 442.605469 309.6875 Z M 442.605469 303.246094 " fill-opacity="1" fill-rule="nonzero"/><path fill="#ffe14d" d="M 539.164062 354.785156 L 552.039062 354.785156 L 552.039062 361.226562 L 539.164062 361.226562 Z M 539.164062 354.785156 " fill-opacity="1" fill-rule="nonzero"/><path fill="#ffe14d" d="M 552.039062 361.226562 L 564.914062 361.226562 L 564.914062 367.671875 L 552.039062 367.671875 Z M 552.039062 361.226562 " fill-opacity="1" fill-rule="nonzero"/><path fill="#ffe14d" d="M 449.042969 316.128906 L 455.480469 316.128906 L 455.480469 329.015625 L 449.042969 329.015625 Z M 449.042969 316.128906 " fill-opacity="1" fill-rule="nonzero"/><path fill="#ffe14d" d="M 455.480469 329.015625 L 474.792969 329.015625 L 474.792969 335.457031 L 455.480469 335.457031 Z M 455.480469 329.015625 " fill-opacity="1" fill-rule="nonzero"/><path fill="#ffe14d" d="M 481.230469 335.457031 L 487.667969 335.457031 L 487.667969 341.898438 L 481.230469 341.898438 Z M 481.230469 335.457031 " fill-opacity="1" fill-rule="nonzero"/><path fill="#ffe14d" d="M 449.042969 335.457031 L 455.480469 335.457031 L 455.480469 341.898438 L 449.042969 341.898438 Z M 449.042969 335.457031 " fill-opacity="1" fill-rule="nonzero"/><path fill="#ffe14d" d="M 403.984375 303.246094 L 410.421875 303.246094 L 410.421875 309.6875 L 403.984375 309.6875 Z M 403.984375 303.246094 " fill-opacity="1" fill-rule="nonzero"/></svg>
