<svg xmlns="http://www.w3.org/2000/svg" xmlns:xlink="http://www.w3.org/1999/xlink" width="1000" zoomAndPan="magnify" viewBox="0 0 750 757.92" height="1000" preserveAspectRatio="xMidYMid meet" version="1.0"><defs><clipPath id="455fb67e19"><path d="M 352.085938 352 L 402 352 L 402 393 L 352.085938 393 Z M 352.085938 352 " clip-rule="nonzero"/></clipPath><clipPath id="e39c482fd6"><path d="M 0.0859375 0.761719 L 49.277344 0.761719 L 49.277344 40.117188 L 0.0859375 40.117188 Z M 0.0859375 0.761719 " clip-rule="nonzero"/></clipPath><clipPath id="49b6b3f52a"><rect x="0" width="50" y="0" height="41"/></clipPath></defs><g clip-path="url(#455fb67e19)"><g transform="matrix(1, 0, 0, 1, 352, 352)"><g clip-path="url(#49b6b3f52a)"><g clip-path="url(#e39c482fd6)"><path fill="#fb83b1" d="M 9.921875 10.625 L 9.921875 0.796875 L 19.75 0.796875 L 19.75 10.625 L 29.582031 10.625 L 29.582031 0.796875 L 39.410156 0.796875 L 39.410156 10.625 L 49.238281 10.625 L 49.238281 20.457031 L 39.410156 20.457031 L 39.410156 30.285156 L 29.582031 30.285156 L 29.582031 40.117188 L 19.75 40.117188 L 19.75 30.285156 L 9.921875 30.285156 L 9.921875 20.457031 L 0.09375 20.457031 L 0.09375 10.625 Z M 9.921875 10.625 " fill-opacity="1" fill-rule="nonzero"/></g></g></g></g></svg>