<svg width="254" height="54" viewBox="0 0 254 54" fill="none" xmlns="http://www.w3.org/2000/svg">
<g clip-path="url(#clip0_103_615)">
<mask id="mask0_103_615" style="mask-type:luminance" maskUnits="userSpaceOnUse" x="0" y="-1" width="254" height="56">
<path d="M0.399414 -0.0625H253.662V54.3576H0.399414V-0.0625Z" fill="white"/>
</mask>
<g mask="url(#mask0_103_615)">
<path d="M253.477 20.9861V33.6698H249.297V42.1016H245.112V46.2814H240.932V50.5334H232.501V54.7132H21.5614V50.5334H13.1966V46.3484H9.01161V42.1686H4.69779V33.6698H0.512817V20.9861H4.69779V12.6213H8.87761V8.44145H13.0626V4.12247H21.4944V-0.0625H232.428V4.12247H240.865V8.30229H245.045V12.4873H249.23V20.9191H253.477V20.9861Z" fill="black"/>
</g>
<path d="M4.69775 33.6699V20.9861L8.94457 12.6214L13.1965 8.36938L21.5613 4.12256H232.428L240.793 8.36938L245.045 12.6214L249.297 20.9861V33.6699L245.045 42.1017L240.793 46.3485L232.428 50.5335H21.5613L13.1965 46.3485L8.94457 42.1017L4.69775 33.6699Z" fill="#35B2FE"/>
<path d="M232.428 4.12256V8.30238H21.5613V4.12256H232.428ZM13.1965 12.6214H21.6283V8.44153H13.1965V12.6214ZM21.5613 46.3485V42.1687H13.1965V46.3485H21.5613ZM8.94457 20.9861H13.1295V12.6214H8.94457V20.9861ZM13.1965 42.1017V33.6699H9.01157V42.1017H13.1965ZM4.69775 33.6699H8.87757V20.9861H4.69775V33.6699Z" fill="white"/>
<mask id="mask1_103_615" style="mask-type:luminance" maskUnits="userSpaceOnUse" x="0" y="-1" width="254" height="56">
<path d="M0.399414 -0.0625H253.662V54.3576H0.399414V-0.0625Z" fill="white"/>
</mask>
<g mask="url(#mask1_103_615)">
<path d="M21.5614 8.36929H13.1966V4.12247H21.6284V8.36929H21.5614ZM13.1966 8.36929H9.01161V12.5543H13.1966V8.36929ZM8.94461 42.1016V46.2814H13.1296V42.1016H8.94461ZM13.1966 46.3484V50.5334H21.6284V46.3484H13.1966ZM8.94461 12.6213H4.69779V21.0531H8.87761V12.6213H8.94461ZM4.69779 33.6698V42.1016H8.87761V33.6698H4.69779ZM0.512817 20.9861V33.6698H4.69779V20.9861H0.512817ZM232.428 50.5334H240.865V46.3484H232.428V50.5334ZM240.793 46.3484H244.978V42.1686H240.793V46.3484ZM245.045 12.6213V8.44145H240.865V12.6213H245.045ZM240.793 8.36929V4.12247H232.361V8.30229H240.793V8.36929ZM245.045 42.1016H249.23V33.6698H245.045V42.1016ZM249.297 20.9861V12.6213H245.112V21.0531H249.297V20.9861ZM249.297 20.9861V33.6698H253.477V20.9861H249.297ZM219.75 4.12247H232.428V-0.0625H21.5614V4.12247H219.75ZM34.24 50.5334H21.5614V54.7132H232.428V50.5334H34.24Z" fill="black"/>
</g>
<mask id="mask2_103_615" style="mask-type:luminance" maskUnits="userSpaceOnUse" x="-467" y="-540" width="1188" height="1200">
<path d="M720.73 -540H-466.73V660H720.73V-540Z" fill="black" fill-opacity="0.3"/>
</mask>
<g mask="url(#mask2_103_615)">
<mask id="mask3_103_615" style="mask-type:luminance" maskUnits="userSpaceOnUse" x="20" y="7" width="230" height="44">
<path d="M249.704 7.27686H20.1285V50.8171H249.704V7.27686Z" fill="white"/>
</mask>
<g mask="url(#mask3_103_615)">
<mask id="mask4_103_615" style="mask-type:luminance" maskUnits="userSpaceOnUse" x="21" y="8" width="229" height="43">
<path d="M21.448 8.01904H249.689V50.7656H21.448V8.01904Z" fill="white"/>
</mask>
<g mask="url(#mask4_103_615)">
<path d="M21.5614 46.3488H232.361V50.5337H21.5614V46.3488ZM232.428 46.3488H240.865V42.169H232.428V46.3488ZM232.428 8.36963V12.5546H240.865V8.36963H232.428ZM240.793 42.102H244.978V33.6702H240.793V42.102ZM240.793 12.6216V21.0534H244.978V12.6216H240.793ZM245.045 20.9864V33.6702H249.23V20.9864H245.045Z" fill="black"/>
</g>
</g>
</g>
</g>
<defs>
<clipPath id="clip0_103_615">
<rect width="254" height="54" fill="white"/>
</clipPath>
</defs>
</svg>
