<svg width="129" height="129" viewBox="0 0 129 129" fill="none" xmlns="http://www.w3.org/2000/svg">
<mask id="mask0_1_165" style="mask-type:luminance" maskUnits="userSpaceOnUse" x="0" y="0" width="129" height="129">
<path d="M0 0H128.631V128.631H0V0Z" fill="white"/>
</mask>
<g mask="url(#mask0_1_165)">
<mask id="mask1_1_165" style="mask-type:luminance" maskUnits="userSpaceOnUse" x="-1" y="-1" width="130" height="130">
<path d="M128.832 -0.618408H-0.468994V128.683H128.832V-0.618408Z" fill="white"/>
</mask>
<g mask="url(#mask1_1_165)">
<path d="M38.309 25.7283H19.0179V45.0193H38.309V25.7283Z" fill="#F9EBAA"/>
<path d="M109.057 83.6118H89.7605V102.903H109.057V83.6118Z" fill="#F9EBAA"/>
<path d="M25.45 12.8641H31.8821V32.1604H44.7411V38.5873H31.8821V57.8835H25.45V38.5873H12.5858V32.1604H25.45V12.8641Z" fill="#F6DB6E"/>
<mask id="mask2_1_165" style="mask-type:luminance" maskUnits="userSpaceOnUse" x="0" y="31" width="8" height="8">
<path d="M-7.62939e-06 31.0471H7.44739V38.9635H-7.62939e-06V31.0471Z" fill="white"/>
</mask>
<g mask="url(#mask2_1_165)">
<path d="M6.15376 32.1604H-0.278313V38.5873H6.15376V32.1604Z" fill="#F6DB6E"/>
</g>
<path d="M57.6052 32.1604H51.1731V38.5873H57.6052V32.1604Z" fill="#F6DB6E"/>
<mask id="mask3_1_165" style="mask-type:luminance" maskUnits="userSpaceOnUse" x="24" y="0" width="9" height="8">
<path d="M24.5996 0H32.516V7.29793H24.5996V0Z" fill="white"/>
</mask>
<g mask="url(#mask3_1_165)">
<path d="M31.8821 0H25.45V6.43208H31.8821V0Z" fill="#F6DB6E"/>
</g>
<path d="M31.8821 64.3157H25.45V70.7478H31.8821V64.3157Z" fill="#F6DB6E"/>
<path d="M96.1925 70.7477H102.625V90.0388H115.489V96.4708H102.625V115.767H96.1925V96.4708H83.3335V90.0388H96.1925V70.7477Z" fill="#F6DB6E"/>
<path d="M76.9015 90.0388H70.4694V96.4709H76.9015V90.0388Z" fill="#F6DB6E"/>
<mask id="mask4_1_165" style="mask-type:luminance" maskUnits="userSpaceOnUse" x="120" y="89" width="9" height="9">
<path d="M120.916 89.1008H128.353V97.0172H120.916V89.1008Z" fill="white"/>
</mask>
<g mask="url(#mask4_1_165)">
<path d="M128.353 90.0388H121.921V96.4709H128.353V90.0388Z" fill="#F6DB6E"/>
</g>
<path d="M102.625 57.8835H96.1925V64.3156H102.625V57.8835Z" fill="#F6DB6E"/>
<mask id="mask5_1_165" style="mask-type:luminance" maskUnits="userSpaceOnUse" x="95" y="122" width="9" height="7">
<path d="M95.8472 122.086H103.764V128.631H95.8472V122.086Z" fill="white"/>
</mask>
<g mask="url(#mask5_1_165)">
<path d="M102.625 122.199H96.1925V128.631H102.625V122.199Z" fill="#F6DB6E"/>
</g>
</g>
</g>
</svg>
