<svg xmlns="http://www.w3.org/2000/svg" xmlns:xlink="http://www.w3.org/1999/xlink" width="1000" zoomAndPan="magnify" viewBox="0 0 750 757.92" height="1000" preserveAspectRatio="xMidYMid meet" version="1.0"><defs><clipPath id="979b2aac36"><path d="M 326.355469 287.46875 L 423.847656 287.46875 L 423.847656 384.960938 L 326.355469 384.960938 Z M 326.355469 287.46875 " clip-rule="nonzero"/></clipPath><clipPath id="04da56cbf9"><path d="M 0.355469 24 L 6 24 L 6 30 L 0.355469 30 Z M 0.355469 24 " clip-rule="nonzero"/></clipPath><clipPath id="bff04b2ac8"><path d="M 19 0.46875 L 25 0.46875 L 25 6 L 19 6 Z M 19 0.46875 " clip-rule="nonzero"/></clipPath><clipPath id="f9882e12cc"><path d="M 92 68 L 97.636719 68 L 97.636719 74 L 92 74 Z M 92 68 " clip-rule="nonzero"/></clipPath><clipPath id="f9b0955f6a"><path d="M 73 93 L 79 93 L 79 97.960938 L 73 97.960938 Z M 73 93 " clip-rule="nonzero"/></clipPath><clipPath id="107cb3fe6e"><rect x="0" width="98" y="0" height="98"/></clipPath></defs><g clip-path="url(#979b2aac36)"><g transform="matrix(1, 0, 0, 1, 326, 287)"><g clip-path="url(#107cb3fe6e)"><path fill="#f9ebaa" d="M 29.390625 19.96875 L 14.769531 19.96875 L 14.769531 34.589844 L 29.390625 34.589844 Z M 29.390625 19.96875 " fill-opacity="1" fill-rule="nonzero"/><path fill="#f9ebaa" d="M 83.011719 63.839844 L 68.386719 63.839844 L 68.386719 78.460938 L 83.011719 78.460938 Z M 83.011719 63.839844 " fill-opacity="1" fill-rule="nonzero"/><path fill="#f6db6e" d="M 19.644531 10.21875 L 24.519531 10.21875 L 24.519531 24.84375 L 34.265625 24.84375 L 34.265625 29.714844 L 24.519531 29.714844 L 24.519531 44.339844 L 19.644531 44.339844 L 19.644531 29.714844 L 9.894531 29.714844 L 9.894531 24.84375 L 19.644531 24.84375 Z M 19.644531 10.21875 " fill-opacity="1" fill-rule="nonzero"/><g clip-path="url(#04da56cbf9)"><path fill="#f6db6e" d="M 5.019531 24.84375 L 0.144531 24.84375 L 0.144531 29.714844 L 5.019531 29.714844 Z M 5.019531 24.84375 " fill-opacity="1" fill-rule="nonzero"/></g><path fill="#f6db6e" d="M 44.015625 24.84375 L 39.140625 24.84375 L 39.140625 29.714844 L 44.015625 29.714844 Z M 44.015625 24.84375 " fill-opacity="1" fill-rule="nonzero"/><g clip-path="url(#bff04b2ac8)"><path fill="#f6db6e" d="M 24.519531 0.46875 L 19.644531 0.46875 L 19.644531 5.34375 L 24.519531 5.34375 Z M 24.519531 0.46875 " fill-opacity="1" fill-rule="nonzero"/></g><path fill="#f6db6e" d="M 24.519531 49.214844 L 19.644531 49.214844 L 19.644531 54.089844 L 24.519531 54.089844 Z M 24.519531 49.214844 " fill-opacity="1" fill-rule="nonzero"/><path fill="#f6db6e" d="M 73.261719 54.089844 L 78.136719 54.089844 L 78.136719 68.710938 L 87.886719 68.710938 L 87.886719 73.585938 L 78.136719 73.585938 L 78.136719 88.210938 L 73.261719 88.210938 L 73.261719 73.585938 L 63.515625 73.585938 L 63.515625 68.710938 L 73.261719 68.710938 Z M 73.261719 54.089844 " fill-opacity="1" fill-rule="nonzero"/><path fill="#f6db6e" d="M 58.640625 68.710938 L 53.765625 68.710938 L 53.765625 73.585938 L 58.640625 73.585938 Z M 58.640625 68.710938 " fill-opacity="1" fill-rule="nonzero"/><g clip-path="url(#f9882e12cc)"><path fill="#f6db6e" d="M 97.636719 68.710938 L 92.761719 68.710938 L 92.761719 73.585938 L 97.636719 73.585938 Z M 97.636719 68.710938 " fill-opacity="1" fill-rule="nonzero"/></g><path fill="#f6db6e" d="M 78.136719 44.339844 L 73.261719 44.339844 L 73.261719 49.214844 L 78.136719 49.214844 Z M 78.136719 44.339844 " fill-opacity="1" fill-rule="nonzero"/><g clip-path="url(#f9b0955f6a)"><path fill="#f6db6e" d="M 78.136719 93.085938 L 73.261719 93.085938 L 73.261719 97.960938 L 78.136719 97.960938 Z M 78.136719 93.085938 " fill-opacity="1" fill-rule="nonzero"/></g></g></g></g></svg>