<svg xmlns="http://www.w3.org/2000/svg" xmlns:xlink="http://www.w3.org/1999/xlink" width="1000" zoomAndPan="magnify" viewBox="0 0 750 757.92" height="1000" preserveAspectRatio="xMidYMid meet" version="1.0"><defs><clipPath id="ba006756a5"><path d="M 87.03125 279.089844 L 662.96875 279.089844 L 662.96875 419.324219 L 87.03125 419.324219 Z M 87.03125 279.089844 " clip-rule="nonzero"/></clipPath><clipPath id="3d556a5a86"><path d="M 0.03125 0.0898438 L 575.96875 0.0898438 L 575.96875 140.324219 L 0.03125 140.324219 Z M 0.03125 0.0898438 " clip-rule="nonzero"/></clipPath><clipPath id="808236c589"><path d="M 7 0.0898438 L 575.96875 0.0898438 L 575.96875 140.324219 L 7 140.324219 Z M 7 0.0898438 " clip-rule="nonzero"/></clipPath><clipPath id="88a8fe68fa"><path d="M 0.03125 109 L 8 109 L 8 125 L 0.03125 125 Z M 0.03125 109 " clip-rule="nonzero"/></clipPath><clipPath id="5e59bcd85d"><path d="M 272 0.0898438 L 296 0.0898438 L 296 8 L 272 8 Z M 272 0.0898438 " clip-rule="nonzero"/></clipPath><clipPath id="6ed6c0a590"><rect x="0" width="576" y="0" height="141"/></clipPath><clipPath id="388cecd8b6"><path d="M 252.15625 270.285156 L 294.898438 270.285156 L 294.898438 313.03125 L 252.15625 313.03125 Z M 252.15625 270.285156 " clip-rule="nonzero"/></clipPath></defs><g clip-path="url(#ba006756a5)"><g transform="matrix(1, 0, 0, 1, 87, 279)"><g clip-path="url(#6ed6c0a590)"><g clip-path="url(#3d556a5a86)"><path fill="#bfebf4" d="M 7.8125 109.101562 L 7.8125 101.320312 L 15.597656 101.320312 L 15.597656 93.542969 L 23.378906 93.542969 L 23.378906 85.765625 L 46.726562 85.765625 L 46.726562 93.542969 L 54.511719 93.542969 L 54.511719 101.320312 L 62.292969 101.320312 L 62.292969 93.542969 L 54.511719 93.542969 L 54.511719 77.988281 L 62.292969 77.988281 L 62.292969 70.207031 L 70.078125 70.207031 L 70.078125 62.429688 L 85.644531 62.429688 L 85.644531 70.207031 L 101.207031 70.207031 L 101.207031 62.429688 L 108.992188 62.429688 L 108.992188 54.652344 L 147.90625 54.652344 L 147.90625 62.429688 L 155.691406 62.429688 L 155.691406 70.207031 L 163.472656 70.207031 L 163.472656 77.988281 L 186.820312 77.988281 L 186.820312 85.765625 L 202.386719 85.765625 L 202.386719 77.988281 L 210.171875 77.988281 L 210.171875 62.429688 L 202.386719 62.429688 L 202.386719 46.871094 L 210.171875 46.871094 L 210.171875 39.09375 L 217.953125 39.09375 L 217.953125 31.316406 L 225.734375 31.316406 L 225.734375 23.539062 L 256.867188 23.539062 L 256.867188 15.757812 L 264.652344 15.757812 L 264.652344 7.980469 L 272.433594 7.980469 L 272.433594 0.203125 L 319.132812 0.203125 L 319.132812 7.980469 L 326.914062 7.980469 L 326.914062 15.757812 L 334.699219 15.757812 L 334.699219 31.316406 L 350.265625 31.316406 L 350.265625 39.09375 L 358.046875 39.09375 L 358.046875 46.871094 L 365.828125 46.871094 L 365.828125 54.652344 L 373.613281 54.652344 L 373.613281 70.207031 L 365.828125 70.207031 L 365.828125 77.988281 L 358.046875 77.988281 L 358.046875 85.765625 L 365.828125 85.765625 L 365.828125 101.320312 L 373.613281 101.320312 L 373.613281 93.542969 L 389.179688 93.542969 L 389.179688 85.765625 L 396.960938 85.765625 L 396.960938 70.207031 L 389.179688 70.207031 L 389.179688 54.652344 L 396.960938 54.652344 L 396.960938 39.09375 L 404.746094 39.09375 L 404.746094 31.316406 L 420.308594 31.316406 L 420.308594 23.539062 L 451.441406 23.539062 L 451.441406 31.316406 L 467.007812 31.316406 L 467.007812 39.09375 L 482.574219 39.09375 L 482.574219 46.871094 L 490.355469 46.871094 L 490.355469 54.652344 L 498.140625 54.652344 L 498.140625 62.429688 L 513.707031 62.429688 L 513.707031 70.207031 L 521.488281 70.207031 L 521.488281 77.988281 L 552.621094 77.988281 L 552.621094 85.765625 L 560.402344 85.765625 L 560.402344 93.542969 L 568.1875 93.542969 L 568.1875 116.878906 L 575.96875 116.878906 L 575.96875 132.433594 L 568.1875 132.433594 L 568.1875 140.214844 L 7.8125 140.214844 L 7.8125 132.433594 L 0.03125 132.433594 L 0.03125 109.101562 Z M 7.8125 109.101562 " fill-opacity="1" fill-rule="nonzero"/></g><path fill="#7c9ae0" d="M 467.007812 62.429688 L 474.792969 62.429688 L 474.792969 46.871094 L 467.007812 46.871094 L 467.007812 39.09375 L 482.574219 39.09375 L 482.574219 70.207031 L 474.792969 70.207031 L 474.792969 77.988281 L 467.007812 77.988281 Z M 467.007812 62.429688 " fill-opacity="1" fill-rule="nonzero"/><path fill="#7c9ae0" d="M 467.007812 77.988281 L 459.226562 77.988281 L 459.226562 85.765625 L 467.007812 85.765625 Z M 467.007812 77.988281 " fill-opacity="1" fill-rule="nonzero"/><path fill="#7c9ae0" d="M 459.226562 70.207031 L 443.660156 70.207031 L 443.660156 77.988281 L 459.226562 77.988281 Z M 459.226562 70.207031 " fill-opacity="1" fill-rule="nonzero"/><path fill="#7c9ae0" d="M 443.660156 62.429688 L 428.09375 62.429688 L 428.09375 70.207031 L 443.660156 70.207031 Z M 443.660156 62.429688 " fill-opacity="1" fill-rule="nonzero"/><path fill="#7c9ae0" d="M 428.09375 70.207031 L 420.308594 70.207031 L 420.308594 77.988281 L 428.09375 77.988281 Z M 428.09375 70.207031 " fill-opacity="1" fill-rule="nonzero"/><path fill="#7c9ae0" d="M 521.488281 77.988281 L 513.707031 77.988281 L 513.707031 85.765625 L 521.488281 85.765625 Z M 521.488281 77.988281 " fill-opacity="1" fill-rule="nonzero"/><path fill="#7c9ae0" d="M 529.273438 85.765625 L 521.488281 85.765625 L 521.488281 93.542969 L 529.273438 93.542969 Z M 529.273438 85.765625 " fill-opacity="1" fill-rule="nonzero"/><path fill="#7c9ae0" d="M 537.054688 93.542969 L 529.273438 93.542969 L 529.273438 101.320312 L 537.054688 101.320312 Z M 537.054688 93.542969 " fill-opacity="1" fill-rule="nonzero"/><path fill="#7c9ae0" d="M 529.273438 101.320312 L 521.488281 101.320312 L 521.488281 116.878906 L 529.273438 116.878906 Z M 529.273438 101.320312 " fill-opacity="1" fill-rule="nonzero"/><path fill="#7c9ae0" d="M 505.921875 109.101562 L 498.140625 109.101562 L 498.140625 116.878906 L 505.921875 116.878906 Z M 505.921875 109.101562 " fill-opacity="1" fill-rule="nonzero"/><path fill="#7c9ae0" d="M 498.140625 101.320312 L 490.355469 101.320312 L 490.355469 109.101562 L 498.140625 109.101562 Z M 498.140625 101.320312 " fill-opacity="1" fill-rule="nonzero"/><path fill="#7c9ae0" d="M 467.007812 93.542969 L 467.007812 85.765625 L 474.792969 85.765625 L 474.792969 93.542969 L 490.355469 93.542969 L 490.355469 101.320312 L 467.007812 101.320312 Z M 467.007812 93.542969 " fill-opacity="1" fill-rule="nonzero"/><path fill="#7c9ae0" d="M 467.007812 101.320312 L 459.226562 101.320312 L 459.226562 109.101562 L 467.007812 109.101562 Z M 467.007812 101.320312 " fill-opacity="1" fill-rule="nonzero"/><path fill="#7c9ae0" d="M 459.226562 109.101562 L 451.441406 109.101562 L 451.441406 116.878906 L 459.226562 116.878906 Z M 459.226562 109.101562 " fill-opacity="1" fill-rule="nonzero"/><path fill="#7c9ae0" d="M 428.09375 93.542969 L 412.527344 93.542969 L 412.527344 101.320312 L 428.09375 101.320312 Z M 428.09375 93.542969 " fill-opacity="1" fill-rule="nonzero"/><path fill="#7c9ae0" d="M 412.527344 85.765625 L 389.179688 85.765625 L 389.179688 93.542969 L 412.527344 93.542969 Z M 412.527344 85.765625 " fill-opacity="1" fill-rule="nonzero"/><path fill="#7c9ae0" d="M 373.613281 101.320312 L 365.828125 101.320312 L 365.828125 109.101562 L 373.613281 109.101562 Z M 373.613281 101.320312 " fill-opacity="1" fill-rule="nonzero"/><path fill="#7c9ae0" d="M 319.132812 39.09375 L 311.347656 39.09375 L 311.347656 46.871094 L 319.132812 46.871094 Z M 319.132812 39.09375 " fill-opacity="1" fill-rule="nonzero"/><path fill="#7c9ae0" d="M 560.402344 85.765625 L 552.621094 85.765625 L 552.621094 93.542969 L 560.402344 93.542969 Z M 560.402344 85.765625 " fill-opacity="1" fill-rule="nonzero"/><path fill="#7c9ae0" d="M 552.621094 77.988281 L 537.054688 77.988281 L 537.054688 85.765625 L 552.621094 85.765625 Z M 552.621094 77.988281 " fill-opacity="1" fill-rule="nonzero"/><path fill="#7c9ae0" d="M 272.433594 101.320312 L 264.652344 101.320312 L 264.652344 109.101562 L 272.433594 109.101562 Z M 272.433594 101.320312 " fill-opacity="1" fill-rule="nonzero"/><path fill="#7c9ae0" d="M 295.78125 77.988281 L 288 77.988281 L 288 85.765625 L 295.78125 85.765625 Z M 295.78125 77.988281 " fill-opacity="1" fill-rule="nonzero"/><path fill="#7c9ae0" d="M 303.566406 62.429688 L 295.78125 62.429688 L 295.78125 77.988281 L 303.566406 77.988281 Z M 303.566406 62.429688 " fill-opacity="1" fill-rule="nonzero"/><path fill="#7c9ae0" d="M 295.78125 46.871094 L 288 46.871094 L 288 62.429688 L 295.78125 62.429688 Z M 295.78125 46.871094 " fill-opacity="1" fill-rule="nonzero"/><path fill="#7c9ae0" d="M 288 39.09375 L 280.21875 39.09375 L 280.21875 46.871094 L 288 46.871094 Z M 288 39.09375 " fill-opacity="1" fill-rule="nonzero"/><path fill="#7c9ae0" d="M 280.21875 31.316406 L 264.652344 31.316406 L 264.652344 39.09375 L 280.21875 39.09375 Z M 280.21875 31.316406 " fill-opacity="1" fill-rule="nonzero"/><path fill="#7c9ae0" d="M 264.652344 23.539062 L 249.085938 23.539062 L 249.085938 31.316406 L 264.652344 31.316406 Z M 264.652344 23.539062 " fill-opacity="1" fill-rule="nonzero"/><path fill="#7c9ae0" d="M 280.21875 77.988281 L 272.433594 77.988281 L 272.433594 85.765625 L 280.21875 85.765625 Z M 280.21875 77.988281 " fill-opacity="1" fill-rule="nonzero"/><path fill="#7c9ae0" d="M 272.433594 70.207031 L 264.652344 70.207031 L 264.652344 77.988281 L 272.433594 77.988281 Z M 272.433594 70.207031 " fill-opacity="1" fill-rule="nonzero"/><path fill="#7c9ae0" d="M 264.652344 62.429688 L 241.300781 62.429688 L 241.300781 70.207031 L 264.652344 70.207031 Z M 264.652344 62.429688 " fill-opacity="1" fill-rule="nonzero"/><path fill="#7c9ae0" d="M 241.300781 70.207031 L 233.519531 70.207031 L 233.519531 77.988281 L 241.300781 77.988281 Z M 241.300781 70.207031 " fill-opacity="1" fill-rule="nonzero"/><path fill="#7c9ae0" d="M 233.519531 101.320312 L 225.734375 101.320312 L 225.734375 109.101562 L 233.519531 109.101562 Z M 233.519531 101.320312 " fill-opacity="1" fill-rule="nonzero"/><path fill="#7c9ae0" d="M 225.734375 93.542969 L 210.171875 93.542969 L 210.171875 101.320312 L 225.734375 101.320312 Z M 225.734375 93.542969 " fill-opacity="1" fill-rule="nonzero"/><path fill="#7c9ae0" d="M 210.171875 85.765625 L 194.605469 85.765625 L 194.605469 93.542969 L 210.171875 93.542969 Z M 210.171875 85.765625 " fill-opacity="1" fill-rule="nonzero"/><g clip-path="url(#808236c589)"><path fill="#7c9ae0" d="M 54.511719 132.433594 L 54.511719 124.65625 L 62.292969 124.65625 L 62.292969 109.101562 L 70.078125 109.101562 L 70.078125 132.433594 L 132.339844 132.433594 L 132.339844 124.65625 L 140.125 124.65625 L 140.125 109.101562 L 163.472656 109.101562 L 163.472656 116.878906 L 155.691406 116.878906 L 155.691406 124.65625 L 171.253906 124.65625 L 171.253906 132.433594 L 225.734375 132.433594 L 225.734375 124.65625 L 233.519531 124.65625 L 233.519531 109.101562 L 241.300781 109.101562 L 241.300781 116.878906 L 249.085938 116.878906 L 249.085938 124.65625 L 256.867188 124.65625 L 256.867188 132.433594 L 303.566406 132.433594 L 303.566406 124.65625 L 311.347656 124.65625 L 311.347656 116.878906 L 303.566406 116.878906 L 303.566406 109.101562 L 295.78125 109.101562 L 295.78125 101.320312 L 272.433594 101.320312 L 272.433594 93.542969 L 280.21875 93.542969 L 280.21875 85.765625 L 288 85.765625 L 288 93.542969 L 303.566406 93.542969 L 303.566406 101.320312 L 311.347656 101.320312 L 311.347656 109.101562 L 326.914062 109.101562 L 326.914062 93.542969 L 334.699219 93.542969 L 334.699219 70.207031 L 358.046875 70.207031 L 358.046875 54.652344 L 350.265625 54.652344 L 350.265625 46.871094 L 342.480469 46.871094 L 342.480469 39.09375 L 319.132812 39.09375 L 319.132812 15.757812 L 311.347656 15.757812 L 311.347656 7.980469 L 295.78125 7.980469 L 295.78125 0.203125 L 319.132812 0.203125 L 319.132812 7.980469 L 326.914062 7.980469 L 326.914062 15.757812 L 334.699219 15.757812 L 334.699219 31.316406 L 350.265625 31.316406 L 350.265625 39.09375 L 358.046875 39.09375 L 358.046875 46.871094 L 365.828125 46.871094 L 365.828125 54.652344 L 373.613281 54.652344 L 373.613281 70.207031 L 365.828125 70.207031 L 365.828125 77.988281 L 358.046875 77.988281 L 358.046875 85.765625 L 365.828125 85.765625 L 365.828125 101.320312 L 350.265625 101.320312 L 350.265625 93.542969 L 342.480469 93.542969 L 342.480469 109.101562 L 334.699219 109.101562 L 334.699219 124.65625 L 326.914062 124.65625 L 326.914062 132.433594 L 365.828125 132.433594 L 365.828125 124.65625 L 373.613281 124.65625 L 373.613281 109.101562 L 381.394531 109.101562 L 381.394531 116.878906 L 389.179688 116.878906 L 389.179688 132.433594 L 420.308594 132.433594 L 420.308594 124.65625 L 428.09375 124.65625 L 428.09375 101.320312 L 435.875 101.320312 L 435.875 116.878906 L 443.660156 116.878906 L 443.660156 132.433594 L 498.140625 132.433594 L 498.140625 124.65625 L 505.921875 124.65625 L 505.921875 116.878906 L 521.488281 116.878906 L 521.488281 124.65625 L 513.707031 124.65625 L 513.707031 132.433594 L 552.621094 132.433594 L 552.621094 124.65625 L 560.402344 124.65625 L 560.402344 116.878906 L 552.621094 116.878906 L 552.621094 109.101562 L 560.402344 109.101562 L 560.402344 93.542969 L 568.1875 93.542969 L 568.1875 116.878906 L 575.96875 116.878906 L 575.96875 132.433594 L 568.1875 132.433594 L 568.1875 140.214844 L 7.8125 140.214844 L 7.8125 132.433594 Z M 54.511719 132.433594 " fill-opacity="1" fill-rule="nonzero"/></g><path fill="#7c9ae0" d="M 467.007812 31.316406 L 459.226562 31.316406 L 459.226562 39.09375 L 467.007812 39.09375 Z M 467.007812 31.316406 " fill-opacity="1" fill-rule="nonzero"/><path fill="#7c9ae0" d="M 155.691406 77.988281 L 155.691406 70.207031 L 163.472656 70.207031 L 163.472656 85.765625 L 155.691406 85.765625 Z M 155.691406 77.988281 " fill-opacity="1" fill-rule="nonzero"/><path fill="#7c9ae0" d="M 171.253906 85.765625 L 163.472656 85.765625 L 163.472656 109.101562 L 171.253906 109.101562 Z M 171.253906 85.765625 " fill-opacity="1" fill-rule="nonzero"/><path fill="#7c9ae0" d="M 140.125 101.320312 L 132.339844 101.320312 L 132.339844 109.101562 L 140.125 109.101562 Z M 140.125 101.320312 " fill-opacity="1" fill-rule="nonzero"/><path fill="#7c9ae0" d="M 108.992188 93.542969 L 108.992188 85.765625 L 116.773438 85.765625 L 116.773438 93.542969 L 132.339844 93.542969 L 132.339844 101.320312 L 108.992188 101.320312 Z M 108.992188 93.542969 " fill-opacity="1" fill-rule="nonzero"/><path fill="#7c9ae0" d="M 108.992188 101.320312 L 101.207031 101.320312 L 101.207031 109.101562 L 108.992188 109.101562 Z M 108.992188 101.320312 " fill-opacity="1" fill-rule="nonzero"/><path fill="#7c9ae0" d="M 62.292969 101.320312 L 54.511719 101.320312 L 54.511719 109.101562 L 62.292969 109.101562 Z M 62.292969 101.320312 " fill-opacity="1" fill-rule="nonzero"/><path fill="#7c9ae0" d="M 108.992188 77.988281 L 101.207031 77.988281 L 101.207031 85.765625 L 108.992188 85.765625 Z M 108.992188 77.988281 " fill-opacity="1" fill-rule="nonzero"/><path fill="#7c9ae0" d="M 101.207031 70.207031 L 85.644531 70.207031 L 85.644531 77.988281 L 101.207031 77.988281 Z M 101.207031 70.207031 " fill-opacity="1" fill-rule="nonzero"/><path fill="#7c9ae0" d="M 155.691406 62.429688 L 147.90625 62.429688 L 147.90625 70.207031 L 155.691406 70.207031 Z M 155.691406 62.429688 " fill-opacity="1" fill-rule="nonzero"/><path fill="#d8bbff" d="M 459.226562 31.316406 L 451.441406 31.316406 L 451.441406 39.09375 L 459.226562 39.09375 Z M 459.226562 31.316406 " fill-opacity="1" fill-rule="nonzero"/><path fill="#d8bbff" d="M 443.660156 70.207031 L 443.660156 62.429688 L 451.441406 62.429688 L 451.441406 54.652344 L 459.226562 54.652344 L 459.226562 39.09375 L 467.007812 39.09375 L 467.007812 46.871094 L 474.792969 46.871094 L 474.792969 62.429688 L 467.007812 62.429688 L 467.007812 77.988281 L 459.226562 77.988281 L 459.226562 70.207031 Z M 443.660156 70.207031 " fill-opacity="1" fill-rule="nonzero"/><path fill="#d8bbff" d="M 443.660156 54.652344 L 428.09375 54.652344 L 428.09375 62.429688 L 443.660156 62.429688 Z M 443.660156 54.652344 " fill-opacity="1" fill-rule="nonzero"/><path fill="#d8bbff" d="M 467.007812 85.765625 L 459.226562 85.765625 L 459.226562 101.320312 L 467.007812 101.320312 Z M 467.007812 85.765625 " fill-opacity="1" fill-rule="nonzero"/><path fill="#d8bbff" d="M 459.226562 77.988281 L 443.660156 77.988281 L 443.660156 85.765625 L 459.226562 85.765625 Z M 459.226562 77.988281 " fill-opacity="1" fill-rule="nonzero"/><path fill="#d8bbff" d="M 459.226562 101.320312 L 459.226562 109.101562 L 451.441406 109.101562 L 451.441406 116.878906 L 435.875 116.878906 L 435.875 101.320312 Z M 459.226562 101.320312 " fill-opacity="1" fill-rule="nonzero"/><path fill="#d8bbff" d="M 435.875 93.542969 L 428.09375 93.542969 L 428.09375 101.320312 L 435.875 101.320312 Z M 435.875 93.542969 " fill-opacity="1" fill-rule="nonzero"/><path fill="#d8bbff" d="M 490.355469 116.878906 L 482.574219 116.878906 L 482.574219 109.101562 L 474.792969 109.101562 L 474.792969 101.320312 L 490.355469 101.320312 L 490.355469 109.101562 L 498.140625 109.101562 L 498.140625 116.878906 L 505.921875 116.878906 L 505.921875 124.65625 L 498.140625 124.65625 L 498.140625 132.433594 L 443.660156 132.433594 L 443.660156 124.65625 L 490.355469 124.65625 Z M 490.355469 116.878906 " fill-opacity="1" fill-rule="nonzero"/><path fill="#d8bbff" d="M 420.308594 124.65625 L 389.179688 124.65625 L 389.179688 132.433594 L 420.308594 132.433594 Z M 420.308594 124.65625 " fill-opacity="1" fill-rule="nonzero"/><path fill="#d8bbff" d="M 303.566406 124.65625 L 256.867188 124.65625 L 256.867188 132.433594 L 303.566406 132.433594 Z M 303.566406 124.65625 " fill-opacity="1" fill-rule="nonzero"/><path fill="#d8bbff" d="M 560.402344 116.878906 L 560.402344 124.65625 L 552.621094 124.65625 L 552.621094 132.433594 L 513.707031 132.433594 L 513.707031 124.65625 L 544.835938 124.65625 L 544.835938 109.101562 L 552.621094 109.101562 L 552.621094 116.878906 Z M 560.402344 116.878906 " fill-opacity="1" fill-rule="nonzero"/><path fill="#d8bbff" d="M 560.402344 93.542969 L 552.621094 93.542969 L 552.621094 109.101562 L 560.402344 109.101562 Z M 560.402344 93.542969 " fill-opacity="1" fill-rule="nonzero"/><path fill="#d8bbff" d="M 552.621094 85.765625 L 537.054688 85.765625 L 537.054688 93.542969 L 552.621094 93.542969 Z M 552.621094 85.765625 " fill-opacity="1" fill-rule="nonzero"/><path fill="#d8bbff" d="M 537.054688 77.988281 L 521.488281 77.988281 L 521.488281 85.765625 L 537.054688 85.765625 Z M 537.054688 77.988281 " fill-opacity="1" fill-rule="nonzero"/><path fill="#d8bbff" d="M 342.480469 39.09375 L 319.132812 39.09375 L 319.132812 46.871094 L 342.480469 46.871094 Z M 342.480469 39.09375 " fill-opacity="1" fill-rule="nonzero"/><path fill="#d8bbff" d="M 342.480469 62.429688 L 342.480469 46.871094 L 350.265625 46.871094 L 350.265625 54.652344 L 358.046875 54.652344 L 358.046875 70.207031 L 334.699219 70.207031 L 334.699219 62.429688 Z M 342.480469 62.429688 " fill-opacity="1" fill-rule="nonzero"/><path fill="#d8bbff" d="M 319.132812 85.765625 L 326.914062 85.765625 L 326.914062 70.207031 L 334.699219 70.207031 L 334.699219 93.542969 L 326.914062 93.542969 L 326.914062 109.101562 L 311.347656 109.101562 L 311.347656 101.320312 L 319.132812 101.320312 Z M 319.132812 85.765625 " fill-opacity="1" fill-rule="nonzero"/><path fill="#d8bbff" d="M 311.347656 93.542969 L 303.566406 93.542969 L 303.566406 101.320312 L 311.347656 101.320312 Z M 311.347656 93.542969 " fill-opacity="1" fill-rule="nonzero"/><path fill="#d8bbff" d="M 428.09375 101.320312 L 428.09375 124.65625 L 420.308594 124.65625 L 420.308594 109.101562 L 412.527344 109.101562 L 412.527344 101.320312 Z M 428.09375 101.320312 " fill-opacity="1" fill-rule="nonzero"/><path fill="#d8bbff" d="M 412.527344 93.542969 L 389.179688 93.542969 L 389.179688 101.320312 L 412.527344 101.320312 Z M 412.527344 93.542969 " fill-opacity="1" fill-rule="nonzero"/><path fill="#d8bbff" d="M 319.132812 77.988281 L 311.347656 77.988281 L 311.347656 85.765625 L 319.132812 85.765625 Z M 319.132812 77.988281 " fill-opacity="1" fill-rule="nonzero"/><path fill="#d8bbff" d="M 358.046875 116.878906 L 365.828125 116.878906 L 365.828125 132.433594 L 326.914062 132.433594 L 326.914062 124.65625 L 358.046875 124.65625 Z M 358.046875 116.878906 " fill-opacity="1" fill-rule="nonzero"/><path fill="#d8bbff" d="M 396.960938 109.101562 L 389.179688 109.101562 L 389.179688 116.878906 L 396.960938 116.878906 Z M 396.960938 109.101562 " fill-opacity="1" fill-rule="nonzero"/><path fill="#d8bbff" d="M 428.09375 46.871094 L 420.308594 46.871094 L 420.308594 54.652344 L 428.09375 54.652344 Z M 428.09375 46.871094 " fill-opacity="1" fill-rule="nonzero"/><path fill="#d8bbff" d="M 420.308594 62.429688 L 412.527344 62.429688 L 412.527344 70.207031 L 420.308594 70.207031 Z M 420.308594 62.429688 " fill-opacity="1" fill-rule="nonzero"/><path fill="#d8bbff" d="M 428.09375 85.765625 L 420.308594 85.765625 L 420.308594 93.542969 L 428.09375 93.542969 Z M 428.09375 85.765625 " fill-opacity="1" fill-rule="nonzero"/><path fill="#d8bbff" d="M 498.140625 109.101562 L 498.140625 101.320312 L 513.707031 101.320312 L 513.707031 85.765625 L 521.488281 85.765625 L 521.488281 93.542969 L 529.273438 93.542969 L 529.273438 101.320312 L 521.488281 101.320312 L 521.488281 116.878906 L 505.921875 116.878906 L 505.921875 109.101562 Z M 498.140625 109.101562 " fill-opacity="1" fill-rule="nonzero"/><path fill="#d8bbff" d="M 498.140625 93.542969 L 490.355469 93.542969 L 490.355469 101.320312 L 498.140625 101.320312 Z M 498.140625 93.542969 " fill-opacity="1" fill-rule="nonzero"/><path fill="#d8bbff" d="M 295.78125 62.429688 L 288 62.429688 L 288 77.988281 L 295.78125 77.988281 Z M 295.78125 62.429688 " fill-opacity="1" fill-rule="nonzero"/><path fill="#d8bbff" d="M 288 77.988281 L 280.21875 77.988281 L 280.21875 85.765625 L 288 85.765625 Z M 288 77.988281 " fill-opacity="1" fill-rule="nonzero"/><path fill="#d8bbff" d="M 217.953125 116.878906 L 217.953125 109.101562 L 210.171875 109.101562 L 210.171875 101.320312 L 225.734375 101.320312 L 225.734375 109.101562 L 233.519531 109.101562 L 233.519531 124.65625 L 225.734375 124.65625 L 225.734375 116.878906 Z M 217.953125 116.878906 " fill-opacity="1" fill-rule="nonzero"/><path fill="#d8bbff" d="M 171.253906 116.878906 L 171.253906 124.65625 L 155.691406 124.65625 L 155.691406 116.878906 L 163.472656 116.878906 L 163.472656 109.101562 L 171.253906 109.101562 Z M 171.253906 116.878906 " fill-opacity="1" fill-rule="nonzero"/><path fill="#d8bbff" d="M 210.171875 116.878906 L 217.953125 116.878906 L 217.953125 124.65625 L 225.734375 124.65625 L 225.734375 132.433594 L 171.253906 132.433594 L 171.253906 124.65625 L 210.171875 124.65625 Z M 210.171875 116.878906 " fill-opacity="1" fill-rule="nonzero"/><path fill="#d8bbff" d="M 295.78125 109.101562 L 288 109.101562 L 288 116.878906 L 295.78125 116.878906 Z M 295.78125 109.101562 " fill-opacity="1" fill-rule="nonzero"/><path fill="#d8bbff" d="M 280.21875 85.765625 L 272.433594 85.765625 L 272.433594 93.542969 L 280.21875 93.542969 Z M 280.21875 85.765625 " fill-opacity="1" fill-rule="nonzero"/><path fill="#d8bbff" d="M 272.433594 93.542969 L 264.652344 93.542969 L 264.652344 101.320312 L 272.433594 101.320312 Z M 272.433594 93.542969 " fill-opacity="1" fill-rule="nonzero"/><path fill="#d8bbff" d="M 272.433594 77.988281 L 264.652344 77.988281 L 264.652344 85.765625 L 272.433594 85.765625 Z M 272.433594 77.988281 " fill-opacity="1" fill-rule="nonzero"/><path fill="#d8bbff" d="M 147.90625 54.652344 L 140.125 54.652344 L 140.125 70.207031 L 147.90625 70.207031 Z M 147.90625 54.652344 " fill-opacity="1" fill-rule="nonzero"/><path fill="#d8bbff" d="M 155.691406 70.207031 L 147.90625 70.207031 L 147.90625 85.765625 L 155.691406 85.765625 Z M 155.691406 70.207031 " fill-opacity="1" fill-rule="nonzero"/><path fill="#d8bbff" d="M 155.691406 101.320312 L 155.691406 85.765625 L 163.472656 85.765625 L 163.472656 109.101562 L 140.125 109.101562 L 140.125 101.320312 Z M 155.691406 101.320312 " fill-opacity="1" fill-rule="nonzero"/><path fill="#d8bbff" d="M 140.125 93.542969 L 132.339844 93.542969 L 132.339844 101.320312 L 140.125 101.320312 Z M 140.125 93.542969 " fill-opacity="1" fill-rule="nonzero"/><path fill="#d8bbff" d="M 132.339844 85.765625 L 116.773438 85.765625 L 116.773438 93.542969 L 132.339844 93.542969 Z M 132.339844 85.765625 " fill-opacity="1" fill-rule="nonzero"/><path fill="#d8bbff" d="M 140.125 109.101562 L 132.339844 109.101562 L 132.339844 124.65625 L 140.125 124.65625 Z M 140.125 109.101562 " fill-opacity="1" fill-rule="nonzero"/><path fill="#d8bbff" d="M 140.125 77.988281 L 132.339844 77.988281 L 132.339844 85.765625 L 140.125 85.765625 Z M 140.125 77.988281 " fill-opacity="1" fill-rule="nonzero"/><path fill="#d8bbff" d="M 116.773438 77.988281 L 108.992188 77.988281 L 108.992188 85.765625 L 116.773438 85.765625 Z M 116.773438 77.988281 " fill-opacity="1" fill-rule="nonzero"/><path fill="#d8bbff" d="M 179.039062 85.765625 L 171.253906 85.765625 L 171.253906 93.542969 L 179.039062 93.542969 Z M 179.039062 85.765625 " fill-opacity="1" fill-rule="nonzero"/><path fill="#d8bbff" d="M 77.859375 124.65625 L 132.339844 124.65625 L 132.339844 132.433594 L 70.078125 132.433594 L 70.078125 109.101562 L 77.859375 109.101562 Z M 77.859375 124.65625 " fill-opacity="1" fill-rule="nonzero"/><path fill="#d8bbff" d="M 85.644531 101.320312 L 77.859375 101.320312 L 77.859375 109.101562 L 85.644531 109.101562 Z M 85.644531 101.320312 " fill-opacity="1" fill-rule="nonzero"/><path fill="#d8bbff" d="M 46.726562 101.320312 L 54.511719 101.320312 L 54.511719 109.101562 L 62.292969 109.101562 L 62.292969 124.65625 L 54.511719 124.65625 L 54.511719 132.433594 L 7.8125 132.433594 L 7.8125 124.65625 L 46.726562 124.65625 Z M 46.726562 101.320312 " fill-opacity="1" fill-rule="nonzero"/><g clip-path="url(#88a8fe68fa)"><path fill="#d8bbff" d="M 7.8125 109.101562 L 0.03125 109.101562 L 0.03125 124.65625 L 7.8125 124.65625 Z M 7.8125 109.101562 " fill-opacity="1" fill-rule="nonzero"/></g><path fill="#d8bbff" d="M 319.132812 15.757812 L 311.347656 15.757812 L 311.347656 39.09375 L 319.132812 39.09375 Z M 319.132812 15.757812 " fill-opacity="1" fill-rule="nonzero"/><path fill="#d8bbff" d="M 311.347656 7.980469 L 295.78125 7.980469 L 295.78125 15.757812 L 311.347656 15.757812 Z M 311.347656 7.980469 " fill-opacity="1" fill-rule="nonzero"/><path fill="#d8bbff" d="M 288 46.871094 L 280.21875 46.871094 L 280.21875 62.429688 L 288 62.429688 Z M 288 46.871094 " fill-opacity="1" fill-rule="nonzero"/><path fill="#d8bbff" d="M 280.21875 39.09375 L 272.433594 39.09375 L 272.433594 46.871094 L 280.21875 46.871094 Z M 280.21875 39.09375 " fill-opacity="1" fill-rule="nonzero"/><path fill="#d8bbff" d="M 264.652344 31.316406 L 256.867188 31.316406 L 256.867188 39.09375 L 264.652344 39.09375 Z M 264.652344 31.316406 " fill-opacity="1" fill-rule="nonzero"/><path fill="#d8bbff" d="M 498.140625 54.652344 L 490.355469 54.652344 L 490.355469 62.429688 L 498.140625 62.429688 Z M 498.140625 54.652344 " fill-opacity="1" fill-rule="nonzero"/><path fill="#d8bbff" d="M 521.488281 70.207031 L 513.707031 70.207031 L 513.707031 77.988281 L 521.488281 77.988281 Z M 521.488281 70.207031 " fill-opacity="1" fill-rule="nonzero"/><path fill="#d8bbff" d="M 513.707031 62.429688 L 498.140625 62.429688 L 498.140625 70.207031 L 513.707031 70.207031 Z M 513.707031 62.429688 " fill-opacity="1" fill-rule="nonzero"/><path fill="#f2fcfc" d="M 404.746094 39.09375 L 404.746094 31.316406 L 420.308594 31.316406 L 420.308594 23.539062 L 451.441406 23.539062 L 451.441406 31.316406 L 428.09375 31.316406 L 428.09375 39.09375 L 412.527344 39.09375 L 412.527344 46.871094 L 404.746094 46.871094 L 404.746094 54.652344 L 396.960938 54.652344 L 396.960938 39.09375 Z M 404.746094 39.09375 " fill-opacity="1" fill-rule="nonzero"/><path fill="#f2fcfc" d="M 396.960938 54.652344 L 389.179688 54.652344 L 389.179688 70.207031 L 396.960938 70.207031 Z M 396.960938 54.652344 " fill-opacity="1" fill-rule="nonzero"/><path fill="#f2fcfc" d="M 404.746094 70.207031 L 396.960938 70.207031 L 396.960938 85.765625 L 404.746094 85.765625 Z M 404.746094 70.207031 " fill-opacity="1" fill-rule="nonzero"/><path fill="#f2fcfc" d="M 474.792969 85.765625 L 467.007812 85.765625 L 467.007812 77.988281 L 474.792969 77.988281 L 474.792969 70.207031 L 482.574219 70.207031 L 482.574219 85.765625 L 490.355469 85.765625 L 490.355469 93.542969 L 474.792969 93.542969 Z M 474.792969 85.765625 " fill-opacity="1" fill-rule="nonzero"/><path fill="#f2fcfc" d="M 443.660156 70.207031 L 428.09375 70.207031 L 428.09375 77.988281 L 443.660156 77.988281 Z M 443.660156 70.207031 " fill-opacity="1" fill-rule="nonzero"/><path fill="#f2fcfc" d="M 389.179688 93.542969 L 373.613281 93.542969 L 373.613281 101.320312 L 389.179688 101.320312 Z M 389.179688 93.542969 " fill-opacity="1" fill-rule="nonzero"/><path fill="#f2fcfc" d="M 350.265625 93.542969 L 342.480469 93.542969 L 342.480469 101.320312 L 350.265625 101.320312 Z M 350.265625 93.542969 " fill-opacity="1" fill-rule="nonzero"/><path fill="#f2fcfc" d="M 365.828125 101.320312 L 350.265625 101.320312 L 350.265625 109.101562 L 365.828125 109.101562 Z M 365.828125 101.320312 " fill-opacity="1" fill-rule="nonzero"/><path fill="#f2fcfc" d="M 412.527344 62.429688 L 404.746094 62.429688 L 404.746094 70.207031 L 412.527344 70.207031 Z M 412.527344 62.429688 " fill-opacity="1" fill-rule="nonzero"/><path fill="#f2fcfc" d="M 435.875 39.09375 L 428.09375 39.09375 L 428.09375 46.871094 L 435.875 46.871094 Z M 435.875 39.09375 " fill-opacity="1" fill-rule="nonzero"/><path fill="#f2fcfc" d="M 272.433594 7.980469 L 264.652344 7.980469 L 264.652344 15.757812 L 272.433594 15.757812 Z M 272.433594 7.980469 " fill-opacity="1" fill-rule="nonzero"/><path fill="#f2fcfc" d="M 264.652344 15.757812 L 256.867188 15.757812 L 256.867188 23.539062 L 264.652344 23.539062 Z M 264.652344 15.757812 " fill-opacity="1" fill-rule="nonzero"/><path fill="#f2fcfc" d="M 272.433594 23.539062 L 264.652344 23.539062 L 264.652344 31.316406 L 272.433594 31.316406 Z M 272.433594 23.539062 " fill-opacity="1" fill-rule="nonzero"/><g clip-path="url(#5e59bcd85d)"><path fill="#f2fcfc" d="M 295.78125 0.203125 L 272.433594 0.203125 L 272.433594 7.980469 L 295.78125 7.980469 Z M 295.78125 0.203125 " fill-opacity="1" fill-rule="nonzero"/></g><path fill="#f2fcfc" d="M 249.085938 23.539062 L 225.734375 23.539062 L 225.734375 31.316406 L 249.085938 31.316406 Z M 249.085938 23.539062 " fill-opacity="1" fill-rule="nonzero"/><path fill="#f2fcfc" d="M 225.734375 31.316406 L 217.953125 31.316406 L 217.953125 39.09375 L 225.734375 39.09375 Z M 225.734375 31.316406 " fill-opacity="1" fill-rule="nonzero"/><path fill="#f2fcfc" d="M 233.519531 39.09375 L 225.734375 39.09375 L 225.734375 46.871094 L 233.519531 46.871094 Z M 233.519531 39.09375 " fill-opacity="1" fill-rule="nonzero"/><path fill="#f2fcfc" d="M 217.953125 39.09375 L 210.171875 39.09375 L 210.171875 46.871094 L 217.953125 46.871094 Z M 217.953125 39.09375 " fill-opacity="1" fill-rule="nonzero"/><path fill="#f2fcfc" d="M 210.171875 46.871094 L 202.386719 46.871094 L 202.386719 62.429688 L 210.171875 62.429688 Z M 210.171875 46.871094 " fill-opacity="1" fill-rule="nonzero"/><path fill="#f2fcfc" d="M 217.953125 62.429688 L 210.171875 62.429688 L 210.171875 77.988281 L 217.953125 77.988281 Z M 217.953125 62.429688 " fill-opacity="1" fill-rule="nonzero"/><path fill="#f2fcfc" d="M 210.171875 77.988281 L 202.386719 77.988281 L 202.386719 85.765625 L 210.171875 85.765625 Z M 210.171875 77.988281 " fill-opacity="1" fill-rule="nonzero"/><path fill="#f2fcfc" d="M 225.734375 54.652344 L 217.953125 54.652344 L 217.953125 62.429688 L 225.734375 62.429688 Z M 225.734375 54.652344 " fill-opacity="1" fill-rule="nonzero"/><path fill="#f2fcfc" d="M 264.652344 70.207031 L 241.300781 70.207031 L 241.300781 77.988281 L 264.652344 77.988281 Z M 264.652344 70.207031 " fill-opacity="1" fill-rule="nonzero"/><path fill="#f2fcfc" d="M 241.300781 77.988281 L 233.519531 77.988281 L 233.519531 85.765625 L 241.300781 85.765625 Z M 241.300781 77.988281 " fill-opacity="1" fill-rule="nonzero"/><path fill="#f2fcfc" d="M 186.820312 77.988281 L 163.472656 77.988281 L 163.472656 85.765625 L 186.820312 85.765625 Z M 186.820312 77.988281 " fill-opacity="1" fill-rule="nonzero"/><path fill="#f2fcfc" d="M 233.519531 93.542969 L 225.734375 93.542969 L 225.734375 101.320312 L 233.519531 101.320312 Z M 233.519531 93.542969 " fill-opacity="1" fill-rule="nonzero"/><path fill="#f2fcfc" d="M 241.300781 46.871094 L 233.519531 46.871094 L 233.519531 54.652344 L 241.300781 54.652344 Z M 241.300781 46.871094 " fill-opacity="1" fill-rule="nonzero"/><path fill="#f2fcfc" d="M 140.125 54.652344 L 108.992188 54.652344 L 108.992188 62.429688 L 140.125 62.429688 Z M 140.125 54.652344 " fill-opacity="1" fill-rule="nonzero"/><path fill="#f2fcfc" d="M 108.992188 62.429688 L 101.207031 62.429688 L 101.207031 70.207031 L 108.992188 70.207031 Z M 108.992188 62.429688 " fill-opacity="1" fill-rule="nonzero"/><path fill="#f2fcfc" d="M 116.773438 70.207031 L 108.992188 70.207031 L 108.992188 77.988281 L 116.773438 77.988281 Z M 116.773438 70.207031 " fill-opacity="1" fill-rule="nonzero"/><path fill="#f2fcfc" d="M 85.644531 62.429688 L 70.078125 62.429688 L 70.078125 70.207031 L 85.644531 70.207031 Z M 85.644531 62.429688 " fill-opacity="1" fill-rule="nonzero"/><path fill="#f2fcfc" d="M 70.078125 70.207031 L 62.292969 70.207031 L 62.292969 77.988281 L 70.078125 77.988281 Z M 70.078125 70.207031 " fill-opacity="1" fill-rule="nonzero"/><path fill="#f2fcfc" d="M 62.292969 77.988281 L 54.511719 77.988281 L 54.511719 93.542969 L 62.292969 93.542969 Z M 62.292969 77.988281 " fill-opacity="1" fill-rule="nonzero"/><path fill="#f2fcfc" d="M 77.859375 77.988281 L 70.078125 77.988281 L 70.078125 85.765625 L 77.859375 85.765625 Z M 77.859375 77.988281 " fill-opacity="1" fill-rule="nonzero"/><path fill="#f2fcfc" d="M 85.644531 109.101562 L 77.859375 109.101562 L 77.859375 116.878906 L 85.644531 116.878906 Z M 85.644531 109.101562 " fill-opacity="1" fill-rule="nonzero"/><path fill="#f2fcfc" d="M 101.207031 85.765625 L 93.425781 85.765625 L 93.425781 93.542969 L 101.207031 93.542969 Z M 101.207031 85.765625 " fill-opacity="1" fill-rule="nonzero"/><path fill="#f2fcfc" d="M 288 31.316406 L 280.21875 31.316406 L 280.21875 39.09375 L 288 39.09375 Z M 288 31.316406 " fill-opacity="1" fill-rule="nonzero"/><path fill="#f2fcfc" d="M 295.78125 23.539062 L 288 23.539062 L 288 31.316406 L 295.78125 31.316406 Z M 295.78125 23.539062 " fill-opacity="1" fill-rule="nonzero"/><path fill="#f2fcfc" d="M 54.511719 93.542969 L 46.726562 93.542969 L 46.726562 101.320312 L 54.511719 101.320312 Z M 54.511719 93.542969 " fill-opacity="1" fill-rule="nonzero"/><path fill="#f2fcfc" d="M 46.726562 85.765625 L 23.378906 85.765625 L 23.378906 93.542969 L 46.726562 93.542969 Z M 46.726562 85.765625 " fill-opacity="1" fill-rule="nonzero"/><path fill="#f2fcfc" d="M 23.378906 93.542969 L 15.597656 93.542969 L 15.597656 101.320312 L 23.378906 101.320312 Z M 23.378906 93.542969 " fill-opacity="1" fill-rule="nonzero"/><path fill="#f2fcfc" d="M 15.597656 101.320312 L 7.8125 101.320312 L 7.8125 109.101562 L 15.597656 109.101562 Z M 15.597656 101.320312 " fill-opacity="1" fill-rule="nonzero"/><path fill="#f2fcfc" d="M 23.378906 109.101562 L 15.597656 109.101562 L 15.597656 116.878906 L 23.378906 116.878906 Z M 23.378906 109.101562 " fill-opacity="1" fill-rule="nonzero"/><path fill="#f2fcfc" d="M 38.945312 101.320312 L 31.164062 101.320312 L 31.164062 109.101562 L 38.945312 109.101562 Z M 38.945312 101.320312 " fill-opacity="1" fill-rule="nonzero"/><path fill="#f2fcfc" d="M 194.605469 93.542969 L 186.820312 93.542969 L 186.820312 101.320312 L 194.605469 101.320312 Z M 194.605469 93.542969 " fill-opacity="1" fill-rule="nonzero"/><path fill="#f2fcfc" d="M 490.355469 46.871094 L 482.574219 46.871094 L 482.574219 54.652344 L 490.355469 54.652344 Z M 490.355469 46.871094 " fill-opacity="1" fill-rule="nonzero"/><path fill="#f2fcfc" d="M 474.792969 101.320312 L 467.007812 101.320312 L 467.007812 109.101562 L 474.792969 109.101562 Z M 474.792969 101.320312 " fill-opacity="1" fill-rule="nonzero"/><path fill="#f2fcfc" d="M 467.007812 109.101562 L 459.226562 109.101562 L 459.226562 116.878906 L 467.007812 116.878906 Z M 467.007812 109.101562 " fill-opacity="1" fill-rule="nonzero"/><path fill="#f2fcfc" d="M 537.054688 85.765625 L 529.273438 85.765625 L 529.273438 93.542969 L 537.054688 93.542969 Z M 537.054688 85.765625 " fill-opacity="1" fill-rule="nonzero"/><path fill="#f2fcfc" d="M 435.875 85.765625 L 428.09375 85.765625 L 428.09375 93.542969 L 435.875 93.542969 Z M 435.875 85.765625 " fill-opacity="1" fill-rule="nonzero"/><path fill="#f2fcfc" d="M 443.660156 93.542969 L 435.875 93.542969 L 435.875 101.320312 L 443.660156 101.320312 Z M 443.660156 93.542969 " fill-opacity="1" fill-rule="nonzero"/><path fill="#f2fcfc" d="M 295.78125 85.765625 L 288 85.765625 L 288 93.542969 L 295.78125 93.542969 Z M 295.78125 85.765625 " fill-opacity="1" fill-rule="nonzero"/><path fill="#f2fcfc" d="M 311.347656 62.429688 L 303.566406 62.429688 L 303.566406 77.988281 L 311.347656 77.988281 Z M 311.347656 62.429688 " fill-opacity="1" fill-rule="nonzero"/><path fill="#f2fcfc" d="M 319.132812 54.652344 L 311.347656 54.652344 L 311.347656 62.429688 L 319.132812 62.429688 Z M 319.132812 54.652344 " fill-opacity="1" fill-rule="nonzero"/><path fill="#f2fcfc" d="M 303.566406 46.871094 L 295.78125 46.871094 L 295.78125 54.652344 L 303.566406 54.652344 Z M 303.566406 46.871094 " fill-opacity="1" fill-rule="nonzero"/><path fill="#f2fcfc" d="M 256.867188 116.878906 L 249.085938 116.878906 L 249.085938 124.65625 L 256.867188 124.65625 Z M 256.867188 116.878906 " fill-opacity="1" fill-rule="nonzero"/><path fill="#f2fcfc" d="M 249.085938 101.320312 L 233.519531 101.320312 L 233.519531 109.101562 L 249.085938 109.101562 Z M 249.085938 101.320312 " fill-opacity="1" fill-rule="nonzero"/><path fill="#f2fcfc" d="M 256.867188 93.542969 L 249.085938 93.542969 L 249.085938 101.320312 L 256.867188 101.320312 Z M 256.867188 93.542969 " fill-opacity="1" fill-rule="nonzero"/><path fill="#f2fcfc" d="M 179.039062 116.878906 L 171.253906 116.878906 L 171.253906 124.65625 L 179.039062 124.65625 Z M 179.039062 116.878906 " fill-opacity="1" fill-rule="nonzero"/></g></g></g><g clip-path="url(#388cecd8b6)"><path fill="#ffde59" d="M 294.898438 294.710938 L 282.6875 294.710938 L 282.6875 300.816406 L 276.582031 300.816406 L 276.582031 313.03125 L 270.472656 313.03125 L 270.472656 300.816406 L 264.367188 300.816406 L 264.367188 294.710938 L 252.15625 294.710938 L 252.15625 288.605469 L 264.367188 288.605469 L 264.367188 282.496094 L 270.472656 282.496094 L 270.472656 270.285156 L 276.582031 270.285156 L 276.582031 282.496094 L 282.6875 282.496094 L 282.6875 288.605469 L 294.898438 288.605469 Z M 294.898438 294.710938 " fill-opacity="1" fill-rule="nonzero"/></g></svg>
