<svg xmlns="http://www.w3.org/2000/svg" xmlns:xlink="http://www.w3.org/1999/xlink" width="1000" zoomAndPan="magnify" viewBox="0 0 750 757.92" height="1000" preserveAspectRatio="xMidYMid meet" version="1.0"><defs><clipPath id="5f45a28384"><path d="M 87.03125 268.722656 L 662.96875 268.722656 L 662.96875 408.957031 L 87.03125 408.957031 Z M 87.03125 268.722656 " clip-rule="nonzero"/></clipPath><clipPath id="fd9e287662"><path d="M 87.03125 268.722656 L 656 268.722656 L 656 408.957031 L 87.03125 408.957031 Z M 87.03125 268.722656 " clip-rule="nonzero"/></clipPath><clipPath id="ff81d61c38"><path d="M 655 377 L 662.96875 377 L 662.96875 394 L 655 394 Z M 655 377 " clip-rule="nonzero"/></clipPath><clipPath id="55214e5763"><path d="M 367 268.722656 L 391 268.722656 L 391 277 L 367 277 Z M 367 268.722656 " clip-rule="nonzero"/></clipPath><clipPath id="b2b1b51da0"><path d="M 350.316406 460.785156 L 393.0625 460.785156 L 393.0625 503.53125 L 350.316406 503.53125 Z M 350.316406 460.785156 " clip-rule="nonzero"/></clipPath></defs><g clip-path="url(#5f45a28384)"><path fill="#bfebf4" d="M 655.1875 377.730469 L 655.1875 369.953125 L 647.402344 369.953125 L 647.402344 362.175781 L 639.621094 362.175781 L 639.621094 354.394531 L 616.273438 354.394531 L 616.273438 362.175781 L 608.488281 362.175781 L 608.488281 369.953125 L 600.707031 369.953125 L 600.707031 362.175781 L 608.488281 362.175781 L 608.488281 346.617188 L 600.707031 346.617188 L 600.707031 338.839844 L 592.921875 338.839844 L 592.921875 331.0625 L 577.355469 331.0625 L 577.355469 338.839844 L 561.792969 338.839844 L 561.792969 331.0625 L 554.007812 331.0625 L 554.007812 323.28125 L 515.09375 323.28125 L 515.09375 331.0625 L 507.308594 331.0625 L 507.308594 338.839844 L 499.527344 338.839844 L 499.527344 346.617188 L 476.179688 346.617188 L 476.179688 354.394531 L 460.613281 354.394531 L 460.613281 346.617188 L 452.828125 346.617188 L 452.828125 331.0625 L 460.613281 331.0625 L 460.613281 315.503906 L 452.828125 315.503906 L 452.828125 307.726562 L 445.046875 307.726562 L 445.046875 299.945312 L 437.265625 299.945312 L 437.265625 292.167969 L 406.132812 292.167969 L 406.132812 284.390625 L 398.347656 284.390625 L 398.347656 276.613281 L 390.566406 276.613281 L 390.566406 268.832031 L 343.867188 268.832031 L 343.867188 276.613281 L 336.085938 276.613281 L 336.085938 284.390625 L 328.300781 284.390625 L 328.300781 299.945312 L 312.734375 299.945312 L 312.734375 307.726562 L 304.953125 307.726562 L 304.953125 315.503906 L 297.171875 315.503906 L 297.171875 323.28125 L 289.386719 323.28125 L 289.386719 338.839844 L 297.171875 338.839844 L 297.171875 346.617188 L 304.953125 346.617188 L 304.953125 354.394531 L 297.171875 354.394531 L 297.171875 369.953125 L 289.386719 369.953125 L 289.386719 362.175781 L 273.820312 362.175781 L 273.820312 354.394531 L 266.039062 354.394531 L 266.039062 338.839844 L 273.820312 338.839844 L 273.820312 323.28125 L 266.039062 323.28125 L 266.039062 307.726562 L 258.253906 307.726562 L 258.253906 299.945312 L 242.691406 299.945312 L 242.691406 292.167969 L 211.558594 292.167969 L 211.558594 299.945312 L 195.992188 299.945312 L 195.992188 307.726562 L 180.425781 307.726562 L 180.425781 315.503906 L 172.644531 315.503906 L 172.644531 323.28125 L 164.859375 323.28125 L 164.859375 331.0625 L 149.292969 331.0625 L 149.292969 338.839844 L 141.511719 338.839844 L 141.511719 346.617188 L 110.378906 346.617188 L 110.378906 354.394531 L 102.597656 354.394531 L 102.597656 362.175781 L 94.8125 362.175781 L 94.8125 385.507812 L 87.03125 385.507812 L 87.03125 401.066406 L 94.8125 401.066406 L 94.8125 408.84375 L 655.1875 408.84375 L 655.1875 401.066406 L 662.96875 401.066406 L 662.96875 377.730469 Z M 655.1875 377.730469 " fill-opacity="1" fill-rule="nonzero"/></g><path fill="#7c9ae0" d="M 195.992188 331.0625 L 188.207031 331.0625 L 188.207031 315.503906 L 195.992188 315.503906 L 195.992188 307.726562 L 180.425781 307.726562 L 180.425781 338.839844 L 188.207031 338.839844 L 188.207031 346.617188 L 195.992188 346.617188 Z M 195.992188 331.0625 " fill-opacity="1" fill-rule="nonzero"/><path fill="#7c9ae0" d="M 195.992188 346.617188 L 203.773438 346.617188 L 203.773438 354.394531 L 195.992188 354.394531 Z M 195.992188 346.617188 " fill-opacity="1" fill-rule="nonzero"/><path fill="#7c9ae0" d="M 203.773438 338.839844 L 219.339844 338.839844 L 219.339844 346.617188 L 203.773438 346.617188 Z M 203.773438 338.839844 " fill-opacity="1" fill-rule="nonzero"/><path fill="#7c9ae0" d="M 219.339844 331.0625 L 234.90625 331.0625 L 234.90625 338.839844 L 219.339844 338.839844 Z M 219.339844 331.0625 " fill-opacity="1" fill-rule="nonzero"/><path fill="#7c9ae0" d="M 234.90625 338.839844 L 242.691406 338.839844 L 242.691406 346.617188 L 234.90625 346.617188 Z M 234.90625 338.839844 " fill-opacity="1" fill-rule="nonzero"/><path fill="#7c9ae0" d="M 141.511719 346.617188 L 149.292969 346.617188 L 149.292969 354.394531 L 141.511719 354.394531 Z M 141.511719 346.617188 " fill-opacity="1" fill-rule="nonzero"/><path fill="#7c9ae0" d="M 133.726562 354.394531 L 141.511719 354.394531 L 141.511719 362.175781 L 133.726562 362.175781 Z M 133.726562 354.394531 " fill-opacity="1" fill-rule="nonzero"/><path fill="#7c9ae0" d="M 125.945312 362.175781 L 133.726562 362.175781 L 133.726562 369.953125 L 125.945312 369.953125 Z M 125.945312 362.175781 " fill-opacity="1" fill-rule="nonzero"/><path fill="#7c9ae0" d="M 133.726562 369.953125 L 141.511719 369.953125 L 141.511719 385.507812 L 133.726562 385.507812 Z M 133.726562 369.953125 " fill-opacity="1" fill-rule="nonzero"/><path fill="#7c9ae0" d="M 157.078125 377.730469 L 164.859375 377.730469 L 164.859375 385.507812 L 157.078125 385.507812 Z M 157.078125 377.730469 " fill-opacity="1" fill-rule="nonzero"/><path fill="#7c9ae0" d="M 164.859375 369.953125 L 172.644531 369.953125 L 172.644531 377.730469 L 164.859375 377.730469 Z M 164.859375 369.953125 " fill-opacity="1" fill-rule="nonzero"/><path fill="#7c9ae0" d="M 195.992188 362.175781 L 195.992188 354.394531 L 188.207031 354.394531 L 188.207031 362.175781 L 172.644531 362.175781 L 172.644531 369.953125 L 195.992188 369.953125 Z M 195.992188 362.175781 " fill-opacity="1" fill-rule="nonzero"/><path fill="#7c9ae0" d="M 195.992188 369.953125 L 203.773438 369.953125 L 203.773438 377.730469 L 195.992188 377.730469 Z M 195.992188 369.953125 " fill-opacity="1" fill-rule="nonzero"/><path fill="#7c9ae0" d="M 203.773438 377.730469 L 211.558594 377.730469 L 211.558594 385.507812 L 203.773438 385.507812 Z M 203.773438 377.730469 " fill-opacity="1" fill-rule="nonzero"/><path fill="#7c9ae0" d="M 234.90625 362.175781 L 250.472656 362.175781 L 250.472656 369.953125 L 234.90625 369.953125 Z M 234.90625 362.175781 " fill-opacity="1" fill-rule="nonzero"/><path fill="#7c9ae0" d="M 250.472656 354.394531 L 273.820312 354.394531 L 273.820312 362.175781 L 250.472656 362.175781 Z M 250.472656 354.394531 " fill-opacity="1" fill-rule="nonzero"/><path fill="#7c9ae0" d="M 289.386719 369.953125 L 297.171875 369.953125 L 297.171875 377.730469 L 289.386719 377.730469 Z M 289.386719 369.953125 " fill-opacity="1" fill-rule="nonzero"/><path fill="#7c9ae0" d="M 343.867188 307.726562 L 351.652344 307.726562 L 351.652344 315.503906 L 343.867188 315.503906 Z M 343.867188 307.726562 " fill-opacity="1" fill-rule="nonzero"/><path fill="#7c9ae0" d="M 102.597656 354.394531 L 110.378906 354.394531 L 110.378906 362.175781 L 102.597656 362.175781 Z M 102.597656 354.394531 " fill-opacity="1" fill-rule="nonzero"/><path fill="#7c9ae0" d="M 110.378906 346.617188 L 125.945312 346.617188 L 125.945312 354.394531 L 110.378906 354.394531 Z M 110.378906 346.617188 " fill-opacity="1" fill-rule="nonzero"/><path fill="#7c9ae0" d="M 390.566406 369.953125 L 398.347656 369.953125 L 398.347656 377.730469 L 390.566406 377.730469 Z M 390.566406 369.953125 " fill-opacity="1" fill-rule="nonzero"/><path fill="#7c9ae0" d="M 367.21875 346.617188 L 375 346.617188 L 375 354.394531 L 367.21875 354.394531 Z M 367.21875 346.617188 " fill-opacity="1" fill-rule="nonzero"/><path fill="#7c9ae0" d="M 359.433594 331.0625 L 367.21875 331.0625 L 367.21875 346.617188 L 359.433594 346.617188 Z M 359.433594 331.0625 " fill-opacity="1" fill-rule="nonzero"/><path fill="#7c9ae0" d="M 367.21875 315.503906 L 375 315.503906 L 375 331.0625 L 367.21875 331.0625 Z M 367.21875 315.503906 " fill-opacity="1" fill-rule="nonzero"/><path fill="#7c9ae0" d="M 375 307.726562 L 382.78125 307.726562 L 382.78125 315.503906 L 375 315.503906 Z M 375 307.726562 " fill-opacity="1" fill-rule="nonzero"/><path fill="#7c9ae0" d="M 382.78125 299.945312 L 398.347656 299.945312 L 398.347656 307.726562 L 382.78125 307.726562 Z M 382.78125 299.945312 " fill-opacity="1" fill-rule="nonzero"/><path fill="#7c9ae0" d="M 398.347656 292.167969 L 413.914062 292.167969 L 413.914062 299.945312 L 398.347656 299.945312 Z M 398.347656 292.167969 " fill-opacity="1" fill-rule="nonzero"/><path fill="#7c9ae0" d="M 382.78125 346.617188 L 390.566406 346.617188 L 390.566406 354.394531 L 382.78125 354.394531 Z M 382.78125 346.617188 " fill-opacity="1" fill-rule="nonzero"/><path fill="#7c9ae0" d="M 390.566406 338.839844 L 398.347656 338.839844 L 398.347656 346.617188 L 390.566406 346.617188 Z M 390.566406 338.839844 " fill-opacity="1" fill-rule="nonzero"/><path fill="#7c9ae0" d="M 398.347656 331.0625 L 421.699219 331.0625 L 421.699219 338.839844 L 398.347656 338.839844 Z M 398.347656 331.0625 " fill-opacity="1" fill-rule="nonzero"/><path fill="#7c9ae0" d="M 421.699219 338.839844 L 429.480469 338.839844 L 429.480469 346.617188 L 421.699219 346.617188 Z M 421.699219 338.839844 " fill-opacity="1" fill-rule="nonzero"/><path fill="#7c9ae0" d="M 429.480469 369.953125 L 437.265625 369.953125 L 437.265625 377.730469 L 429.480469 377.730469 Z M 429.480469 369.953125 " fill-opacity="1" fill-rule="nonzero"/><path fill="#7c9ae0" d="M 437.265625 362.175781 L 452.828125 362.175781 L 452.828125 369.953125 L 437.265625 369.953125 Z M 437.265625 362.175781 " fill-opacity="1" fill-rule="nonzero"/><path fill="#7c9ae0" d="M 452.828125 354.394531 L 468.394531 354.394531 L 468.394531 362.175781 L 452.828125 362.175781 Z M 452.828125 354.394531 " fill-opacity="1" fill-rule="nonzero"/><g clip-path="url(#fd9e287662)"><path fill="#7c9ae0" d="M 608.488281 401.066406 L 608.488281 393.289062 L 600.707031 393.289062 L 600.707031 377.730469 L 592.921875 377.730469 L 592.921875 401.066406 L 530.660156 401.066406 L 530.660156 393.289062 L 522.875 393.289062 L 522.875 377.730469 L 499.527344 377.730469 L 499.527344 385.507812 L 507.308594 385.507812 L 507.308594 393.289062 L 491.746094 393.289062 L 491.746094 401.066406 L 437.265625 401.066406 L 437.265625 393.289062 L 429.480469 393.289062 L 429.480469 377.730469 L 421.699219 377.730469 L 421.699219 385.507812 L 413.914062 385.507812 L 413.914062 393.289062 L 406.132812 393.289062 L 406.132812 401.066406 L 359.433594 401.066406 L 359.433594 393.289062 L 351.652344 393.289062 L 351.652344 385.507812 L 359.433594 385.507812 L 359.433594 377.730469 L 367.21875 377.730469 L 367.21875 369.953125 L 390.566406 369.953125 L 390.566406 362.175781 L 382.78125 362.175781 L 382.78125 354.394531 L 375 354.394531 L 375 362.175781 L 359.433594 362.175781 L 359.433594 369.953125 L 351.652344 369.953125 L 351.652344 377.730469 L 336.085938 377.730469 L 336.085938 362.175781 L 328.300781 362.175781 L 328.300781 338.839844 L 304.953125 338.839844 L 304.953125 323.28125 L 312.734375 323.28125 L 312.734375 315.503906 L 320.519531 315.503906 L 320.519531 307.726562 L 343.867188 307.726562 L 343.867188 284.390625 L 351.652344 284.390625 L 351.652344 276.613281 L 367.21875 276.613281 L 367.21875 268.832031 L 343.867188 268.832031 L 343.867188 276.613281 L 336.085938 276.613281 L 336.085938 284.390625 L 328.300781 284.390625 L 328.300781 299.945312 L 312.734375 299.945312 L 312.734375 307.726562 L 304.953125 307.726562 L 304.953125 315.503906 L 297.171875 315.503906 L 297.171875 323.28125 L 289.386719 323.28125 L 289.386719 338.839844 L 297.171875 338.839844 L 297.171875 346.617188 L 304.953125 346.617188 L 304.953125 354.394531 L 297.171875 354.394531 L 297.171875 369.953125 L 312.734375 369.953125 L 312.734375 362.175781 L 320.519531 362.175781 L 320.519531 377.730469 L 328.300781 377.730469 L 328.300781 393.289062 L 336.085938 393.289062 L 336.085938 401.066406 L 297.171875 401.066406 L 297.171875 393.289062 L 289.386719 393.289062 L 289.386719 377.730469 L 281.605469 377.730469 L 281.605469 385.507812 L 273.820312 385.507812 L 273.820312 401.066406 L 242.691406 401.066406 L 242.691406 393.289062 L 234.90625 393.289062 L 234.90625 369.953125 L 227.125 369.953125 L 227.125 385.507812 L 219.339844 385.507812 L 219.339844 401.066406 L 164.859375 401.066406 L 164.859375 393.289062 L 157.078125 393.289062 L 157.078125 385.507812 L 141.511719 385.507812 L 141.511719 393.289062 L 149.292969 393.289062 L 149.292969 401.066406 L 110.378906 401.066406 L 110.378906 393.289062 L 102.597656 393.289062 L 102.597656 385.507812 L 110.378906 385.507812 L 110.378906 377.730469 L 102.597656 377.730469 L 102.597656 362.175781 L 94.8125 362.175781 L 94.8125 385.507812 L 87.03125 385.507812 L 87.03125 401.066406 L 94.8125 401.066406 L 94.8125 408.84375 L 655.1875 408.84375 L 655.1875 401.066406 Z M 608.488281 401.066406 " fill-opacity="1" fill-rule="nonzero"/></g><path fill="#7c9ae0" d="M 195.992188 299.945312 L 203.773438 299.945312 L 203.773438 307.726562 L 195.992188 307.726562 Z M 195.992188 299.945312 " fill-opacity="1" fill-rule="nonzero"/><path fill="#7c9ae0" d="M 507.308594 346.617188 L 507.308594 338.839844 L 499.527344 338.839844 L 499.527344 354.394531 L 507.308594 354.394531 Z M 507.308594 346.617188 " fill-opacity="1" fill-rule="nonzero"/><path fill="#7c9ae0" d="M 491.746094 354.394531 L 499.527344 354.394531 L 499.527344 377.730469 L 491.746094 377.730469 Z M 491.746094 354.394531 " fill-opacity="1" fill-rule="nonzero"/><path fill="#7c9ae0" d="M 522.875 369.953125 L 530.660156 369.953125 L 530.660156 377.730469 L 522.875 377.730469 Z M 522.875 369.953125 " fill-opacity="1" fill-rule="nonzero"/><path fill="#7c9ae0" d="M 554.007812 362.175781 L 554.007812 354.394531 L 546.226562 354.394531 L 546.226562 362.175781 L 530.660156 362.175781 L 530.660156 369.953125 L 554.007812 369.953125 Z M 554.007812 362.175781 " fill-opacity="1" fill-rule="nonzero"/><path fill="#7c9ae0" d="M 554.007812 369.953125 L 561.792969 369.953125 L 561.792969 377.730469 L 554.007812 377.730469 Z M 554.007812 369.953125 " fill-opacity="1" fill-rule="nonzero"/><path fill="#7c9ae0" d="M 600.707031 369.953125 L 608.488281 369.953125 L 608.488281 377.730469 L 600.707031 377.730469 Z M 600.707031 369.953125 " fill-opacity="1" fill-rule="nonzero"/><path fill="#7c9ae0" d="M 554.007812 346.617188 L 561.792969 346.617188 L 561.792969 354.394531 L 554.007812 354.394531 Z M 554.007812 346.617188 " fill-opacity="1" fill-rule="nonzero"/><path fill="#7c9ae0" d="M 561.792969 338.839844 L 577.355469 338.839844 L 577.355469 346.617188 L 561.792969 346.617188 Z M 561.792969 338.839844 " fill-opacity="1" fill-rule="nonzero"/><path fill="#7c9ae0" d="M 507.308594 331.0625 L 515.09375 331.0625 L 515.09375 338.839844 L 507.308594 338.839844 Z M 507.308594 331.0625 " fill-opacity="1" fill-rule="nonzero"/><path fill="#d8bbff" d="M 203.773438 299.945312 L 211.558594 299.945312 L 211.558594 307.726562 L 203.773438 307.726562 Z M 203.773438 299.945312 " fill-opacity="1" fill-rule="nonzero"/><path fill="#d8bbff" d="M 219.339844 338.839844 L 219.339844 331.0625 L 211.558594 331.0625 L 211.558594 323.28125 L 203.773438 323.28125 L 203.773438 307.726562 L 195.992188 307.726562 L 195.992188 315.503906 L 188.207031 315.503906 L 188.207031 331.0625 L 195.992188 331.0625 L 195.992188 346.617188 L 203.773438 346.617188 L 203.773438 338.839844 Z M 219.339844 338.839844 " fill-opacity="1" fill-rule="nonzero"/><path fill="#d8bbff" d="M 219.339844 323.28125 L 234.90625 323.28125 L 234.90625 331.0625 L 219.339844 331.0625 Z M 219.339844 323.28125 " fill-opacity="1" fill-rule="nonzero"/><path fill="#d8bbff" d="M 195.992188 354.394531 L 203.773438 354.394531 L 203.773438 369.953125 L 195.992188 369.953125 Z M 195.992188 354.394531 " fill-opacity="1" fill-rule="nonzero"/><path fill="#d8bbff" d="M 203.773438 346.617188 L 219.339844 346.617188 L 219.339844 354.394531 L 203.773438 354.394531 Z M 203.773438 346.617188 " fill-opacity="1" fill-rule="nonzero"/><path fill="#d8bbff" d="M 203.773438 369.953125 L 203.773438 377.730469 L 211.558594 377.730469 L 211.558594 385.507812 L 227.125 385.507812 L 227.125 369.953125 Z M 203.773438 369.953125 " fill-opacity="1" fill-rule="nonzero"/><path fill="#d8bbff" d="M 227.125 362.175781 L 234.90625 362.175781 L 234.90625 369.953125 L 227.125 369.953125 Z M 227.125 362.175781 " fill-opacity="1" fill-rule="nonzero"/><path fill="#d8bbff" d="M 172.644531 385.507812 L 180.425781 385.507812 L 180.425781 377.730469 L 188.207031 377.730469 L 188.207031 369.953125 L 172.644531 369.953125 L 172.644531 377.730469 L 164.859375 377.730469 L 164.859375 385.507812 L 157.078125 385.507812 L 157.078125 393.289062 L 164.859375 393.289062 L 164.859375 401.066406 L 219.339844 401.066406 L 219.339844 393.289062 L 172.644531 393.289062 Z M 172.644531 385.507812 " fill-opacity="1" fill-rule="nonzero"/><path fill="#d8bbff" d="M 242.691406 393.289062 L 273.820312 393.289062 L 273.820312 401.066406 L 242.691406 401.066406 Z M 242.691406 393.289062 " fill-opacity="1" fill-rule="nonzero"/><path fill="#d8bbff" d="M 359.433594 393.289062 L 406.132812 393.289062 L 406.132812 401.066406 L 359.433594 401.066406 Z M 359.433594 393.289062 " fill-opacity="1" fill-rule="nonzero"/><path fill="#d8bbff" d="M 102.597656 385.507812 L 102.597656 393.289062 L 110.378906 393.289062 L 110.378906 401.066406 L 149.292969 401.066406 L 149.292969 393.289062 L 118.164062 393.289062 L 118.164062 377.730469 L 110.378906 377.730469 L 110.378906 385.507812 Z M 102.597656 385.507812 " fill-opacity="1" fill-rule="nonzero"/><path fill="#d8bbff" d="M 102.597656 362.175781 L 110.378906 362.175781 L 110.378906 377.730469 L 102.597656 377.730469 Z M 102.597656 362.175781 " fill-opacity="1" fill-rule="nonzero"/><path fill="#d8bbff" d="M 110.378906 354.394531 L 125.945312 354.394531 L 125.945312 362.175781 L 110.378906 362.175781 Z M 110.378906 354.394531 " fill-opacity="1" fill-rule="nonzero"/><path fill="#d8bbff" d="M 125.945312 346.617188 L 141.511719 346.617188 L 141.511719 354.394531 L 125.945312 354.394531 Z M 125.945312 346.617188 " fill-opacity="1" fill-rule="nonzero"/><path fill="#d8bbff" d="M 320.519531 307.726562 L 343.867188 307.726562 L 343.867188 315.503906 L 320.519531 315.503906 Z M 320.519531 307.726562 " fill-opacity="1" fill-rule="nonzero"/><path fill="#d8bbff" d="M 320.519531 331.0625 L 320.519531 315.503906 L 312.734375 315.503906 L 312.734375 323.28125 L 304.953125 323.28125 L 304.953125 338.839844 L 328.300781 338.839844 L 328.300781 331.0625 Z M 320.519531 331.0625 " fill-opacity="1" fill-rule="nonzero"/><path fill="#d8bbff" d="M 343.867188 354.394531 L 336.085938 354.394531 L 336.085938 338.839844 L 328.300781 338.839844 L 328.300781 362.175781 L 336.085938 362.175781 L 336.085938 377.730469 L 351.652344 377.730469 L 351.652344 369.953125 L 343.867188 369.953125 Z M 343.867188 354.394531 " fill-opacity="1" fill-rule="nonzero"/><path fill="#d8bbff" d="M 351.652344 362.175781 L 359.433594 362.175781 L 359.433594 369.953125 L 351.652344 369.953125 Z M 351.652344 362.175781 " fill-opacity="1" fill-rule="nonzero"/><path fill="#d8bbff" d="M 234.90625 369.953125 L 234.90625 393.289062 L 242.691406 393.289062 L 242.691406 377.730469 L 250.472656 377.730469 L 250.472656 369.953125 Z M 234.90625 369.953125 " fill-opacity="1" fill-rule="nonzero"/><path fill="#d8bbff" d="M 250.472656 362.175781 L 273.820312 362.175781 L 273.820312 369.953125 L 250.472656 369.953125 Z M 250.472656 362.175781 " fill-opacity="1" fill-rule="nonzero"/><path fill="#d8bbff" d="M 343.867188 346.617188 L 351.652344 346.617188 L 351.652344 354.394531 L 343.867188 354.394531 Z M 343.867188 346.617188 " fill-opacity="1" fill-rule="nonzero"/><path fill="#d8bbff" d="M 304.953125 385.507812 L 297.171875 385.507812 L 297.171875 401.066406 L 336.085938 401.066406 L 336.085938 393.289062 L 304.953125 393.289062 Z M 304.953125 385.507812 " fill-opacity="1" fill-rule="nonzero"/><path fill="#d8bbff" d="M 266.039062 377.730469 L 273.820312 377.730469 L 273.820312 385.507812 L 266.039062 385.507812 Z M 266.039062 377.730469 " fill-opacity="1" fill-rule="nonzero"/><path fill="#d8bbff" d="M 234.90625 315.503906 L 242.691406 315.503906 L 242.691406 323.28125 L 234.90625 323.28125 Z M 234.90625 315.503906 " fill-opacity="1" fill-rule="nonzero"/><path fill="#d8bbff" d="M 242.691406 331.0625 L 250.472656 331.0625 L 250.472656 338.839844 L 242.691406 338.839844 Z M 242.691406 331.0625 " fill-opacity="1" fill-rule="nonzero"/><path fill="#d8bbff" d="M 234.90625 354.394531 L 242.691406 354.394531 L 242.691406 362.175781 L 234.90625 362.175781 Z M 234.90625 354.394531 " fill-opacity="1" fill-rule="nonzero"/><path fill="#d8bbff" d="M 164.859375 377.730469 L 164.859375 369.953125 L 149.292969 369.953125 L 149.292969 354.394531 L 141.511719 354.394531 L 141.511719 362.175781 L 133.726562 362.175781 L 133.726562 369.953125 L 141.511719 369.953125 L 141.511719 385.507812 L 157.078125 385.507812 L 157.078125 377.730469 Z M 164.859375 377.730469 " fill-opacity="1" fill-rule="nonzero"/><path fill="#d8bbff" d="M 164.859375 362.175781 L 172.644531 362.175781 L 172.644531 369.953125 L 164.859375 369.953125 Z M 164.859375 362.175781 " fill-opacity="1" fill-rule="nonzero"/><path fill="#d8bbff" d="M 367.21875 331.0625 L 375 331.0625 L 375 346.617188 L 367.21875 346.617188 Z M 367.21875 331.0625 " fill-opacity="1" fill-rule="nonzero"/><path fill="#d8bbff" d="M 375 346.617188 L 382.78125 346.617188 L 382.78125 354.394531 L 375 354.394531 Z M 375 346.617188 " fill-opacity="1" fill-rule="nonzero"/><path fill="#d8bbff" d="M 445.046875 385.507812 L 445.046875 377.730469 L 452.828125 377.730469 L 452.828125 369.953125 L 437.265625 369.953125 L 437.265625 377.730469 L 429.480469 377.730469 L 429.480469 393.289062 L 437.265625 393.289062 L 437.265625 385.507812 Z M 445.046875 385.507812 " fill-opacity="1" fill-rule="nonzero"/><path fill="#d8bbff" d="M 491.746094 385.507812 L 491.746094 393.289062 L 507.308594 393.289062 L 507.308594 385.507812 L 499.527344 385.507812 L 499.527344 377.730469 L 491.746094 377.730469 Z M 491.746094 385.507812 " fill-opacity="1" fill-rule="nonzero"/><path fill="#d8bbff" d="M 452.828125 385.507812 L 445.046875 385.507812 L 445.046875 393.289062 L 437.265625 393.289062 L 437.265625 401.066406 L 491.746094 401.066406 L 491.746094 393.289062 L 452.828125 393.289062 Z M 452.828125 385.507812 " fill-opacity="1" fill-rule="nonzero"/><path fill="#d8bbff" d="M 367.21875 377.730469 L 375 377.730469 L 375 385.507812 L 367.21875 385.507812 Z M 367.21875 377.730469 " fill-opacity="1" fill-rule="nonzero"/><path fill="#d8bbff" d="M 382.78125 354.394531 L 390.566406 354.394531 L 390.566406 362.175781 L 382.78125 362.175781 Z M 382.78125 354.394531 " fill-opacity="1" fill-rule="nonzero"/><path fill="#d8bbff" d="M 390.566406 362.175781 L 398.347656 362.175781 L 398.347656 369.953125 L 390.566406 369.953125 Z M 390.566406 362.175781 " fill-opacity="1" fill-rule="nonzero"/><path fill="#d8bbff" d="M 390.566406 346.617188 L 398.347656 346.617188 L 398.347656 354.394531 L 390.566406 354.394531 Z M 390.566406 346.617188 " fill-opacity="1" fill-rule="nonzero"/><path fill="#d8bbff" d="M 515.09375 323.28125 L 522.875 323.28125 L 522.875 338.839844 L 515.09375 338.839844 Z M 515.09375 323.28125 " fill-opacity="1" fill-rule="nonzero"/><path fill="#d8bbff" d="M 507.308594 338.839844 L 515.09375 338.839844 L 515.09375 354.394531 L 507.308594 354.394531 Z M 507.308594 338.839844 " fill-opacity="1" fill-rule="nonzero"/><path fill="#d8bbff" d="M 507.308594 369.953125 L 507.308594 354.394531 L 499.527344 354.394531 L 499.527344 377.730469 L 522.875 377.730469 L 522.875 369.953125 Z M 507.308594 369.953125 " fill-opacity="1" fill-rule="nonzero"/><path fill="#d8bbff" d="M 522.875 362.175781 L 530.660156 362.175781 L 530.660156 369.953125 L 522.875 369.953125 Z M 522.875 362.175781 " fill-opacity="1" fill-rule="nonzero"/><path fill="#d8bbff" d="M 530.660156 354.394531 L 546.226562 354.394531 L 546.226562 362.175781 L 530.660156 362.175781 Z M 530.660156 354.394531 " fill-opacity="1" fill-rule="nonzero"/><path fill="#d8bbff" d="M 522.875 377.730469 L 530.660156 377.730469 L 530.660156 393.289062 L 522.875 393.289062 Z M 522.875 377.730469 " fill-opacity="1" fill-rule="nonzero"/><path fill="#d8bbff" d="M 522.875 346.617188 L 530.660156 346.617188 L 530.660156 354.394531 L 522.875 354.394531 Z M 522.875 346.617188 " fill-opacity="1" fill-rule="nonzero"/><path fill="#d8bbff" d="M 546.226562 346.617188 L 554.007812 346.617188 L 554.007812 354.394531 L 546.226562 354.394531 Z M 546.226562 346.617188 " fill-opacity="1" fill-rule="nonzero"/><path fill="#d8bbff" d="M 483.960938 354.394531 L 491.746094 354.394531 L 491.746094 362.175781 L 483.960938 362.175781 Z M 483.960938 354.394531 " fill-opacity="1" fill-rule="nonzero"/><path fill="#d8bbff" d="M 585.140625 393.289062 L 530.660156 393.289062 L 530.660156 401.066406 L 592.921875 401.066406 L 592.921875 377.730469 L 585.140625 377.730469 Z M 585.140625 393.289062 " fill-opacity="1" fill-rule="nonzero"/><path fill="#d8bbff" d="M 577.355469 369.953125 L 585.140625 369.953125 L 585.140625 377.730469 L 577.355469 377.730469 Z M 577.355469 369.953125 " fill-opacity="1" fill-rule="nonzero"/><path fill="#d8bbff" d="M 616.273438 369.953125 L 608.488281 369.953125 L 608.488281 377.730469 L 600.707031 377.730469 L 600.707031 393.289062 L 608.488281 393.289062 L 608.488281 401.066406 L 655.1875 401.066406 L 655.1875 393.289062 L 616.273438 393.289062 Z M 616.273438 369.953125 " fill-opacity="1" fill-rule="nonzero"/><g clip-path="url(#ff81d61c38)"><path fill="#d8bbff" d="M 655.1875 377.730469 L 662.96875 377.730469 L 662.96875 393.289062 L 655.1875 393.289062 Z M 655.1875 377.730469 " fill-opacity="1" fill-rule="nonzero"/></g><path fill="#d8bbff" d="M 343.867188 284.390625 L 351.652344 284.390625 L 351.652344 307.726562 L 343.867188 307.726562 Z M 343.867188 284.390625 " fill-opacity="1" fill-rule="nonzero"/><path fill="#d8bbff" d="M 351.652344 276.613281 L 367.21875 276.613281 L 367.21875 284.390625 L 351.652344 284.390625 Z M 351.652344 276.613281 " fill-opacity="1" fill-rule="nonzero"/><path fill="#d8bbff" d="M 375 315.503906 L 382.78125 315.503906 L 382.78125 331.0625 L 375 331.0625 Z M 375 315.503906 " fill-opacity="1" fill-rule="nonzero"/><path fill="#d8bbff" d="M 382.78125 307.726562 L 390.566406 307.726562 L 390.566406 315.503906 L 382.78125 315.503906 Z M 382.78125 307.726562 " fill-opacity="1" fill-rule="nonzero"/><path fill="#d8bbff" d="M 398.347656 299.945312 L 406.132812 299.945312 L 406.132812 307.726562 L 398.347656 307.726562 Z M 398.347656 299.945312 " fill-opacity="1" fill-rule="nonzero"/><path fill="#d8bbff" d="M 164.859375 323.28125 L 172.644531 323.28125 L 172.644531 331.0625 L 164.859375 331.0625 Z M 164.859375 323.28125 " fill-opacity="1" fill-rule="nonzero"/><path fill="#d8bbff" d="M 141.511719 338.839844 L 149.292969 338.839844 L 149.292969 346.617188 L 141.511719 346.617188 Z M 141.511719 338.839844 " fill-opacity="1" fill-rule="nonzero"/><path fill="#d8bbff" d="M 149.292969 331.0625 L 164.859375 331.0625 L 164.859375 338.839844 L 149.292969 338.839844 Z M 149.292969 331.0625 " fill-opacity="1" fill-rule="nonzero"/><path fill="#f2fcfc" d="M 258.253906 307.726562 L 258.253906 299.945312 L 242.691406 299.945312 L 242.691406 292.167969 L 211.558594 292.167969 L 211.558594 299.945312 L 234.90625 299.945312 L 234.90625 307.726562 L 250.472656 307.726562 L 250.472656 315.503906 L 258.253906 315.503906 L 258.253906 323.28125 L 266.039062 323.28125 L 266.039062 307.726562 Z M 258.253906 307.726562 " fill-opacity="1" fill-rule="nonzero"/><path fill="#f2fcfc" d="M 266.039062 323.28125 L 273.820312 323.28125 L 273.820312 338.839844 L 266.039062 338.839844 Z M 266.039062 323.28125 " fill-opacity="1" fill-rule="nonzero"/><path fill="#f2fcfc" d="M 258.253906 338.839844 L 266.039062 338.839844 L 266.039062 354.394531 L 258.253906 354.394531 Z M 258.253906 338.839844 " fill-opacity="1" fill-rule="nonzero"/><path fill="#f2fcfc" d="M 188.207031 354.394531 L 195.992188 354.394531 L 195.992188 346.617188 L 188.207031 346.617188 L 188.207031 338.839844 L 180.425781 338.839844 L 180.425781 354.394531 L 172.644531 354.394531 L 172.644531 362.175781 L 188.207031 362.175781 Z M 188.207031 354.394531 " fill-opacity="1" fill-rule="nonzero"/><path fill="#f2fcfc" d="M 219.339844 338.839844 L 234.90625 338.839844 L 234.90625 346.617188 L 219.339844 346.617188 Z M 219.339844 338.839844 " fill-opacity="1" fill-rule="nonzero"/><path fill="#f2fcfc" d="M 273.820312 362.175781 L 289.386719 362.175781 L 289.386719 369.953125 L 273.820312 369.953125 Z M 273.820312 362.175781 " fill-opacity="1" fill-rule="nonzero"/><path fill="#f2fcfc" d="M 312.734375 362.175781 L 320.519531 362.175781 L 320.519531 369.953125 L 312.734375 369.953125 Z M 312.734375 362.175781 " fill-opacity="1" fill-rule="nonzero"/><path fill="#f2fcfc" d="M 297.171875 369.953125 L 312.734375 369.953125 L 312.734375 377.730469 L 297.171875 377.730469 Z M 297.171875 369.953125 " fill-opacity="1" fill-rule="nonzero"/><path fill="#f2fcfc" d="M 250.472656 331.0625 L 258.253906 331.0625 L 258.253906 338.839844 L 250.472656 338.839844 Z M 250.472656 331.0625 " fill-opacity="1" fill-rule="nonzero"/><path fill="#f2fcfc" d="M 227.125 307.726562 L 234.90625 307.726562 L 234.90625 315.503906 L 227.125 315.503906 Z M 227.125 307.726562 " fill-opacity="1" fill-rule="nonzero"/><path fill="#f2fcfc" d="M 390.566406 276.613281 L 398.347656 276.613281 L 398.347656 284.390625 L 390.566406 284.390625 Z M 390.566406 276.613281 " fill-opacity="1" fill-rule="nonzero"/><path fill="#f2fcfc" d="M 398.347656 284.390625 L 406.132812 284.390625 L 406.132812 292.167969 L 398.347656 292.167969 Z M 398.347656 284.390625 " fill-opacity="1" fill-rule="nonzero"/><path fill="#f2fcfc" d="M 390.566406 292.167969 L 398.347656 292.167969 L 398.347656 299.945312 L 390.566406 299.945312 Z M 390.566406 292.167969 " fill-opacity="1" fill-rule="nonzero"/><g clip-path="url(#55214e5763)"><path fill="#f2fcfc" d="M 367.21875 268.832031 L 390.566406 268.832031 L 390.566406 276.613281 L 367.21875 276.613281 Z M 367.21875 268.832031 " fill-opacity="1" fill-rule="nonzero"/></g><path fill="#f2fcfc" d="M 413.914062 292.167969 L 437.265625 292.167969 L 437.265625 299.945312 L 413.914062 299.945312 Z M 413.914062 292.167969 " fill-opacity="1" fill-rule="nonzero"/><path fill="#f2fcfc" d="M 437.265625 299.945312 L 445.046875 299.945312 L 445.046875 307.726562 L 437.265625 307.726562 Z M 437.265625 299.945312 " fill-opacity="1" fill-rule="nonzero"/><path fill="#f2fcfc" d="M 429.480469 307.726562 L 437.265625 307.726562 L 437.265625 315.503906 L 429.480469 315.503906 Z M 429.480469 307.726562 " fill-opacity="1" fill-rule="nonzero"/><path fill="#f2fcfc" d="M 445.046875 307.726562 L 452.828125 307.726562 L 452.828125 315.503906 L 445.046875 315.503906 Z M 445.046875 307.726562 " fill-opacity="1" fill-rule="nonzero"/><path fill="#f2fcfc" d="M 452.828125 315.503906 L 460.613281 315.503906 L 460.613281 331.0625 L 452.828125 331.0625 Z M 452.828125 315.503906 " fill-opacity="1" fill-rule="nonzero"/><path fill="#f2fcfc" d="M 445.046875 331.0625 L 452.828125 331.0625 L 452.828125 346.617188 L 445.046875 346.617188 Z M 445.046875 331.0625 " fill-opacity="1" fill-rule="nonzero"/><path fill="#f2fcfc" d="M 452.828125 346.617188 L 460.613281 346.617188 L 460.613281 354.394531 L 452.828125 354.394531 Z M 452.828125 346.617188 " fill-opacity="1" fill-rule="nonzero"/><path fill="#f2fcfc" d="M 437.265625 323.28125 L 445.046875 323.28125 L 445.046875 331.0625 L 437.265625 331.0625 Z M 437.265625 323.28125 " fill-opacity="1" fill-rule="nonzero"/><path fill="#f2fcfc" d="M 398.347656 338.839844 L 421.699219 338.839844 L 421.699219 346.617188 L 398.347656 346.617188 Z M 398.347656 338.839844 " fill-opacity="1" fill-rule="nonzero"/><path fill="#f2fcfc" d="M 421.699219 346.617188 L 429.480469 346.617188 L 429.480469 354.394531 L 421.699219 354.394531 Z M 421.699219 346.617188 " fill-opacity="1" fill-rule="nonzero"/><path fill="#f2fcfc" d="M 476.179688 346.617188 L 499.527344 346.617188 L 499.527344 354.394531 L 476.179688 354.394531 Z M 476.179688 346.617188 " fill-opacity="1" fill-rule="nonzero"/><path fill="#f2fcfc" d="M 429.480469 362.175781 L 437.265625 362.175781 L 437.265625 369.953125 L 429.480469 369.953125 Z M 429.480469 362.175781 " fill-opacity="1" fill-rule="nonzero"/><path fill="#f2fcfc" d="M 421.699219 315.503906 L 429.480469 315.503906 L 429.480469 323.28125 L 421.699219 323.28125 Z M 421.699219 315.503906 " fill-opacity="1" fill-rule="nonzero"/><path fill="#f2fcfc" d="M 522.875 323.28125 L 554.007812 323.28125 L 554.007812 331.0625 L 522.875 331.0625 Z M 522.875 323.28125 " fill-opacity="1" fill-rule="nonzero"/><path fill="#f2fcfc" d="M 554.007812 331.0625 L 561.792969 331.0625 L 561.792969 338.839844 L 554.007812 338.839844 Z M 554.007812 331.0625 " fill-opacity="1" fill-rule="nonzero"/><path fill="#f2fcfc" d="M 546.226562 338.839844 L 554.007812 338.839844 L 554.007812 346.617188 L 546.226562 346.617188 Z M 546.226562 338.839844 " fill-opacity="1" fill-rule="nonzero"/><path fill="#f2fcfc" d="M 577.355469 331.0625 L 592.921875 331.0625 L 592.921875 338.839844 L 577.355469 338.839844 Z M 577.355469 331.0625 " fill-opacity="1" fill-rule="nonzero"/><path fill="#f2fcfc" d="M 592.921875 338.839844 L 600.707031 338.839844 L 600.707031 346.617188 L 592.921875 346.617188 Z M 592.921875 338.839844 " fill-opacity="1" fill-rule="nonzero"/><path fill="#f2fcfc" d="M 600.707031 346.617188 L 608.488281 346.617188 L 608.488281 362.175781 L 600.707031 362.175781 Z M 600.707031 346.617188 " fill-opacity="1" fill-rule="nonzero"/><path fill="#f2fcfc" d="M 585.140625 346.617188 L 592.921875 346.617188 L 592.921875 354.394531 L 585.140625 354.394531 Z M 585.140625 346.617188 " fill-opacity="1" fill-rule="nonzero"/><path fill="#f2fcfc" d="M 577.355469 377.730469 L 585.140625 377.730469 L 585.140625 385.507812 L 577.355469 385.507812 Z M 577.355469 377.730469 " fill-opacity="1" fill-rule="nonzero"/><path fill="#f2fcfc" d="M 561.792969 354.394531 L 569.574219 354.394531 L 569.574219 362.175781 L 561.792969 362.175781 Z M 561.792969 354.394531 " fill-opacity="1" fill-rule="nonzero"/><path fill="#f2fcfc" d="M 375 299.945312 L 382.78125 299.945312 L 382.78125 307.726562 L 375 307.726562 Z M 375 299.945312 " fill-opacity="1" fill-rule="nonzero"/><path fill="#f2fcfc" d="M 367.21875 292.167969 L 375 292.167969 L 375 299.945312 L 367.21875 299.945312 Z M 367.21875 292.167969 " fill-opacity="1" fill-rule="nonzero"/><path fill="#f2fcfc" d="M 608.488281 362.175781 L 616.273438 362.175781 L 616.273438 369.953125 L 608.488281 369.953125 Z M 608.488281 362.175781 " fill-opacity="1" fill-rule="nonzero"/><path fill="#f2fcfc" d="M 616.273438 354.394531 L 639.621094 354.394531 L 639.621094 362.175781 L 616.273438 362.175781 Z M 616.273438 354.394531 " fill-opacity="1" fill-rule="nonzero"/><path fill="#f2fcfc" d="M 639.621094 362.175781 L 647.402344 362.175781 L 647.402344 369.953125 L 639.621094 369.953125 Z M 639.621094 362.175781 " fill-opacity="1" fill-rule="nonzero"/><path fill="#f2fcfc" d="M 647.402344 369.953125 L 655.1875 369.953125 L 655.1875 377.730469 L 647.402344 377.730469 Z M 647.402344 369.953125 " fill-opacity="1" fill-rule="nonzero"/><path fill="#f2fcfc" d="M 639.621094 377.730469 L 647.402344 377.730469 L 647.402344 385.507812 L 639.621094 385.507812 Z M 639.621094 377.730469 " fill-opacity="1" fill-rule="nonzero"/><path fill="#f2fcfc" d="M 624.054688 369.953125 L 631.835938 369.953125 L 631.835938 377.730469 L 624.054688 377.730469 Z M 624.054688 369.953125 " fill-opacity="1" fill-rule="nonzero"/><path fill="#f2fcfc" d="M 468.394531 362.175781 L 476.179688 362.175781 L 476.179688 369.953125 L 468.394531 369.953125 Z M 468.394531 362.175781 " fill-opacity="1" fill-rule="nonzero"/><path fill="#f2fcfc" d="M 172.644531 315.503906 L 180.425781 315.503906 L 180.425781 323.28125 L 172.644531 323.28125 Z M 172.644531 315.503906 " fill-opacity="1" fill-rule="nonzero"/><path fill="#f2fcfc" d="M 188.207031 369.953125 L 195.992188 369.953125 L 195.992188 377.730469 L 188.207031 377.730469 Z M 188.207031 369.953125 " fill-opacity="1" fill-rule="nonzero"/><path fill="#f2fcfc" d="M 195.992188 377.730469 L 203.773438 377.730469 L 203.773438 385.507812 L 195.992188 385.507812 Z M 195.992188 377.730469 " fill-opacity="1" fill-rule="nonzero"/><path fill="#f2fcfc" d="M 125.945312 354.394531 L 133.726562 354.394531 L 133.726562 362.175781 L 125.945312 362.175781 Z M 125.945312 354.394531 " fill-opacity="1" fill-rule="nonzero"/><path fill="#f2fcfc" d="M 227.125 354.394531 L 234.90625 354.394531 L 234.90625 362.175781 L 227.125 362.175781 Z M 227.125 354.394531 " fill-opacity="1" fill-rule="nonzero"/><path fill="#f2fcfc" d="M 219.339844 362.175781 L 227.125 362.175781 L 227.125 369.953125 L 219.339844 369.953125 Z M 219.339844 362.175781 " fill-opacity="1" fill-rule="nonzero"/><path fill="#f2fcfc" d="M 367.21875 354.394531 L 375 354.394531 L 375 362.175781 L 367.21875 362.175781 Z M 367.21875 354.394531 " fill-opacity="1" fill-rule="nonzero"/><path fill="#f2fcfc" d="M 351.652344 331.0625 L 359.433594 331.0625 L 359.433594 346.617188 L 351.652344 346.617188 Z M 351.652344 331.0625 " fill-opacity="1" fill-rule="nonzero"/><path fill="#f2fcfc" d="M 343.867188 323.28125 L 351.652344 323.28125 L 351.652344 331.0625 L 343.867188 331.0625 Z M 343.867188 323.28125 " fill-opacity="1" fill-rule="nonzero"/><path fill="#f2fcfc" d="M 359.433594 315.503906 L 367.21875 315.503906 L 367.21875 323.28125 L 359.433594 323.28125 Z M 359.433594 315.503906 " fill-opacity="1" fill-rule="nonzero"/><path fill="#f2fcfc" d="M 406.132812 385.507812 L 413.914062 385.507812 L 413.914062 393.289062 L 406.132812 393.289062 Z M 406.132812 385.507812 " fill-opacity="1" fill-rule="nonzero"/><path fill="#f2fcfc" d="M 413.914062 369.953125 L 429.480469 369.953125 L 429.480469 377.730469 L 413.914062 377.730469 Z M 413.914062 369.953125 " fill-opacity="1" fill-rule="nonzero"/><path fill="#f2fcfc" d="M 406.132812 362.175781 L 413.914062 362.175781 L 413.914062 369.953125 L 406.132812 369.953125 Z M 406.132812 362.175781 " fill-opacity="1" fill-rule="nonzero"/><path fill="#f2fcfc" d="M 483.960938 385.507812 L 491.746094 385.507812 L 491.746094 393.289062 L 483.960938 393.289062 Z M 483.960938 385.507812 " fill-opacity="1" fill-rule="nonzero"/><g clip-path="url(#b2b1b51da0)"><path fill="#ffde59" d="M 393.0625 485.210938 L 380.847656 485.210938 L 380.847656 491.320312 L 374.742188 491.320312 L 374.742188 503.53125 L 368.632812 503.53125 L 368.632812 491.320312 L 362.527344 491.320312 L 362.527344 485.210938 L 350.316406 485.210938 L 350.316406 479.105469 L 362.527344 479.105469 L 362.527344 473 L 368.632812 473 L 368.632812 460.785156 L 374.742188 460.785156 L 374.742188 473 L 380.847656 473 L 380.847656 479.105469 L 393.0625 479.105469 Z M 393.0625 485.210938 " fill-opacity="1" fill-rule="nonzero"/></g></svg>